<?xml version="1.0" encoding="utf-8"?>
<!-- Svg Vector Icons : http://www.onlinewebfonts.com/icon -->
<!DOCTYPE svg PUBLIC "-//W3C//DTD SVG 1.1//EN" "http://www.w3.org/Graphics/SVG/1.1/DTD/svg11.dtd">
<svg version="1.1" xmlns="http://www.w3.org/2000/svg" xmlns:xlink="http://www.w3.org/1999/xlink" x="0px" y="0px" viewBox="0 0 1000 1000" enable-background="new 0 0 1000 1000" xml:space="preserve">
<metadata> Svg Vector Icons : http://www.onlinewebfonts.com/icon </metadata>
<g><path d="M47.5,941.1c-10.2-10.1-10.2-26.6,0-36.8l668.8-668.8c10.2-10.2,26.7-10.2,36.8,0c10.2,10.2,10.2,26.6,0,36.8L84.3,941.1C74.1,951.3,57.6,951.3,47.5,941.1z"/><path d="M209.2,672.1c11.7-12.7,23.7-25.6,36-38.6c-53.3-68.5-100.9-143.2-126.9-204c-51.3-120.3-38.2-225-33-254.2c8.4-47,62.2-113.2,155.6-113.2c2.2,0,4.4,0,6.6,0.1c12.8,0.4,29.3,11.4,46.5,30.7c48,54,82,148.6,80.3,168.9c-1.1,13.2-17.4,25.7-36.2,40.1c-27.1,20.8-60.8,46.6-65.5,91.9c-3.2,30.4,32.5,90.9,69.2,141.5c12.8-12.5,25.5-24.7,38.1-36.7c-32.7-45.3-54.7-85.5-55.5-99.4c2.3-21.5,18.7-35.5,45.4-56.1c25-19.2,53.4-40.9,56.4-77.1C429.6,225,385,116.9,333,58.3c-27.5-31-55.7-47.2-83.6-48.2C132.4,6,48.1,87.5,34.1,166.1c-5.9,32.8-20.6,150.2,36.4,283.8C99.1,517.1,151.1,598.4,209.2,672.1z"/><path d="M970.5,761.1c-10.8-69.5-158.4-186-235.8-186c-4.8,0-9.5,0.4-13.9,1.2c-30.2,5.5-51,28.5-71.2,50.8c-20.8,23-40.2,44.5-65.9,42.5c-28.8-2.1-61.7-21.3-94.2-48.8c-11.8,12.4-23.9,24.9-36.3,37.5c38.4,32.5,83.1,60.1,126.7,63.2c50.7,3.6,82.8-31.5,108.2-59.5c15-16.6,29.2-32.2,42.1-34.5c1.4-0.3,2.9-0.4,4.5-0.4c55.8,0,177.9,100.7,184.3,141.9c12.2,78.3-98.1,160.3-128.5,165.6c-12.3,2.2-25.5,3.3-39.3,3.3c-91.7,0-218.2-49.9-338.4-133.5c-18.3-12.8-38.2-29.5-58.8-49c-12.9,12.1-25.6,23.9-38.2,35.4c23.4,22.4,46.1,41.6,67.2,56.3C445,890.1,604.4,990,751.3,990c16.8,0,33-1.4,48.3-4C849.6,977.2,988.1,874.2,970.5,761.1z"/></g>
</svg>