<?xml version="1.0" encoding="utf-8"?>
<!-- Generator: Adobe Illustrator 22.0.1, SVG Export Plug-In . SVG Version: 6.00 Build 0)  -->
<svg version="1.1" id="Слой_1" xmlns="http://www.w3.org/2000/svg" xmlns:xlink="http://www.w3.org/1999/xlink" x="0px" y="0px"
	 viewBox="0 0 1000 1000" style="enable-background:new 0 0 1000 1000;" xml:space="preserve">
<style type="text/css">
	.st0{fill:#FFFFFF;}
</style>
<g>
	<path class="st0" d="M990,377.5H622.5l137.4-137.4C690.4,170.7,598.2,132.5,500,132.5s-190.5,38.2-259.9,107.6
		C170.7,309.6,132.5,401.8,132.5,500s38.2,190.5,107.6,259.9S401.8,867.5,500,867.5s190.5-38.2,259.9-107.6
		c5.8-5.8,11.3-11.8,16.7-17.9l92.2,80.7C778.9,925.2,647,990,500,990C229.4,990,10,770.6,10,500S229.4,10,500,10
		c135.3,0,257.8,54.9,346.5,143.5L990,10V377.5L990,377.5L990,377.5z"/>
</g>
</svg>
