<?xml version="1.0" encoding="utf-8"?>
<!-- Generator: Adobe Illustrator 22.0.1, SVG Export Plug-In . SVG Version: 6.00 Build 0)  -->
<svg version="1.1" id="Слой_1" xmlns="http://www.w3.org/2000/svg" xmlns:xlink="http://www.w3.org/1999/xlink" x="0px" y="0px"
	 viewBox="0 0 1000 1000" style="enable-background:new 0 0 1000 1000;" xml:space="preserve">
<style type="text/css">
	.st0{fill:#FFFFFF;}
</style>
<g>
	<g transform="translate(0.000000,512.000000) scale(0.100000,-0.100000)">
		<path class="st0" d="M8012.2,4993.6c-317.9-86.2-626.3-339-974.9-796.8c-385-507.6-567-930.8-538.2-1250.7
			c24.9-270.1,139.8-459.7,501.8-833.2c141.7-147.5,272-298.8,287.3-335.2c90-214.5-21.1-557.4-323.7-1005.5
			C6683,354.7,6357.4-20.7,5748.3-629.8s-984.5-934.7-1402-1216.2c-448.2-302.6-791-413.7-1005.5-323.7
			c-36.4,15.3-187.7,145.6-335.2,287.3c-379.2,369.7-568.8,480.8-850.4,501.8c-340.9,26.8-808.3-191.5-1361.8-637.8
			c-641.6-515.2-837-1017.1-589.9-1505.5C306.9-3730.8,418-3864.8,774.3-4223c329.4-331.3,381.1-373.5,509.5-434.8
			C2140-5061.9,3940.4-4450.9,5622-3184.9C7663.6-1648.7,9316.6,555.8,9780,2354.3c160.9,632.1,160.9,1139.6-5.8,1480.5
			c-61.3,128.3-109.2,183.9-434.8,509.5c-201.1,201.1-417.6,400.3-480.7,442.4C8537,5001.3,8278.4,5064.5,8012.2,4993.6z"/>
	</g>
</g>
</svg>
