<?xml version="1.0" encoding="utf-8"?>
<!-- Generator: Adobe Illustrator 22.0.1, SVG Export Plug-In . SVG Version: 6.00 Build 0)  -->
<svg version="1.1" id="Layer_1" xmlns="http://www.w3.org/2000/svg" xmlns:xlink="http://www.w3.org/1999/xlink" x="0px" y="0px"
	 viewBox="0 0 30 30" style="enable-background:new 0 0 30 30;" xml:space="preserve">
<style type="text/css">
	.st0{fill:#25878E;}
</style>
<path class="st0" d="M3.7,14.5c0-2,0.5-3.9,1.5-5.7s2.4-3.1,4.1-4.1S13,3.2,15,3.2c1.5,0,3,0.3,4.4,0.9S22,5.5,23,6.5
	s1.8,2.2,2.4,3.6s0.9,2.9,0.9,4.4c0,1.5-0.3,3-0.9,4.4S24,21.4,23,22.4s-2.2,1.8-3.6,2.4s-2.8,0.9-4.4,0.9s-3-0.3-4.4-0.9
	S8,23.4,7,22.4s-1.8-2.2-2.4-3.6S3.7,16,3.7,14.5z M6.2,14.5c0,2.4,0.9,4.4,2.6,6.2c1.7,1.7,3.8,2.6,6.2,2.6c1.6,0,3.1-0.4,4.4-1.2
	s2.4-1.9,3.2-3.2s1.2-2.8,1.2-4.4s-0.4-3.1-1.2-4.4s-1.9-2.4-3.2-3.2S16.6,5.7,15,5.7S12,6.1,10.6,6.9s-2.4,1.9-3.2,3.2
	S6.2,12.9,6.2,14.5z M14.1,14.5V7.8c0-0.2,0.1-0.4,0.2-0.6S14.7,7,15,7s0.4,0.1,0.6,0.2s0.2,0.4,0.2,0.6V14l3.6,2.1
	c0.2,0.1,0.3,0.3,0.4,0.5s0,0.4-0.1,0.6c-0.2,0.3-0.4,0.4-0.7,0.4c-0.2,0-0.3,0-0.4-0.1l-3.8-2.2c-0.2-0.1-0.3-0.1-0.4-0.3
	S14.1,14.7,14.1,14.5z"/>
</svg>
