<?xml version="1.0" encoding="utf-8"?>
<!-- Generator: Adobe Illustrator 22.0.1, SVG Export Plug-In . SVG Version: 6.00 Build 0)  -->
<svg version="1.1" id="Слой_1" xmlns="http://www.w3.org/2000/svg" xmlns:xlink="http://www.w3.org/1999/xlink" x="0px" y="0px"
	 viewBox="0 0 1000 1000" style="enable-background:new 0 0 1000 1000;" xml:space="preserve">
<style type="text/css">
	.st0{fill:#020202;}
</style>
<g>
	<g transform="translate(0.000000,512.000000) scale(0.100000,-0.100000)">
		<path class="st0" d="M1606.9,4991.9c-109.2-38.3-166.7-86.2-222.2-183.9c-47.9-82.4-47.9-93.9-53.6-563.2
			c-7.7-534.5,1.9-597.7,103.4-716.5c180.1-210.7,528.7-168.6,655.2,78.5c46,88.1,46,99.6,46,588.1c0,323.8-7.7,521.1-23,565.1
			c-26.8,86.2-166.7,214.6-260.5,239.5C1754.4,5026.4,1698.9,5024.5,1606.9,4991.9z M1859.8,4790.8c1.9,0,21.1-28.7,42.1-61.3
			c34.5-59.4,38.3-97.7,38.3-532.6c0-517.2-1.9-524.9-118.8-586.2c-78.5-40.2-166.7-21.1-237.5,51.7l-55.6,57.5v477
			c0,454,1.9,478.9,40.2,530.7c49.8,67,149.4,101.5,228,80.4C1827.2,4798.4,1856,4790.8,1859.8,4790.8z"/>
		<path class="st0" d="M6101.2,4995.7c-95.8-36.4-195.4-124.5-235.6-212.6c-32.6-70.9-36.4-132.2-36.4-572.8
			c0-536.4,7.7-580.5,111.1-691.6c197.3-210.7,551.7-143.7,662.9,126.4c24.9,59.4,30.6,160.9,30.6,565.1
			c0,438.7-3.8,503.8-36.4,572.8C6515,4965.1,6287,5062.8,6101.2,4995.7z M6375.1,4750.5l57.5-55.6l5.7-469.3
			c5.7-394.6,1.9-477-24.9-524.9c-30.6-63.2-116.9-116.9-182-116.9s-151.3,53.6-182,116.9c-26.8,47.9-30.6,130.3-24.9,524.9
			l5.7,467.4l55.6,57.5C6174,4842.5,6279.3,4842.5,6375.1,4750.5z"/>
		<path class="st0" d="M338.7,4160.5c-93.9-42.1-185.8-149.4-216.5-249c-28.7-101.5-30.7-6662.8,0-6772
			c26.8-93.9,153.3-233.7,241.4-262.4c49.8-15.3,618.8-21.1,2159-21.1c1149.4,0,2109.2,1.9,2134.1,1.9
			c47.9,1.9,49.8,19.2,21.1,122.6l-19.2,70.9H2557.1c-2049.8,0-2103.4,1.9-2162.8,38.3c-42.1,24.9-67,59.4-80.4,109.2
			c-19.2,76.6-28.7,5164.7-9.6,5298.8l11.5,70.9H3992h3676.2v-1023V524.5l72.8-13.4c38.3-5.8,82.4-11.5,95.8-11.5
			c17.2,0,23,350.6,23,1685.8c0,1844.8,5.7,1760.5-111.1,1885c-103.5,111.1-168.6,126.4-553.7,126.4h-350.6V4101v-95.8h325.7
			c521.1,0,500,28.7,494.3-703.1l-5.8-532.6H3980.5H302.3v549.8V3871l63.2,61.3l61.3,63.2l344.8,5.7l344.8,5.8v95.8v93.9H767.9
			C469,4196.9,405.8,4191.2,338.7,4160.5z"/>
		<path class="st0" d="M2350.2,4154.8c5.8-24.9,11.5-67.1,11.5-95.8v-53.6H3990h1628.3v95.8v95.8H3978.6H2338.7L2350.2,4154.8z"/>
		<path class="st0" d="M924.9,1342.5v-613h603.4h603.4l1.9,76.6c0,42.1,1.9,270.1,1.9,507.7s-1.9,478.9-1.9,536.4l-1.9,105.4h-603.4
			H924.9V1342.5z M1940.3,1342.5V928.7h-406.1l-408,1.9l-5.7,392.7c-1.9,214.6,0,402.3,3.8,415.7c7.7,17.2,111.1,23,411.9,19.2
			l404.2-1.9v-413.8H1940.3z"/>
		<path class="st0" d="M2553.3,1342.5v-613h613h613v613v613h-613h-613V1342.5z M3578.2,1342.5V930.6h-411.9h-411.9l-1.9,402.3
			c-1.9,222.2,0,408,3.8,413.8c3.8,7.7,189.7,11.5,413.8,9.6l408-1.9L3578.2,1342.5L3578.2,1342.5z"/>
		<path class="st0" d="M4198.9,1923c-1.9-19.2-3.8-295-5.7-613l-1.9-580.4h609.2h607.3v613v613h-603.5
			C4242.9,1955.5,4200.8,1953.6,4198.9,1923z M5212.3,1348.2l3.8-404.2l-70.9-11.5c-92-13.4-496.2-13.4-641.8,1.9l-111.1,9.6v406.1
			v406.1h408l406.1-1.9L5212.3,1348.2z"/>
		<path class="st0" d="M5829.1,1342.5v-613h603.5c590,0,603.4,0,605.4,38.3c0,21.1,1.9,231.8,1.9,469.3s-1.9,496.2-1.9,574.7
			l-1.9,143.7h-603.4h-603.5v-613H5829.1z M6764,1750.5l80.5-9.6v-406.1V930.6h-408h-406.1l-5.7,406.1
			c-3.8,373.6-1.9,406.1,28.7,413.8C6105,1762,6670.1,1764,6764,1750.5z"/>
		<path class="st0" d="M1007.3,311.9l-82.4-5.8v-603.4v-601.5h603.4h603.4l1.9,130.3c5.7,429.1,1.9,1061.3-7.7,1070.9
			C2114.6,313.8,1149.1,321.4,1007.3,311.9z M1940.3-295.4v-411.9h-411.9h-411.9v411.9v411.9h411.9h411.9V-295.4z"/>
		<path class="st0" d="M2587.8,311.9c-32.6-5.8-34.5-49.8-34.5-609.2v-601.5h613h613v609.2v607.3h-580.5
			C2880.9,317.6,2605,315.7,2587.8,311.9z M3574.4,7.2c15.3-147.5,15.3-551.7,1.9-643.7l-11.5-70.9l-404.2,3.8l-406.1,5.7l-1.9,408
			v406.1h406.1h406.1L3574.4,7.2z"/>
		<path class="st0" d="M4198.9,317.6c0,0-1.9-274-3.8-609.2l-3.8-607.3h394.6h396.5l59.4,92l57.5,90l-352.5,5.7l-354.4,3.8v411.9
			v411.9h411.9h411.9v-337.2V-558l95.8,113l95.8,111.1V-8.1v325.7h-603.5C4472.8,317.6,4200.8,317.6,4198.9,317.6z"/>
		<path class="st0" d="M7160.6,95.4c-580.5-80.5-1074.7-329.5-1467.4-737.5c-325.7-341-532.6-731.8-632.2-1197.3
			c-61.3-283.5-61.3-729.9,0-1003.8c216.5-961.7,942.5-1685.8,1900.4-1888.9c281.6-61.3,710.7-61.3,992.4,0
			c959.7,205,1695.4,940.6,1900.4,1898.5c61.3,283.5,61.3,712.6,0,994.3C9681.6-1027.2,9129.9-372.1,8363.6-61.7
			C8015,78.1,7513,145.2,7160.6,95.4z M7697-103.9C8015-125,8394.3-261,8698.9-464c459.8-308.4,795-777.8,936.8-1312.3
			c72.8-273.9,84.3-718.4,24.9-1000c-182-888.9-873.6-1580.4-1762.4-1762.4c-281.6-59.4-726.1-47.9-1000,24.9
			C6106.9-4305,5493.9-3692,5281.3-2896.9c-122.6,459.8-78.6,1015.3,116.8,1465.5C5606.9-950.6,6072.4-485,6553.3-276.2
			c277.8,120.7,731.8,212.7,942.5,189.7C7522.6-90.4,7612.7-98.1,7697-103.9z"/>
		<path class="st0" d="M7099.3-912.3l-44.1-7.7v-910v-908.1h908c607.3,0,913.8,5.8,921.4,19.2c7.7,11.5,7.7,55.6,0,95.8l-13.4,76.6
			H8059h-812.3v823.8V-899l-51.7-1.9C7164.4-902.7,7122.2-908.5,7099.3-912.3z"/>
		<path class="st0" d="M924.9-1927.6v-609.2l605.4,1.9l605.4,3.8l3.8,605.4l1.9,605.4h-607.3H924.9V-1927.6z M1940.3-1923.8v-411.9
			h-411.9h-411.9v411.9v411.9h411.9h411.9V-1923.8z"/>
		<path class="st0" d="M2553.3-1923.8v-603.4l143.7-1.9c78.5,0,337.2-1.9,574.7-1.9s448.3,1.9,469.4,1.9
			c38.3,1.9,38.3,15.3,38.3,605.4v603.4h-613h-613L2553.3-1923.8L2553.3-1923.8z M3578.2-1927.6v-408H3174h-406.1l-9.6,82.4
			c-15.3,103.5-15.3,618.8-1.9,689.7l11.5,51.7l404.2-3.8l406.1-5.7V-1927.6z"/>
		<path class="st0" d="M4198.9-1439.1c-7.7-394.6-9.6-990.4-1.9-1032.5c7.7-46,17.2-51.7,118.8-61.3c59.4-5.7,149.4-5.7,199.2,0
			l88.1,11.5v92v93.9h-105.4h-105.4v411.9v411.9h160.9h160.9l30.7,90c17.2,49.8,30.7,92,30.7,95.8s-128.4,5.7-287.4,5.7h-287.4
			L4198.9-1439.1z"/>
	</g>
</g>
</svg>
