<?xml version="1.0" encoding="utf-8"?>
<!-- Generator: Adobe Illustrator 22.0.1, SVG Export Plug-In . SVG Version: 6.00 Build 0)  -->
<svg version="1.1" id="Layer_1" xmlns="http://www.w3.org/2000/svg" xmlns:xlink="http://www.w3.org/1999/xlink" x="0px" y="0px"
	 viewBox="0 0 64 64" style="enable-background:new 0 0 64 64;" xml:space="preserve">
<title></title>
<path d="M18.3,45.7C24.5,51.8,41.1,64,51,64c2,0.1,3.9-0.6,5.3-1.9c2.4-2.3,4.5-4.9,6.5-7.6c1.8-2.6,1.4-6.2-1-8.3
	C58.1,43,49.2,36,46,39.2c-2.2,2.2-8.1,8.1-11.2,5.1L19.7,29.1c-3.1-3.1,2.8-9,5.1-11.2c3.1-3.1-3.9-12.1-7-15.8
	c-2.1-2.4-5.7-2.8-8.3-1c-2.7,2-5.3,4.2-7.6,6.5C-5.6,15.1,10.8,38.2,18.3,45.7z M47.5,40.7c1-1,6.3,1.4,13,7.1
	c1.5,1.3,1.9,3.6,0.8,5.3L46.5,41.6L47.5,40.7z M16.2,3.4c5.7,6.7,8.2,12,7.1,13c-0.4,0.4-1,1-1.6,1.6l-11-15.4
	C12.5,1.5,14.9,1.9,16.2,3.4z M3.3,9.1C5.4,7,7.6,5,10,3.3l11.1,15.6c-2.9,3.3-6.3,8.2-2.8,11.7l15.2,15.2c3.7,3.7,9.1-0.4,12.3-3.4
	l15,11.6c-1.8,2.4-3.7,4.7-5.8,6.8c-5.5,5.5-26.2-7.4-35.2-16.4S-2.2,14.6,3.3,9.1z"/>
<path d="M32,0c-3.5,0-7,0.6-10.3,1.7C21.2,1.9,20.9,2.4,21,3s0.7,0.8,1.3,0.6C38-1.7,55,6.6,60.4,22.3c2.1,6.3,2.1,13.1,0,19.4
	c-0.2,0.5,0,1.1,0.6,1.3l0,0c0.1,0,0.2,0,0.3,0c0.4,0,0.8-0.3,1-0.7C68,25.6,59,7.4,42.3,1.7C39,0.6,35.5,0,32,0z"/>
<path d="M32,10c-0.6,0-1,0.4-1,1v21c0,0.4,0.2,0.7,0.5,0.9l9,5C40.7,38,40.8,38,41,38c0.6,0,1-0.5,1-1c0-0.4-0.2-0.7-0.5-0.9
	L33,31.4V11C33,10.4,32.6,10,32,10z"/>
<path d="M32,4.5c-0.8,0-1.5,0.7-1.5,1.5s0.7,1.5,1.5,1.5s1.5-0.7,1.5-1.5S32.8,4.5,32,4.5z M32,6.5c-0.3,0-0.5-0.2-0.5-0.5
	s0.2-0.5,0.5-0.5s0.5,0.2,0.5,0.5S32.3,6.5,32,6.5z"/>
<path d="M44.3,10.8c0.2,0.1,0.5,0.2,0.8,0.2c0.5,0,1-0.3,1.3-0.8l0,0c0.4-0.7,0.2-1.6-0.6-2c-0.7-0.4-1.6-0.2-2,0.6
	c-0.2,0.3-0.3,0.8-0.1,1.1C43.7,10.3,43.9,10.6,44.3,10.8z M44.6,9.2C44.7,9.1,44.8,9,45,9c0.1,0,0.2,0,0.3,0.1
	c0.2,0.1,0.3,0.4,0.2,0.7l0,0c-0.1,0.2-0.4,0.3-0.7,0.2c-0.1-0.1-0.2-0.2-0.2-0.3C44.5,9.5,44.5,9.3,44.6,9.2z"/>
<path d="M54.1,20.5c0.1,0,0.3,0,0.4,0c0.3,0,0.5-0.1,0.8-0.2c0.7-0.4,1-1.3,0.5-2.1c-0.4-0.7-1.3-1-2-0.5c-0.7,0.4-1,1.3-0.6,2l0,0
	C53.4,20.1,53.7,20.4,54.1,20.5z M54.3,18.6c0.1,0,0.2-0.1,0.3-0.1c0.3,0,0.5,0.2,0.5,0.5c0,0.2-0.1,0.3-0.2,0.4
	c-0.1,0.1-0.3,0.1-0.4,0c-0.1,0-0.2-0.1-0.3-0.2C53.9,19,54,18.7,54.3,18.6z"/>
<path d="M59.5,32c0-0.8-0.7-1.5-1.5-1.5s-1.5,0.7-1.5,1.5s0.7,1.5,1.5,1.5S59.5,32.8,59.5,32z M57.5,32c0-0.3,0.2-0.5,0.5-0.5
	s0.5,0.2,0.5,0.5s-0.2,0.5-0.5,0.5S57.5,32.3,57.5,32z"/>
</svg>
