<?xml version="1.0" encoding="utf-8"?>
<!-- Generator: Adobe Illustrator 22.0.1, SVG Export Plug-In . SVG Version: 6.00 Build 0)  -->
<svg version="1.1" id="Capa_1" xmlns="http://www.w3.org/2000/svg" xmlns:xlink="http://www.w3.org/1999/xlink" x="0px" y="0px"
	 viewBox="0 0 699.4 699.4" style="enable-background:new 0 0 699.4 699.4;" xml:space="preserve">
<style type="text/css">
	.st0{fill:#FFFFFF;}
</style>
<g>
	<g id="_x33__21_">
		<g>
			<path class="st0" d="M502.7,0C500,0,240.4,0,240.4,0C194.2,0,153,42.4,153,87.4L127.7,88c-46.2,0-84,41.8-84,86.8V612
				c0,45,41.2,87.4,87.4,87.4H459c46.2,0,87.4-42.4,87.4-87.4h21.9c46.3,0,87.4-42.4,87.4-87.4V175.4L502.7,0z M459,655.7H131.1
				c-22.9,0-43.7-21.4-43.7-43.7V174.9c0-22.3,18.7-43,41.6-43l23.9-0.7v393.4c0,45,41.2,87.4,87.4,87.4h262.3
				C502.7,634.3,481.9,655.7,459,655.7z M612,524.6c0,22.3-20.8,43.7-43.7,43.7H240.4c-22.9,0-43.7-21.4-43.7-43.7V87.4
				c0-22.3,20.8-43.7,43.7-43.7H459c-0.4,50.3,0,88,0,88c0,45.4,40.9,86.9,87.4,86.9c0,0,23.2,0,65.6,0V524.6z M546.4,174.9
				c-23.3,0-43.7-42.3-43.7-65c0,0,0-23,0-65.5v0L612,174.9H546.4z M502.7,306.4H306c-12.1,0-21.9,9.8-21.9,21.8s9.8,21.8,21.9,21.8
				h196.7c12.1,0,21.9-9.8,21.9-21.8C524.6,316.2,514.8,306.4,502.7,306.4z M502.7,415.6H306c-12.1,0-21.9,9.8-21.9,21.8
				c0,12.1,9.8,21.8,21.9,21.8h196.7c12.1,0,21.9-9.8,21.9-21.8C524.6,425.3,514.8,415.6,502.7,415.6z"/>
		</g>
	</g>
</g>
</svg>
