<?xml version="1.0" encoding="utf-8"?>
<!-- Generator: Adobe Illustrator 22.0.1, SVG Export Plug-In . SVG Version: 6.00 Build 0)  -->
<svg version="1.1" id="Capa_1" xmlns="http://www.w3.org/2000/svg" xmlns:xlink="http://www.w3.org/1999/xlink" x="0px" y="0px"
	 viewBox="0 0 535.6 535.6" style="enable-background:new 0 0 535.6 535.6;" xml:space="preserve">
<style type="text/css">
	.st0{fill:#FFFFFF;}
</style>
<g>
	<g>
		<g>
			<path class="st0" d="M401.7,29.8c0,13.1-6.7,23.8-14.9,23.8h-238c-8.2,0-14.9-10.7-14.9-23.8v-6c0-13.1,6.7-23.8,14.9-23.8h238
				c8.2,0,14.9,10.7,14.9,23.8V29.8L401.7,29.8z"/>
			<path class="st0" d="M401.7,511.8c0,13.1-6.7,23.8-14.9,23.8h-238c-8.2,0-14.9-10.7-14.9-23.8v-6c0-13.1,6.7-23.8,14.9-23.8h238
				c8.2,0,14.9,10.7,14.9,23.8V511.8L401.7,511.8z"/>
			<g>
				<path class="st0" d="M267.8,268.9l-2.8-1.9c-1.2-0.8-29.8-20.4-58.8-52.4c-38.7-42.7-59.2-87-59.2-128.1
					c0-24.5,13.4-44.9,38.7-59.1c21.7-12.2,50.9-18.9,82-18.9s60.3,6.7,82,18.9c25.3,14.2,38.7,34.7,38.7,59.1
					c0,41.1-20.5,85.4-59.2,128.1c-29,32-57.6,51.6-58.8,52.4L267.8,268.9z M267.8,18.4c-29.5,0-56.9,6.3-77.1,17.6
					c-15.3,8.6-33.6,24.3-33.6,50.4c0,48.7,30.8,92.9,56.6,121.3c23,25.4,46.3,43.1,54.2,48.9c7.9-5.8,31.3-23.6,54.3-49
					c25.7-28.4,56.4-72.5,56.4-121.2c0-26.1-18.3-41.8-33.6-50.4C324.7,24.6,297.3,18.4,267.8,18.4z"/>
				<path class="st0" d="M267.8,522.2c-31.2,0-60.3-6.7-82-18.9c-25.3-14.2-38.7-34.7-38.7-59.1c0-41.1,20.5-85.4,59.2-128.1
					c29-32,57.6-51.6,58.8-52.4l2.8-1.9l2.8,1.9c1.2,0.8,29.8,20.4,58.8,52.4c38.7,42.7,59.2,87,59.2,128.1
					c0,24.5-13.4,44.9-38.7,59.1C328.1,515.5,299,522.2,267.8,522.2z M267.8,273.9c-7.9,5.8-31.3,23.6-54.3,49
					c-25.7,28.4-56.4,72.5-56.4,121.2c0,26.1,18.3,41.8,33.6,50.4c20.3,11.4,47.6,17.6,77.1,17.6c29.5,0,56.9-6.3,77.1-17.6
					c15.3-8.6,33.6-24.3,33.6-50.4c0-48.7-30.7-92.8-56.4-121.2C299,297.5,275.7,279.7,267.8,273.9z"/>
			</g>
			<path class="st0" d="M346.7,129.9c0,66-78.9,119.6-78.9,119.6s-78.9-53.5-78.9-119.6S346.7,63.8,346.7,129.9z"/>
		</g>
	</g>
</g>
</svg>
