<?xml version="1.0" encoding="utf-8"?>
<!-- Generator: Adobe Illustrator 22.0.1, SVG Export Plug-In . SVG Version: 6.00 Build 0)  -->
<svg version="1.1" id="Слой_1" xmlns="http://www.w3.org/2000/svg" xmlns:xlink="http://www.w3.org/1999/xlink" x="0px" y="0px"
	 viewBox="0 0 1000 1000" style="enable-background:new 0 0 1000 1000;" xml:space="preserve">
<style type="text/css">
	.st0{fill:#FFFFFF;}
</style>
<g>
	<path class="st0" d="M500,990C229.8,990,10,770.2,10,500S229.8,10,500,10s490,219.8,490,490S770.2,990,500,990L500,990z M500,80
		C268.4,80,80,268.4,80,500s188.4,420,420,420s420-188.4,420-420S731.6,80,500,80L500,80z M501.2,606.4
		c98.6,0,189.7,44.9,249.8,123.1c11.8,15.3,8.9,37.3-6.4,49.1c-15.3,11.8-37.3,8.9-49.1-6.4c-46.8-60.9-117.6-95.8-194.3-95.8
		c-75.9,0-146.3,34.3-193.1,94.1c-11.9,15.3-33.9,17.9-49.1,6c-15.2-11.9-17.9-33.9-6-49.1C313.1,650.5,403.6,606.4,501.2,606.4
		L501.2,606.4z M343.7,503.5c-29,0-52.5-23.5-52.5-52.5v-70c0-29,23.5-52.5,52.5-52.5s52.5,23.5,52.5,52.5v70
		C396.2,480,372.6,503.5,343.7,503.5L343.7,503.5z M658.7,503.5c-29,0-52.5-23.5-52.5-52.5v-70c0-29,23.5-52.5,52.5-52.5
		s52.5,23.5,52.5,52.5v70C711.2,480,687.6,503.5,658.7,503.5L658.7,503.5z"/>
</g>
</svg>
