<?xml version="1.0" encoding="utf-8"?>
<!-- Generator: Adobe Illustrator 22.0.1, SVG Export Plug-In . SVG Version: 6.00 Build 0)  -->
<svg version="1.1" id="Слой_1" xmlns="http://www.w3.org/2000/svg" xmlns:xlink="http://www.w3.org/1999/xlink" x="0px" y="0px"
	 viewBox="0 0 1000 1000" style="enable-background:new 0 0 1000 1000;" xml:space="preserve">
<style type="text/css">
	.st0{fill:#FFFFFF;}
</style>
<g>
	<g transform="translate(0.000000,511.000000) scale(0.100000,-0.100000)">
		<path class="st0" d="M1251.2,4983.3c-162.6-35.9-200.6-65.5-597.7-458.3c-223.9-221.8-426.6-433-447.7-466.8
			c-63.4-101.4-84.5-236.6-59.1-359c21.1-103.5,44.3-128.8,1755.1-1843.8L3637.7,119.3L1891.1-1629.5
			C53.6-3469.1,100.1-3416.3,100.1-3595.8c0-158.4,40.1-213.3,481.5-661c238.7-240.8,466.8-454.1,506.9-473.1
			c103.5-48.6,211.2-59.1,321-29.6c86.6,21.1,242.9,171.1,1843.8,1769.9L5000-1243l1748.8-1746.6
			c1598.8-1598.8,1755.1-1748.8,1841.7-1769.9c109.8-29.6,217.5-19,321,29.6c40.1,19,268.2,232.3,506.9,473.1
			c441.4,447.7,481.5,502.6,481.5,661c0,179.5,46.5,126.7-1791,1966.3L6362.3,119.3l1736.1,1736.1
			c1710.7,1715,1734,1740.3,1755.1,1843.8c23.2,109.8,6.3,242.9-42.2,335.8c-31.7,61.2-794.1,830-872.3,878.6
			c-101.4,63.4-236.6,84.5-359,59.1c-103.5-21.1-128.8-44.3-1841.7-1755.1L5000,1481.5L3261.8,3217.6l-1736.1,1734l-111.9,23.2
			c-61.3,12.7-114.1,21.1-116.2,21.1C1295.5,4993.8,1274.4,4989.6,1251.2,4983.3z"/>
	</g>
</g>
</svg>
