<?xml version="1.0" encoding="utf-8"?>
<!-- Generator: Adobe Illustrator 22.0.1, SVG Export Plug-In . SVG Version: 6.00 Build 0)  -->
<svg version="1.1" id="Layer_1" xmlns="http://www.w3.org/2000/svg" xmlns:xlink="http://www.w3.org/1999/xlink" x="0px" y="0px"
	 viewBox="0 0 24 24" style="enable-background:new 0 0 24 24;" xml:space="preserve">
<style type="text/css">
	.st0{fill:#FFFFFF;}
</style>
<g>
	<g>
		<path class="st0" d="M13.9,23.4H6.1c-2.1,0-2.3,0-2.3,0c-0.1,0-0.3-0.2-0.4-0.3c-0.1-0.1-0.3-0.4-0.3-0.5c0-0.1,0-1.4,0-2.2v-13
			c0-2.1,0-2.2,0-2.3c0-0.1,0.2-0.3,0.3-0.4c0.1-0.1,0.4-0.3,0.5-0.3c0.1,0,1.8,0,2.2,0h2.5c2.2,0,2.3,0.1,2.4,0.1
			c0,0,0.1,0.1,1.6,1.5l2.7,2.7c1.4,1.4,1.5,1.5,1.5,1.6c0,0,0.1,0.1,0.1,0.4c0,0.1,0,0.1,0,0.2c0,0,0,0.1,0,0.1c0,0.3,0,0.9,0,1.7
			v7.7c0,2.1,0,2.2,0,2.3c0,0.1-0.2,0.3-0.3,0.4c-0.1,0.1-0.4,0.3-0.5,0.3C15.9,23.4,14.5,23.4,13.9,23.4z M4.3,22.6
			c0.3,0,1,0,1.8,0h7.8c1,0,2,0,2.1,0c0,0,0,0,0.1-0.1c0,0,0.1-0.1,0.1-0.1c0,0,0-0.9,0-2v-7.7c0-0.6,0-1.1,0-1.4h-3.6
			c-1.3,0-2.4-1.1-2.4-2.4V5.2c-0.4,0-0.9,0-1.4,0H6.1c-1.1,0-2,0-2.1,0c0,0,0,0-0.1,0.1c0,0-0.1,0.1-0.1,0.1c0,0,0,0.8,0,2v13
			c0,1,0,2,0,2.1c0,0,0,0,0.1,0.1c0,0,0.1,0.1,0.1,0.1C4.1,22.6,4.1,22.6,4.3,22.6z M10.8,5.5v3.4c0,0.9,0.7,1.6,1.6,1.6h3.4
			c-0.3-0.3-0.6-0.6-1.1-1.1L12,6.6C11.5,6.1,11.1,5.7,10.8,5.5z"/>
	</g>
	<g>
		<path class="st0" d="M19.2,19.6h-0.7c-0.2,0-0.4-0.2-0.4-0.4s0.2-0.4,0.4-0.4h0.7c0.3,0,0.6,0,0.7,0c0,0,0,0,0.1-0.1
			c0,0,0.1-0.1,0.1-0.1c0,0,0-0.9,0-2V8.9c0-0.6,0-1.1,0-1.4h-3.6c-1.3,0-2.4-1.1-2.4-2.4V1.4c-0.4,0-0.9,0-1.4,0h-2.5
			c-1.1,0-2,0-2.1,0c0,0,0,0-0.1,0.1c0,0-0.1,0.1-0.1,0.1c0,0,0,0.4,0,0.7v0.7c0,0.2-0.2,0.4-0.4,0.4S7.1,3.2,7.1,2.9V2.3
			c0-0.3,0-0.8,0-1c0-0.1,0.2-0.3,0.3-0.4c0.1-0.1,0.4-0.3,0.5-0.3c0.1,0,1.8,0,2.2,0h2.5c2.2,0,2.3,0.1,2.4,0.1
			c0,0,0.1,0.1,1.6,1.5L19.3,5c1.5,1.6,1.6,1.6,1.6,1.8c0,0,0,0,0,0.2c0,0,0,0.1,0,0.1c0,0,0,0.1,0,0.1c0,0.3,0,0.8,0,1.8v7.7
			c0,2.1,0,2.2,0,2.3c0,0.1-0.2,0.3-0.3,0.4c-0.1,0.1-0.4,0.3-0.5,0.3C20,19.6,19.6,19.6,19.2,19.6z M14.8,1.7v3.4
			c0,0.9,0.7,1.6,1.6,1.6h3.4c-0.3-0.3-0.6-0.7-1.1-1.1L16,2.8C15.5,2.4,15.1,2,14.8,1.7z"/>
	</g>
</g>
</svg>
