<?xml version="1.0" encoding="utf-8"?>
<!-- Generator: Adobe Illustrator 22.0.1, SVG Export Plug-In . SVG Version: 6.00 Build 0)  -->
<svg version="1.1" id="Layer_1" xmlns="http://www.w3.org/2000/svg" xmlns:xlink="http://www.w3.org/1999/xlink" x="0px" y="0px"
	 viewBox="0 0 91 91" style="enable-background:new 0 0 91 91;" xml:space="preserve">
<style type="text/css">
	.st0{fill:#FFFFFF;}
</style>
<g>
	<path class="st0" d="M80,29.3V16.4c0-1.5-1.2-2.7-2.7-2.7H59.2V4.8C59.2,3.3,58,2,56.5,2H36c-1.5,0-2.7,1.2-2.7,2.7v8.9H15.3
		c-1.5,0-2.7,1.2-2.7,2.7v12.9c0,1.5,1.2,2.7,2.7,2.7H16v54.6c0,1.5,1.2,2.7,2.7,2.7H66c5.8,0,10.5-4.7,10.5-10.5V32h0.8
		C78.8,32,80,30.8,80,29.3z M38.8,7.5h15v6.1h-15C38.8,13.6,38.8,7.5,38.8,7.5z M71,78.8c0,2.8-2.2,5-5,5H21.5V32L71,32V78.8z
		 M74.5,26.5H18v-7.5H36h20.4h18.1L74.5,26.5L74.5,26.5z"/>
	<rect x="29.9" y="42.9" class="st0" width="5.5" height="32"/>
	<rect x="43.5" y="42.9" class="st0" width="5.5" height="32"/>
	<rect x="57.2" y="42.9" class="st0" width="5.5" height="32"/>
</g>
</svg>
