<svg xmlns="http://www.w3.org/2000/svg" width="41" height="41" viewBox="0 0 41 41">
  <defs>
    <style>
      .cls-1 {
        fill: #9ab5ca;
      }
    </style>
  </defs>
  <title>price-trigger-2</title>
  <g id="Layer_2" data-name="Layer 2">
    <g id="Capa_1" data-name="Capa 1">
      <g>
        <path class="cls-1" d="M39.78,18.87l-6.41-6.94V9.06a1.43,1.43,0,0,0-1.43-1.43H21.29V7.15a2.06,2.06,0,0,0-2.06-2.06h-.8V6.67h.8a.49.49,0,0,1,.48.48V28.81a27.1,27.1,0,0,1-.24,3.6l-.73,5.48A1.76,1.76,0,0,1,17,39.41H4.29a1.75,1.75,0,0,1-1.73-1.52l-.73-5.48a27.1,27.1,0,0,1-.24-3.6V6.52A.47.47,0,0,1,2.07,6h.79V4.45H2.07A2.07,2.07,0,0,0,0,6.52V28.81a30.34,30.34,0,0,0,.25,3.81L1,38.1A3.36,3.36,0,0,0,4.29,41H17a3.35,3.35,0,0,0,3.31-2.9L21,32.62c.11-.81.17-1.62.21-2.43H26A11.42,11.42,0,0,0,26.08,34a8.38,8.38,0,0,0,2.52,4.68v1.53a.8.8,0,0,0,.8.79.79.79,0,0,0,.79-.79V38.3a.8.8,0,0,0-.35-.66,6.38,6.38,0,0,1-2.2-4,12,12,0,0,1,.59-5.9.8.8,0,0,0,.06-.3V19.23a1.75,1.75,0,0,1,3.49,0v7a.8.8,0,0,0,.8.8h2.54a.79.79,0,0,0,.79-.8V22.41a.82.82,0,0,0-.17-.5l-2.37-3V14.27l5.24,5.67a3,3,0,0,1,.8,2V27.4L36.89,38.12a1.1,1.1,0,0,0,0,.18v1.91a.79.79,0,0,0,.79.79.8.8,0,0,0,.8-.79V38.39L41,27.67a1.1,1.1,0,0,0,0-.18V22A4.57,4.57,0,0,0,39.78,18.87Zm-9.75-3a3.34,3.34,0,0,0-3.33,3.34v8.12c-.08.22-.23.66-.38,1.25h-5V9.22H31.78v7.17A3.34,3.34,0,0,0,30,15.89Zm4.3,9.54h-1V21.49l1,1.2Z"/>
        <path class="cls-1" d="M29.4,10.81H26.86a.79.79,0,0,0-.8.79v3.18a.79.79,0,0,0,.8.79H29.4a.79.79,0,0,0,.79-.79V11.6A.79.79,0,0,0,29.4,10.81ZM28.6,14h-1V12.4h1Z"/>
        <path class="cls-1" d="M23.68,10.81a.79.79,0,0,0-.8.79v1.27a.8.8,0,0,0,.8.8.79.79,0,0,0,.79-.8V11.6A.79.79,0,0,0,23.68,10.81Z"/>
        <path class="cls-1" d="M23.68,15.26a.79.79,0,0,0-.8.79v1.27a.8.8,0,0,0,.8.8.79.79,0,0,0,.79-.8V16.05A.79.79,0,0,0,23.68,15.26Z"/>
        <path class="cls-1" d="M23.68,19.71a.79.79,0,0,0-.8.79v1.27a.8.8,0,0,0,.8.8.79.79,0,0,0,.79-.8V20.5A.79.79,0,0,0,23.68,19.71Z"/>
        <path class="cls-1" d="M23.68,24.16a.79.79,0,0,0-.8.79v1.27a.8.8,0,0,0,.8.8.79.79,0,0,0,.79-.8V25A.79.79,0,0,0,23.68,24.16Z"/>
        <path class="cls-1" d="M17.48,14.14a.79.79,0,0,0-.79-.79H4.61a.79.79,0,0,0-.8.79V20.5a.79.79,0,0,0,.8.79H16.69a.79.79,0,0,0,.79-.79Zm-1.59,5.57H5.4V14.94H15.89Z"/>
        <path class="cls-1" d="M6.52,23.52H4.61a.8.8,0,0,0-.8.79v1.91a.8.8,0,0,0,.8.8.79.79,0,0,0,.79-.8V25.11H6.52a.8.8,0,0,0,0-1.59Z"/>
        <path class="cls-1" d="M11.6,23.52H9.69a.79.79,0,0,0-.79.79v1.91a.79.79,0,0,0,.79.8.8.8,0,0,0,.8-.8V25.11H11.6a.8.8,0,1,0,0-1.59Z"/>
        <path class="cls-1" d="M16.69,23.52H14.78a.8.8,0,0,0-.8.79v1.91a.8.8,0,0,0,.8.8.79.79,0,0,0,.79-.8V25.11h1.12a.8.8,0,0,0,0-1.59Z"/>
        <path class="cls-1" d="M6.52,28.6H4.61a.8.8,0,0,0-.8.8v1.91a.79.79,0,0,0,.8.79.79.79,0,0,0,.79-.79V30.19H6.52a.79.79,0,0,0,.79-.79A.8.8,0,0,0,6.52,28.6Z"/>
        <path class="cls-1" d="M11.6,28.6H9.69a.79.79,0,0,0-.79.8v1.91a.79.79,0,0,0,.79.79.79.79,0,0,0,.8-.79V30.19H11.6a.79.79,0,0,0,.8-.79A.8.8,0,0,0,11.6,28.6Z"/>
        <path class="cls-1" d="M16.69,28.6H14.78a.8.8,0,0,0-.8.8v1.91a.79.79,0,0,0,.8.79.79.79,0,0,0,.79-.79V30.19h1.12a.79.79,0,0,0,.79-.79A.8.8,0,0,0,16.69,28.6Z"/>
        <path class="cls-1" d="M6.52,33.69H4.61a.8.8,0,0,0-.8.79v1.91a.8.8,0,0,0,.8.8.79.79,0,0,0,.79-.8V35.28H6.52a.8.8,0,0,0,0-1.59Z"/>
        <path class="cls-1" d="M11.6,33.69H9.69a.79.79,0,0,0-.79.79v1.91a.79.79,0,0,0,.79.8.8.8,0,0,0,.8-.8V35.28H11.6a.8.8,0,1,0,0-1.59Z"/>
        <path class="cls-1" d="M16.69,33.69H14.78a.8.8,0,0,0-.8.79v1.91a.8.8,0,0,0,.8.8.79.79,0,0,0,.79-.8V35.28h1.12a.8.8,0,0,0,0-1.59Z"/>
        <path class="cls-1" d="M2.54,10.33a.79.79,0,0,0,.8.79H18a.79.79,0,0,0,.79-.79.79.79,0,0,0-.79-.8h-.48V2.7a1.12,1.12,0,0,1,2.23,0,.79.79,0,1,0,1.58,0A2.7,2.7,0,0,0,18.59,0a3,3,0,0,0-.42,0A.78.78,0,0,0,18,0H7.15A3.35,3.35,0,0,0,3.81,3.34V9.53H3.34A.8.8,0,0,0,2.54,10.33Zm2.86-7A1.75,1.75,0,0,1,7.15,1.59h9a2.58,2.58,0,0,0-.25,1.11V9.53H5.4Z"/>
      </g>
    </g>
  </g>
</svg>
