<svg xmlns="http://www.w3.org/2000/svg" width="56" height="53.78" viewBox="0 0 56 53.78">
  <defs>
    <style>
      .cls-1 {
        fill: #72dbd4;
      }

      .cls-2 {
        fill: #fff;
      }
    </style>
  </defs>
  <title>price-ic-7</title>
  <g id="Layer_2" data-name="Layer 2">
    <g id="Ñëîé_1" data-name="Ñëîé 1">
      <path class="cls-1" d="M1,53.78a1,1,0,0,1-1-1V39.13a6.36,6.36,0,0,1,2.81-5.4,6.06,6.06,0,0,1,2.4-.91A6.36,6.36,0,0,1,10,34.1a6.88,6.88,0,0,1,2.54,4.67,1,1,0,1,1-1.91.22,4.93,4.93,0,0,0-1.8-3.36,4.42,4.42,0,0,0-3.31-.91,4,4,0,0,0-1.64.63,4.48,4.48,0,0,0-1.94,3.78V52.82A1,1,0,0,1,1,53.78Z"/>
      <path class="cls-1" d="M51.46,53.78a1,1,0,0,1-1-1V39.13a4.48,4.48,0,0,0-1.94-3.78,3.93,3.93,0,0,0-1.63-.63,4.36,4.36,0,0,0-3.31.91A4.9,4.9,0,0,0,41.81,39a1,1,0,0,1-1.06.85,1,1,0,0,1-.84-1.07,6.8,6.8,0,0,1,2.54-4.67,6.34,6.34,0,0,1,4.77-1.28,6.08,6.08,0,0,1,2.39.91,6.36,6.36,0,0,1,2.81,5.4V52.82A1,1,0,0,1,51.46,53.78Z"/>
      <g>
        <path class="cls-1" d="M31.48,53.55a2.87,2.87,0,0,1-2.87-2.86V47a14.63,14.63,0,0,0-.92-5.12l-.53-1.42a1.08,1.08,0,0,0-2,0l-.53,1.53a14.65,14.65,0,0,0-.8,4.77v3.86a2.87,2.87,0,0,1-5.35,1.43L17.11,49.8a31.53,31.53,0,0,1-4-12.92,12.4,12.4,0,0,0-1.58-5l-2-3.49a16,16,0,0,1-2.12-8,15.11,15.11,0,0,1,1.89-7.6,9.68,9.68,0,0,1,8.42-4.76,9.91,9.91,0,0,1,1.72.15L26.2,9.43,33,8.22a9.82,9.82,0,0,1,10.14,4.63A15,15,0,0,1,45,20.43a16.09,16.09,0,0,1-2.11,8l-2,3.49a12.25,12.25,0,0,0-1.58,5A31.4,31.4,0,0,1,35.29,49.8L34,52.12A2.88,2.88,0,0,1,31.48,53.55ZM26.15,37.87a3,3,0,0,1,2.82,2l.52,1.42A16.61,16.61,0,0,1,30.54,47v3.65a.94.94,0,0,0,.94.94,1,1,0,0,0,.82-.47l1.33-2.31a29.6,29.6,0,0,0,3.8-12.13,14.33,14.33,0,0,1,1.83-5.79l2-3.49a14.14,14.14,0,0,0,1.86-7,13.19,13.19,0,0,0-1.63-6.63A7.73,7.73,0,0,0,34.74,10a8,8,0,0,0-1.39.12l-7,1.23a.92.92,0,0,1-.33,0l-7-1.23A7.84,7.84,0,0,0,17.68,10a7.73,7.73,0,0,0-6.76,3.79,13.1,13.1,0,0,0-1.64,6.64,14.15,14.15,0,0,0,1.87,7l2,3.49A14.08,14.08,0,0,1,15,36.72a29.62,29.62,0,0,0,3.81,12.13l1.33,2.31a1,1,0,0,0,.82.47.94.94,0,0,0,.94-.94V46.83a16.48,16.48,0,0,1,.9-5.39l.53-1.54A3,3,0,0,1,26.15,37.87Z"/>
        <path class="cls-1" d="M38.05,15.23c-3.57-3.77-8.82-1.11-11.52.34-2.71-1.45-8-4.11-11.53-.34-1.74,1.84-2.31,4.79-1.52,7.9A22.57,22.57,0,0,0,15.56,28c.36.69.74,1.39,1.06,2.1.58,1.26,1.29,2.6,2.21,4.2A30.94,30.94,0,0,0,18.88,43c.18.88.33,1.67.44,2.37a1,1,0,0,0,.95.81l.16,0a1,1,0,0,0,.79-1.1c-.12-.72-.27-1.54-.45-2.44a28.43,28.43,0,0,1-.07-7.7s.07-.09.1-.15a47.74,47.74,0,0,0,2.35-5.46l.06-.19a3.08,3.08,0,0,1,5.87.08l.05.18a53,53,0,0,0,2.43,5.8,1,1,0,0,0,.2.26,27.8,27.8,0,0,1-.12,7.18c-.18.85-.32,1.65-.46,2.44a1,1,0,0,0,.79,1.1l.16,0a1,1,0,0,0,.95-.81c.13-.77.27-1.54.44-2.37a30.28,30.28,0,0,0,.09-8.28,50.05,50.05,0,0,0,3.3-5.57L37.49,28a22.6,22.6,0,0,0,2.09-4.9C40.36,20,39.79,17.07,38.05,15.23Zm-.34,7.43a20.31,20.31,0,0,1-1.92,4.48c-.2.37-.4.75-.59,1.13a48.61,48.61,0,0,1-2.62,4.54,38.33,38.33,0,0,1-1.61-4l0-.17a4.89,4.89,0,0,0-4.73-3.56h-.07a4.89,4.89,0,0,0-4.74,3.44l-.06.19a33.92,33.92,0,0,1-1.45,3.54c-.6-1.07-1.09-2-1.5-2.94-.35-.75-.73-1.48-1.1-2.18a20.35,20.35,0,0,1-1.93-4.48c-.62-2.47-.23-4.75,1.06-6.11,2.46-2.6,6.17-.93,9.45.84a.93.93,0,0,0,.46.12h.43a.93.93,0,0,0,.46-.12c3.28-1.76,7-3.44,9.45-.84C37.94,17.91,38.34,20.19,37.71,22.66Z"/>
      </g>
      <g>
        <circle class="cls-2" cx="42.93" cy="13.07" r="12.11"/>
        <path class="cls-1" d="M42.93,26.14A13.07,13.07,0,1,1,56,13.07,13.08,13.08,0,0,1,42.93,26.14Zm0-24.22A11.15,11.15,0,1,0,54.08,13.07,11.16,11.16,0,0,0,42.93,1.92Z"/>
      </g>
      <path class="cls-1" d="M45.34,21.14H40.52a1,1,0,0,1-1-1V16.45H35.82a1,1,0,0,1-1-1V10.66a1,1,0,0,1,1-1h3.73V6a1,1,0,0,1,1-1h4.82a1,1,0,0,1,1,1V9.69H50a1,1,0,0,1,1,1v4.83a1,1,0,0,1-1,1H46.3v3.73A1,1,0,0,1,45.34,21.14Zm-3.86-1.92h2.9V15.49a1,1,0,0,1,1-1h3.73V11.62H45.34a1,1,0,0,1-1-1V6.92h-2.9v3.74a1,1,0,0,1-1,1H36.78v2.91h3.74a1,1,0,0,1,1,1Z"/>
    </g>
  </g>
</svg>
