<svg xmlns="http://www.w3.org/2000/svg" width="60" height="32.34" viewBox="0 0 60 32.34">
  <defs>
    <style>
      .cls-1 {
        fill: #72dbd4;
      }
    </style>
  </defs>
  <title>price-ic-9</title>
  <g id="Layer_2" data-name="Layer 2">
    <g id="Ñëîé_1" data-name="Ñëîé 1">
      <g>
        <path class="cls-1" d="M4.74,15.33l1.85-.56c.28,1.58.56,3.18.8,4.76a4.56,4.56,0,0,0,4.1,4h.06l.46,0c.24,0,.47,0,.7,0a4.6,4.6,0,0,0,4-3.9l1.16-7.26.55-.08c.36,1.95.71,3.94,1,5.91a4.58,4.58,0,0,0,4.11,4l.07-.91,0,.91.46,0a5.48,5.48,0,0,0,.7,0,4.6,4.6,0,0,0,4-3.9l1.08-6.79h.49v0c.4,2.2.81,4.47,1.15,6.7a4.58,4.58,0,0,0,4.11,4l.07-.91,0,.91.46,0a5.48,5.48,0,0,0,.7,0,4.6,4.6,0,0,0,4-3.9l1-6,.48.07c0,.25.09.5.13.74.4,2.2.81,4.47,1.15,6.7a4.58,4.58,0,0,0,4.1,4h.06l.46,0a5.37,5.37,0,0,0,.7,0,4.6,4.6,0,0,0,4-3.89l.81-5.06c.78.22,1.57.46,2.36.71a.84.84,0,0,0,.27,0,.9.9,0,0,0,.87-.63.91.91,0,0,0-.59-1.15c-.87-.28-1.75-.54-2.63-.79l1.07-6.69a3.57,3.57,0,0,0-2.33-3.94,12.91,12.91,0,0,0-4.16-.72,16.84,16.84,0,0,0-4.77.76,3.87,3.87,0,0,0-1,.46A3.49,3.49,0,0,0,40.56.72,12.91,12.91,0,0,0,36.4,0h-.07a16,16,0,0,0-4.7.76,3.55,3.55,0,0,0-1.58,1,3.55,3.55,0,0,0-1.51-1A12.91,12.91,0,0,0,24.38,0h-.07a16,16,0,0,0-4.7.76,3.55,3.55,0,0,0-2.16,1.82,3.47,3.47,0,0,0-.93-.5,13.17,13.17,0,0,0-4.16-.71h-.07a16,16,0,0,0-4.7.76,3.55,3.55,0,0,0-2.5,3.93c.34,2.26.75,4.56,1.15,6.77l0,.14c-.69.2-1.38.4-2.07.62a.91.91,0,0,0,.54,1.74Zm10.15,4a2.77,2.77,0,0,1-2.38,2.36,4.94,4.94,0,0,1-.87,0,2.81,2.81,0,0,1-2.45-2.43c-.25-1.66-.54-3.33-.83-5q3.77-1,7.59-1.65Zm12-1.37a2.78,2.78,0,0,1-2.38,2.37,5,5,0,0,1-.87,0,2.81,2.81,0,0,1-2.45-2.43c-.29-2-.65-3.94-1-5.88q3.84-.45,7.72-.55Zm12,0a2.78,2.78,0,0,1-2.38,2.37,5,5,0,0,1-.87,0,2.81,2.81,0,0,1-2.45-2.43c-.32-2.15-.71-4.33-1.1-6.44,2.6.06,5.18.25,7.74.54Zm12,1.57a2.78,2.78,0,0,1-2.38,2.37,5,5,0,0,1-.87,0,2.81,2.81,0,0,1-2.45-2.43c-.34-2.26-.75-4.54-1.15-6.75l0-.12q3.89.64,7.71,1.66ZM44.2,4.07a14.59,14.59,0,0,1,4.21-.68A11.22,11.22,0,0,1,52,4a1.74,1.74,0,0,1,1.13,1.93l-1,6.5a84.63,84.63,0,0,0-8.34-1.76C43.46,9.12,43.18,7.55,43,6A1.74,1.74,0,0,1,44.2,4.07Zm-12-1.57a14.14,14.14,0,0,1,4.15-.68h.06A11.22,11.22,0,0,1,40,2.44a1.75,1.75,0,0,1,1.13,1.93l-.93,5.82Q36,9.71,31.8,9.62c-.31-1.72-.61-3.47-.87-5.2A1.74,1.74,0,0,1,32.18,2.5Zm-12,0a14.28,14.28,0,0,1,4.16-.68h.06a11.22,11.22,0,0,1,3.57.62,1.74,1.74,0,0,1,1.13,1.93l-.84,5.26c-2.79.06-5.58.25-8.34.58-.35-1.91-.69-3.86-1-5.79A1.75,1.75,0,0,1,20.15,2.5ZM6.89,5.79A1.74,1.74,0,0,1,8.14,3.87a14.14,14.14,0,0,1,4.15-.68h.06a11.22,11.22,0,0,1,3.57.62,1.75,1.75,0,0,1,1.13,1.93l-.8,5q-4.14.67-8.22,1.75C7.64,10.29,7.22,8,6.89,5.79Z"/>
        <path class="cls-1" d="M59.42,22.51a.91.91,0,0,0-1.18.51l-1.48,3.72a5.94,5.94,0,0,1-5.56,3.78H8.37a6,6,0,0,1-5.78-4.43l-.8-3A.91.91,0,1,0,0,23.6l.8,3a7.82,7.82,0,0,0,7.54,5.77H51.2a7.77,7.77,0,0,0,7.26-4.93l1.48-3.71A.93.93,0,0,0,59.42,22.51Z"/>
      </g>
    </g>
  </g>
</svg>
