<svg xmlns="http://www.w3.org/2000/svg" width="31.07" height="44.96" viewBox="0 0 31.07 44.96">
  <defs>
    <style>
      .cls-1 {
        fill: #9ab5ca;
      }
    </style>
  </defs>
  <title>price-trigger-1</title>
  <g id="Layer_2" data-name="Layer 2">
    <g id="Capa_1" data-name="Capa 1">
      <g>
        <path class="cls-1" d="M6.21,14.92V11.39a9.33,9.33,0,0,1,18.65,0v3.53a1,1,0,1,0,2.07,0V11.39a11.4,11.4,0,0,0-22.79,0v3.53a1,1,0,1,0,2.07,0Z"/>
        <path class="cls-1" d="M30,16H1a1,1,0,0,0-1,1V39.92a5,5,0,0,0,5,5H26a5,5,0,0,0,5-5V17A1,1,0,0,0,30,16Zm-1,24a3,3,0,0,1-3,3H5a3,3,0,0,1-3-3V18H29Z"/>
        <path class="cls-1" d="M11.74,35a3.8,3.8,0,0,0,7.59,0v-3.4A5.12,5.12,0,0,0,20.71,28a5.18,5.18,0,1,0-9,3.51Zm3.8-10a3.11,3.11,0,0,1,2.07,5.42,1,1,0,0,0-.35.77V35a1.73,1.73,0,0,1-3.45,0V31.12a1.08,1.08,0,0,0-.34-.77,3.1,3.1,0,0,1,2.07-5.42Z"/>
      </g>
    </g>
  </g>
</svg>
