<svg xmlns="http://www.w3.org/2000/svg" width="54" height="48.71" viewBox="0 0 54 48.71">
  <defs>
    <style>
      .cls-1 {
        fill: #72dbd4;
      }
    </style>
  </defs>
  <title>price-ic-8</title>
  <g id="Layer_2" data-name="Layer 2">
    <g id="Ñëîé_1" data-name="Ñëîé 1">
      <g>
        <path class="cls-1" d="M16.11,21.49,13.68,21a4.07,4.07,0,0,0-3.84,1.16,2.54,2.54,0,0,0-.2.24,3.9,3.9,0,0,0-.81,2.45,1,1,0,0,0,1,1h0a1,1,0,0,0,1-1,2,2,0,0,1,.4-1.24,1.47,1.47,0,0,1,.1-.13,2.17,2.17,0,0,1,2-.57l2.44.51a1,1,0,0,0,1.15-.76A1,1,0,0,0,16.11,21.49Z"/>
        <path class="cls-1" d="M24.37,16.78a7.68,7.68,0,0,0-1.27.1l-4.87.81-4.87-.81a7.59,7.59,0,0,0-1.27-.1A7.34,7.34,0,0,0,5.8,20.12a10,10,0,0,0-1.42,5.3A10.68,10.68,0,0,0,6,31L7.4,33.32a7.58,7.58,0,0,1,1.09,3.21,20.55,20.55,0,0,0,3,8.85l.95,1.55a2.39,2.39,0,0,0,2,1.11,2.31,2.31,0,0,0,2.35-2.26V43.19a8.78,8.78,0,0,1,.55-3.08l.38-1a.5.5,0,0,1,.48-.29.53.53,0,0,1,.48.28l.38,1a8.92,8.92,0,0,1,.63,3.3v2.46A2.32,2.32,0,0,0,22,48a2.38,2.38,0,0,0,2-1.11l1-1.55a20.82,20.82,0,0,0,3-8.85,7.43,7.43,0,0,1,1.08-3.21L30.5,31a10.68,10.68,0,0,0,1.58-5.55,9.92,9.92,0,0,0-1.41-5.29A7.33,7.33,0,0,0,24.37,16.78ZM28.84,30,27.4,32.3A9.55,9.55,0,0,0,26,36.35a18.6,18.6,0,0,1-2.69,8l-1,1.56a.43.43,0,0,1-.36.18.37.37,0,0,1-.4-.31V43.32a10.88,10.88,0,0,0-.77-4l-.38-1a2.49,2.49,0,0,0-4.6.06l-.38,1a11,11,0,0,0-.67,3.76v2.59a.37.37,0,0,1-.4.31.43.43,0,0,1-.36-.18l-1-1.56a18.6,18.6,0,0,1-2.69-8A9.43,9.43,0,0,0,9.06,32.3L7.62,30a8.73,8.73,0,0,1-1.29-4.53,8,8,0,0,1,1.13-4.28,5.38,5.38,0,0,1,4.64-2.41,5.15,5.15,0,0,1,1,.08l5,.83h.32l5-.83a5,5,0,0,1,.95-.08A5.4,5.4,0,0,1,29,21.15a8.07,8.07,0,0,1,1.12,4.27A8.73,8.73,0,0,1,28.84,30Z"/>
        <path class="cls-1" d="M51.63,11.16v-.05a.78.78,0,0,0,0-.22l0-.07a1.3,1.3,0,0,0-.08-.17l0-.06a1.37,1.37,0,0,0-.17-.17l0,0-10.58-8a4.61,4.61,0,0,0-4-2.39H27.37a4.6,4.6,0,0,0-3.8,2,5.87,5.87,0,0,0-5.25,4.87h-1.7V6.43a1,1,0,1,0-2,0v.45H1a1,1,0,0,0,0,2h13.7v.71a1,1,0,1,0,2,0V8.83h1.7a5.88,5.88,0,0,0,5.25,4.86,4.59,4.59,0,0,0,3.8,2h8l5.19,5.2c-.27,3.49-1,21.11-1.24,26.8a1,1,0,0,0,.93,1h0a1,1,0,0,0,1-.94c.42-10.33,1.11-26,1.26-27.06,0,0,0,0,0,0s0,0,0,0a10.07,10.07,0,0,1,4.06-7,8.87,8.87,0,0,1,3.17-1.31L52.05,46.8a1,1,0,0,0,1,.91h.07a1,1,0,0,0,.91-1ZM20.19,7.85a3.93,3.93,0,0,1,2.59-3.69c0,.14,0,.3,0,.45v6.48c0,.15,0,.3,0,.45A3.93,3.93,0,0,1,20.19,7.85ZM45.51,12A11.46,11.46,0,0,0,41,18.54L36.44,14a1,1,0,0,0-.69-.29H27.37a2.66,2.66,0,0,1-2.66-2.65V4.61A2.66,2.66,0,0,1,27.37,2h9.27a2.61,2.61,0,0,1,2.19,1.16L36,10.84a1,1,0,0,0,.58,1.25,1,1,0,0,0,1.25-.58L40.37,4.6l8,6A10.91,10.91,0,0,0,45.51,12Z"/>
      </g>
    </g>
  </g>
</svg>
