<svg xmlns="http://www.w3.org/2000/svg" width="55" height="54.51" viewBox="0 0 55 54.51">
  <defs>
    <style>
      .cls-1 {
        fill: #72dbd4;
      }
    </style>
  </defs>
  <title>price-ic-11</title>
  <g id="Layer_2" data-name="Layer 2">
    <g id="Ñëîé_1" data-name="Ñëîé 1">
      <g>
        <path class="cls-1" d="M54.72.29a1,1,0,0,0-1.36,0l-10.5,10.4-.35-.34a1,1,0,0,0-1.36,0l-3.3,3.32-1.44-1.45a1,1,0,0,0-.83-.28A3.76,3.76,0,0,0,33.48,13L31.1,15.36h0L28.41,18h0l-2.29,2.26h0l-2.45,2.44h0l-4.73,4.68h0l-3.86,3.82-1.91-1.92,1.2-1.19,1.12,1.13a1,1,0,0,0,1.37,0,1,1,0,0,0,0-1.36l-1.8-1.81a1,1,0,0,0-1.36,0l-2.57,2.55a1,1,0,0,0,0,1.36l3.26,3.3h0L24.74,43.72a1,1,0,0,0,.68.28h0a1,1,0,0,0,.67-.28l2.57-2.54A1,1,0,0,0,29,40.5a1,1,0,0,0-.28-.69L27,38.08a1,1,0,0,0-1.37,0,1,1,0,0,0,0,1.36l1,1.06-1.2,1.19-1.91-1.93,18.4-18.24a3.81,3.81,0,0,0,1.08-2,.93.93,0,0,0-.26-.84l-1.43-1.45,3.34-3.36a1,1,0,0,0,.28-.68,1,1,0,0,0-.28-.68L44.23,12,54.71,1.65A1,1,0,0,0,54.72.29ZM40.57,20.14,22.16,38.38,16.44,32.6l3.17-3.14,1,1a1,1,0,0,0,.68.28A1,1,0,0,0,22,29.13l-1-1,.9-.89.53.53a.94.94,0,0,0,.68.29,1,1,0,0,0,.68-.28,1,1,0,0,0,0-1.37l-.52-.53,1.09-1.07.52.53A1,1,0,1,0,26.23,24l-.52-.53,1.09-1.08.71.72a1,1,0,0,0,.69.29,1,1,0,0,0,.68-1.64L28.16,21l.93-.91L30,21a1,1,0,0,0,.69.28.92.92,0,0,0,.67-.28,1,1,0,0,0,0-1.36l-.94-.95,1.32-1.3,1.73,1.74a1,1,0,0,0,.68.29.94.94,0,0,0,.68-.28,1,1,0,0,0,0-1.36l-1.73-1.75,1.7-1.68a1.91,1.91,0,0,1,.59-.41L41,19.58A2.39,2.39,0,0,1,40.57,20.14ZM40,15.77,39.23,15l2.61-2.63.29.29a.1.1,0,0,0,0,.05l.06,0,.37.37Z"/>
        <path class="cls-1" d="M17.55,39,6.37,50.09l-2-2L15.65,37a1,1,0,0,0-1.35-1.37L3,46.7,1.65,45.33a1,1,0,0,0-1.36,0,1,1,0,0,0,0,1.36l7.47,7.54a1,1,0,0,0,1.37-1.36l-1.4-1.41L18.91,40.34A1,1,0,1,0,17.55,39Z"/>
      </g>
    </g>
  </g>
</svg>
