<svg xmlns="http://www.w3.org/2000/svg" width="63" height="25.61" viewBox="0 0 63 25.61">
  <defs>
    <style>
      .cls-1 {
        fill: #72dbd4;
      }
    </style>
  </defs>
  <title>price-ic-2</title>
  <g id="Layer_2" data-name="Layer 2">
    <g id="Ñëîé_1" data-name="Ñëîé 1">
      <path class="cls-1" d="M62.34,5c-2.91-.54-5.85-1.09-8.71-1.66a48.77,48.77,0,0,1-6.67-2L45,.69a13.8,13.8,0,0,0-9.25.23l-1.61.62a8,8,0,0,1-5.36,0L27.21.92A13.8,13.8,0,0,0,18,.69L16,1.35a48.77,48.77,0,0,1-6.67,2C6.5,3.91,3.57,4.47.66,5a.8.8,0,0,0,0,1.58c1.3.25,2.6.49,3.91.71a.8.8,0,0,0-.18.87l2.26,5.65a17.85,17.85,0,0,0,5.44,7.28,17.76,17.76,0,0,0,8.32,3.66,72.22,72.22,0,0,0,11.1.86,72.42,72.42,0,0,0,11.1-.86A17.88,17.88,0,0,0,56.36,13.81l2.26-5.65a.78.78,0,0,0-.18-.87c1.31-.22,2.61-.46,3.91-.71a.8.8,0,0,0,0-1.58ZM57.13,7.57l-2.26,5.64a16.27,16.27,0,0,1-12.52,10,70.49,70.49,0,0,1-21.7,0A16.25,16.25,0,0,1,8.13,13.21L5.87,7.57a.43.43,0,0,0,0-.07c1.23.19,2.46.38,3.69.55a.78.78,0,0,0-.41.7.8.8,0,0,0,.15.47l1,1.35a20.44,20.44,0,0,0,7.06,6,20,20,0,0,0,7.5,2.13c.51.05,1.07.07,1.67.07H36.58a19.81,19.81,0,0,0,3.09-.24h0A19.92,19.92,0,0,0,46.78,16a19.78,19.78,0,0,0,6.15-5.62l.86-1.2a.8.8,0,0,0-.18-1.12L53.53,8c1.22-.17,2.43-.35,3.64-.54A.43.43,0,0,0,57.13,7.57Zm-46.65.6q3.18.42,6.39.71v5.63a18.7,18.7,0,0,1-5.33-4.89l-.93-1.28A1.09,1.09,0,0,0,10.48,8.17Zm8,7.22V9c1.87.15,3.74.26,5.61.35v7.68A18.41,18.41,0,0,1,18.47,15.39Zm7.21,1.8V9.44c1.84.06,3.69.1,5.53.1h.17v7.67H26.47Zm7.31,0V9.53c1.92,0,3.84-.07,5.75-.15v7.7a19.27,19.27,0,0,1-2.16.13Zm7.36-.4V9.3c1.74-.1,3.48-.22,5.22-.37v5.93A18.19,18.19,0,0,1,40.35,16.81Zm6.83-2.95V8.78c1.8-.17,3.6-.38,5.4-.61l-.09.1-.87,1.21A17.93,17.93,0,0,1,47.18,13.86ZM31.5,7.94h-.29a161.91,161.91,0,0,1-26-2.16l4.43-.86a52.79,52.79,0,0,0,6.89-2c.64-.22,1.27-.45,1.91-.66a12.14,12.14,0,0,1,8.15.21c.55.21,1.09.43,1.64.63a9.68,9.68,0,0,0,6.46,0c.55-.2,1.09-.42,1.64-.63a12.14,12.14,0,0,1,8.15-.21l1.91.66a52.79,52.79,0,0,0,6.89,2.05l4.43.86A160.86,160.86,0,0,1,31.5,7.94Z"/>
    </g>
  </g>
</svg>
