<svg xmlns="http://www.w3.org/2000/svg" width="35" height="55.22" viewBox="0 0 35 55.22">
  <defs>
    <style>
      .cls-1 {
        fill: #72dbd4;
      }
    </style>
  </defs>
  <title>price-ic-3</title>
  <g id="Layer_2" data-name="Layer 2">
    <g id="Ñëîé_1" data-name="Ñëîé 1">
      <g>
        <path class="cls-1" d="M33.25,17.43A9,9,0,0,0,25.4,13a9.13,9.13,0,0,0-1.59.14l-4.43.78h0l-.1,0-.07,0-.09,0-.08,0-.06,0-.07.06-.06.07-.06.07a.59.59,0,0,0,0,.08.25.25,0,0,0,0,.07l0,.09,0,.09a.17.17,0,0,1,0,.07s0,.07,0,.11h0V18a.93.93,0,0,0,.43.78l.78.49a2.42,2.42,0,0,1-.34,4.26,4.83,4.83,0,0,1-3.73,0,2.42,2.42,0,0,1-.34-4.26l.78-.49a.93.93,0,0,0,.43-.78V14.87h0s0-.08,0-.12a.15.15,0,0,1,0-.07l0-.09,0-.08s0-.05,0-.08l0-.07-.06-.08-.06-.06-.07-.06a.18.18,0,0,0-.07-.05l-.07,0L16,14,16,14l-.1,0h0l-4.66-.83A9.07,9.07,0,0,0,9.59,13a9,9,0,0,0-7.83,4.43,12.88,12.88,0,0,0-1.26,3,15.62,15.62,0,0,0-.5,4,14.87,14.87,0,0,0,2,7.39l1.85,3.24a11.41,11.41,0,0,1,1.46,4.62A29.14,29.14,0,0,0,9,51.72l1.23,2.15a2.69,2.69,0,0,0,5-1.35V49A13.47,13.47,0,0,1,16,44.54l.48-1.42a1,1,0,0,1,1.84,0l.49,1.32a13.64,13.64,0,0,1,.85,4.73v3.38a2.7,2.7,0,0,0,2.69,2.7,2.75,2.75,0,0,0,2.34-1.35L26,51.72a29.53,29.53,0,0,0,3.76-12,11.21,11.21,0,0,1,1.46-4.62L33,31.87a14.85,14.85,0,0,0,2-7.39A14.07,14.07,0,0,0,33.25,17.43Zm-.54,10.4A13,13,0,0,1,31.42,31l-1.85,3.24a13.29,13.29,0,0,0-1.7,5.38A27.5,27.5,0,0,1,24.35,50.8l-1.23,2.14a.87.87,0,0,1-1.32.18.84.84,0,0,1-.25-.6V49.14a15.28,15.28,0,0,0-1-5.37l-.49-1.33a2.83,2.83,0,0,0-5.32.08l-.48,1.42a15.23,15.23,0,0,0-.84,5v3.57a.84.84,0,0,1-1.57.42L10.65,50.8A27.37,27.37,0,0,1,7.12,39.57a13.28,13.28,0,0,0-1.69-5.38L3.57,31a13.13,13.13,0,0,1-1.72-6.47A13.71,13.71,0,0,1,2.29,21a10.93,10.93,0,0,1,1.07-2.61,7.16,7.16,0,0,1,6.24-3.5,7.29,7.29,0,0,1,1.26.11l3.91.7v1.86l-.35.22A4.25,4.25,0,0,0,15,25.25a6.69,6.69,0,0,0,5.17,0,4.25,4.25,0,0,0,.61-7.52l-.35-.22V15.6L24.13,15a7.53,7.53,0,0,1,1.28-.11,7.14,7.14,0,0,1,6.23,3.51,12.19,12.19,0,0,1,1.51,6.13A13.05,13.05,0,0,1,32.71,27.83Z"/>
        <path class="cls-1" d="M12.12,7.86a2.8,2.8,0,0,0-1.74,2.34.93.93,0,0,0,1.85,0c0-.21.22-.38.84-.75a2.81,2.81,0,0,0,1.75-2.34,2.79,2.79,0,0,0-1.75-2.34c-.62-.38-.84-.54-.84-.75s.25-.4.84-.75A2.82,2.82,0,0,0,14.82.93.93.93,0,1,0,13,.93c0,.21-.24.39-.84.75A2.8,2.8,0,0,0,10.38,4a2.83,2.83,0,0,0,1.74,2.34c.6.35.84.53.84.75S12.74,7.49,12.12,7.86Z"/>
        <path class="cls-1" d="M21.93,7.86a2.79,2.79,0,0,0-1.75,2.34.93.93,0,0,0,1.86,0c0-.21.22-.38.84-.75a2.82,2.82,0,0,0,1.74-2.34,2.8,2.8,0,0,0-1.74-2.34C22.26,4.39,22,4.23,22,4s.24-.4.84-.75A2.83,2.83,0,0,0,24.62.93a.93.93,0,1,0-1.85,0c0,.21-.25.39-.84.75A2.79,2.79,0,0,0,20.18,4a2.82,2.82,0,0,0,1.75,2.34c.62.37.84.54.84.75S22.55,7.49,21.93,7.86Z"/>
        <path class="cls-1" d="M17,7.86a2.79,2.79,0,0,0-1.75,2.34.93.93,0,0,0,1.86,0c0-.21.22-.38.84-.75a2.82,2.82,0,0,0,1.74-2.34,2.8,2.8,0,0,0-1.74-2.34c-.62-.38-.84-.54-.84-.75s.24-.4.84-.75A2.83,2.83,0,0,0,19.66.93a.93.93,0,1,0-1.85,0c0,.21-.25.39-.84.75A2.79,2.79,0,0,0,15.22,4,2.82,2.82,0,0,0,17,6.36c.62.37.84.54.84.75S17.59,7.49,17,7.86Z"/>
      </g>
    </g>
  </g>
</svg>
