<svg xmlns="http://www.w3.org/2000/svg" width="40" height="40.73" viewBox="0 0 40 40.73">
  <defs>
    <style>
      .cls-1 {
        fill: #9ab5ca;
      }
    </style>
  </defs>
  <title>price-trigger-4</title>
  <g id="Layer_2" data-name="Layer 2">
    <g id="Ñëîé_1" data-name="Ñëîé 1">
      <g>
        <path class="cls-1" d="M16.63,20.79a3.48,3.48,0,0,0-3,1.58A4.64,4.64,0,0,0,13,24.81a4.86,4.86,0,0,0,.73,2.55l.62,1a3,3,0,0,1,.43,1.28,9.23,9.23,0,0,0,1.33,4l.41.67a1.3,1.3,0,0,0,1.11.61,1.27,1.27,0,0,0,1.29-1.25V32.51a3.77,3.77,0,0,1,.22-1.24l.12-.32.11.29a3.54,3.54,0,0,1,.26,1.33v1.06a1.27,1.27,0,0,0,1.29,1.25,1.3,1.3,0,0,0,1.11-.61l.41-.67a9.23,9.23,0,0,0,1.33-4,3,3,0,0,1,.43-1.28l.62-1a4.86,4.86,0,0,0,.73-2.55,4.58,4.58,0,0,0-.65-2.43,3.46,3.46,0,0,0-3-1.59,4,4,0,0,0-.59.05l-2.06.34-2.07-.34A3.83,3.83,0,0,0,16.63,20.79Zm2.78,1.79,2.18-.36a2.22,2.22,0,0,1,.37,0,2.06,2.06,0,0,1,1.77.91,3.2,3.2,0,0,1,.44,1.71,3.45,3.45,0,0,1-.51,1.82l-.63,1a4.38,4.38,0,0,0-.63,1.87,7.79,7.79,0,0,1-1.12,3.35l-.24.38v-.68a5.07,5.07,0,0,0-.35-1.85l-.17-.41a1.35,1.35,0,0,0-2.5,0l-.17.45a5,5,0,0,0-.3,1.72v.74l-.24-.38a7.93,7.93,0,0,1-1.12-3.35,4.38,4.38,0,0,0-.63-1.87l-.63-1a3.55,3.55,0,0,1-.51-1.82,3.27,3.27,0,0,1,.44-1.71,2.08,2.08,0,0,1,1.78-.91l.37,0,2.17.36A.89.89,0,0,0,19.41,22.58Z"/>
        <path class="cls-1" d="M6.87,15.61V17.9a.69.69,0,0,0,.7.69h8a.69.69,0,0,0,.7-.69V15.61a2.45,2.45,0,0,0-1.81-2.37L13.59,13a3.74,3.74,0,0,0,.48-1.74,2.58,2.58,0,0,0-5.15,0A3.7,3.7,0,0,0,9.44,13l-.75.22A2.45,2.45,0,0,0,6.87,15.61Zm4.63-5.56a1.18,1.18,0,0,1,1.18,1.18A2.4,2.4,0,0,1,12,12.79s0,0,0,0a.74.74,0,0,1-.45.22.69.69,0,0,1-.42-.18,2.42,2.42,0,0,1-.77-1.64A1.18,1.18,0,0,1,11.5,10.05Zm-1,4.12.27.13.13,0,.16.05.16,0h.3l.27,0,.15,0,.17-.06.12,0,.23-.12.06,0h0l1.57.48a1,1,0,0,1,.79,1V17.2H8.26V15.61a1.08,1.08,0,0,1,.8-1Z"/>
        <path class="cls-1" d="M18.88,11a.7.7,0,0,0,.7.7h4.57a.7.7,0,0,0,0-1.4H19.58A.7.7,0,0,0,18.88,11Z"/>
        <path class="cls-1" d="M19.58,15h4.57a.7.7,0,1,0,0-1.39H19.58a.7.7,0,1,0,0,1.39Z"/>
        <path class="cls-1" d="M19.58,18.59h4.57a.7.7,0,1,0,0-1.39H19.58a.7.7,0,1,0,0,1.39Z"/>
        <path class="cls-1" d="M11.5,26.43H6.92a.7.7,0,0,0,0,1.39H11.5a.7.7,0,0,0,0-1.39Z"/>
        <path class="cls-1" d="M11.5,29.76H6.92a.7.7,0,0,0,0,1.4H11.5a.7.7,0,0,0,0-1.4Z"/>
        <path class="cls-1" d="M11.5,33.32H6.92a.7.7,0,0,0,0,1.4H11.5a.7.7,0,0,0,0-1.4Z"/>
        <path class="cls-1" d="M14,7h3.39a4.38,4.38,0,0,0,4.38-4.37V.7A.7.7,0,0,0,21,0H10.29a.7.7,0,0,0-.7.7v2A4.38,4.38,0,0,0,14,7ZM11,1.39h9.36V2.66a3,3,0,0,1-3,3H14a3,3,0,0,1-3-3Z"/>
        <path class="cls-1" d="M13.89,4.07h3.66a.7.7,0,1,0,0-1.39H13.89a.7.7,0,0,0,0,1.39Z"/>
        <path class="cls-1" d="M30.45,0H23.26a.7.7,0,1,0,0,1.39h6.49v38H1.39V1.39h6A.7.7,0,1,0,7.39,0H.7A.7.7,0,0,0,0,.7V40a.7.7,0,0,0,.7.7H30.45a.69.69,0,0,0,.69-.7V.7A.69.69,0,0,0,30.45,0Z"/>
        <path class="cls-1" d="M7.94,3.37a.69.69,0,0,0-.7-.69H4.06a.69.69,0,0,0-.7.69V36.86a.7.7,0,0,0,.7.7H27.34a.7.7,0,0,0,.7-.7V3.37a.7.7,0,0,0-.7-.69H23.71a.7.7,0,1,0,0,1.39h2.93v32.1H4.75V4.07H7.24A.7.7,0,0,0,7.94,3.37Z"/>
        <path class="cls-1" d="M40,17.67s0-.05,0-.07a.19.19,0,0,0,0-.07v0l-1.68-5.21a.71.71,0,0,0-.67-.48.69.69,0,0,0-.66.48l-1.68,5.21a.08.08,0,0,0,0,0,712613192862.37,712613192862.37,0,0,0,0,.14s0,0,0,0V37.16a2.38,2.38,0,0,0,4.76,0V17.67Zm-3.36.74h2v16h-2Zm1-3.65L38.35,17H36.9Zm0,23.39a1,1,0,0,1-1-1V35.81h2v1.35A1,1,0,0,1,37.62,38.15Z"/>
      </g>
    </g>
  </g>
</svg>
