<svg xmlns="http://www.w3.org/2000/svg" width="36" height="42.99" viewBox="0 0 36 42.99">
  <defs>
    <style>
      .cls-1 {
        fill: #9ab5ca;
      }
    </style>
  </defs>
  <title>price-trigger-5</title>
  <g id="Layer_2" data-name="Layer 2">
    <g id="Ñëîé_1" data-name="Ñëîé 1">
      <g>
        <path class="cls-1" d="M10.67,7.1a.7.7,0,0,0,.7.63H22.79a.71.71,0,0,0,.71-.64l.39-4h0A2.1,2.1,0,0,0,22.37.83L21.58.61a16.9,16.9,0,0,0-8.87,0l-.94.25a2.09,2.09,0,0,0-1.54,2.26Zm1.47-4.9L13.08,2A15.33,15.33,0,0,1,21.2,2L22,2.2a.69.69,0,0,1,.49.72l-.33,3.39H12l-.37-3.37A.7.7,0,0,1,12.14,2.2Z"/>
        <path class="cls-1" d="M15.72,4.58h.69v.68a.71.71,0,1,0,1.42,0V4.58h.68a.71.71,0,0,0,0-1.42h-.68V2.47a.71.71,0,0,0-1.42,0v.69h-.69a.71.71,0,0,0,0,1.42Z"/>
        <path class="cls-1" d="M36,42.08,32,28.5s0,0,0-.05a4.68,4.68,0,0,0-3.52-3l-.73-.14h0l-.66-.12a3.77,3.77,0,0,0,1.25-2.45.7.7,0,0,0-.35-.66.72.72,0,0,0-.75,0,2.94,2.94,0,0,1-.75.38,1.13,1.13,0,0,1-.36,0,.41.41,0,0,1-.18-.05.83.83,0,0,1-.48-.82l.06-1.37.67-2.23s0,0,0-.07a35.71,35.71,0,0,0,.5-3.66c.07-.9.11-1.79.11-2.64a9.74,9.74,0,0,0-1.47-5.14.71.71,0,0,0-1-.23.72.72,0,0,0-.23,1,8.32,8.32,0,0,1,1.26,4.39c0,.81,0,1.66-.11,2.52a31.42,31.42,0,0,1-.47,3.47L24.11,20a1,1,0,0,0,0,.17L24,21.61a2.27,2.27,0,0,0,1.35,2.2A1.71,1.71,0,0,0,26,24a1.39,1.39,0,0,0,.35,0,2.62,2.62,0,0,1-1.52.81L20.92,24c-.24-.14-.25-.6-.24-.82a.15.15,0,0,0,0-.07V23s0-.07,0-.1,0,0,0-.05a9.89,9.89,0,0,0,1.14-1.22A12.46,12.46,0,0,0,24,16.32v0a10.59,10.59,0,0,0,.21-2.12V14a.72.72,0,0,0-.7-.71C16.81,13.18,16,9,15.94,8.83a.71.71,0,0,0-.7-.59h0a.71.71,0,0,0-.7.59,6.46,6.46,0,0,1-3.73,4.42.73.73,0,0,0-.42.65v.26a10,10,0,0,0,.21,2.1v.06a16.1,16.1,0,0,0,2.17,5.3,7.55,7.55,0,0,0,1,1.2.75.75,0,0,0,0,.21s0,.12,0,.2,0,0,0,.06v.06s0,.08,0,.12a1.39,1.39,0,0,1,0,.3l0,.08a.39.39,0,0,0,0,.06l0,.06h0l0,0,0,0-1.27.25-2.63.51A2.71,2.71,0,0,1,8.24,24,2.23,2.23,0,0,0,10,23.3a2.35,2.35,0,0,0,.6-2.35,31.52,31.52,0,0,1-1.28-6.72c-.06-.82-.1-1.67-.1-2.52a8.4,8.4,0,0,1,1-3.9.71.71,0,0,0-1.26-.66,9.77,9.77,0,0,0-1.13,4.56c0,.88,0,1.77.11,2.64a33.1,33.1,0,0,0,1.33,7A.94.94,0,0,1,9,22.3a.86.86,0,0,1-.87.21,2.43,2.43,0,0,1-.74-.37.7.7,0,0,0-.75,0,.69.69,0,0,0-.36.66A3.81,3.81,0,0,0,7.5,25.23l-.17,0h0l-1.15.22a4.7,4.7,0,0,0-3.52,3l0,.12L0,42.14a.73.73,0,0,0,.15.59A.74.74,0,0,0,.71,43H35.29a.71.71,0,0,0,.68-.91ZM22.49,27.84l-1.4.05a.71.71,0,0,0-.68.82l.13.8-3.07,6.35L14,29.58l.13-.63a.74.74,0,0,0-.17-.62.72.72,0,0,0-.6-.22l-1.65.18-2.6-1.93.81-.15h0l3.55-.64,3.35,7.79a.7.7,0,0,0,1.31,0l3-7.81,3.28.64a.73.73,0,0,0,.3.06h0l.67.13Zm-6.37-3.62a6.49,6.49,0,0,0,.7.18l.49,0,.49,0a4.15,4.15,0,0,0,.75-.2,5.77,5.77,0,0,0,.76-.36A2.09,2.09,0,0,0,19.84,25l-2.37,6.22L14.78,25A2.12,2.12,0,0,0,15,24.6a2.21,2.21,0,0,0,.12-.27,1.25,1.25,0,0,0,.07-.26,1.43,1.43,0,0,0,0-.22A5.76,5.76,0,0,0,16.12,24.22ZM12,16h0A.09.09,0,0,1,12,16a8.39,8.39,0,0,1-.18-1.63,8,8,0,0,0,3.49-3.49c.95,1.54,3,3.55,7.51,3.8A8.72,8.72,0,0,1,22.64,16v0a11,11,0,0,1-1.92,4.67A9.17,9.17,0,0,1,19.44,22a5.2,5.2,0,0,1-1.4.85,2.22,2.22,0,0,1-.43.11h0a2.06,2.06,0,0,1-.55,0,4.6,4.6,0,0,1-.5-.13,4.38,4.38,0,0,1-1.47-.82A5.94,5.94,0,0,1,14,20.84,14.79,14.79,0,0,1,12,16ZM1.57,41.57,4,28.9a3.3,3.3,0,0,1,2.44-2l.84-.16,3.87,2.87a.71.71,0,0,0,.5.14l1-.11a.69.69,0,0,0,.08.42l4.23,7.71a.7.7,0,0,0,.62.37h0a.72.72,0,0,0,.62-.4l3.77-7.79a.76.76,0,0,0,.06-.42l0-.23.75,0a.84.84,0,0,0,.3-.08l4.72-2.39.49.09a3.29,3.29,0,0,1,2.46,2.05l3.68,12.64Z"/>
        <path class="cls-1" d="M17.52,38.63a1.3,1.3,0,1,0,1.3,1.3A1.3,1.3,0,0,0,17.52,38.63Zm0,1.42a.12.12,0,0,1,0-.24.12.12,0,1,1,0,.24Z"/>
      </g>
    </g>
  </g>
</svg>
