<svg xmlns="http://www.w3.org/2000/svg" width="45" height="50.67" viewBox="0 0 45 50.67">
  <defs>
    <style>
      .cls-1 {
        fill: #72dbd4;
      }
    </style>
  </defs>
  <title>price-ic-4</title>
  <g id="Layer_2" data-name="Layer 2">
    <g id="Ñëîé_1" data-name="Ñëîé 1">
      <g>
        <path class="cls-1" d="M44.52,17.72a12.32,12.32,0,0,0-1.17-2.9,8.52,8.52,0,0,0-7.41-4.17,8.21,8.21,0,0,0-1.5.13l-2.63.46a.82.82,0,1,0,.29,1.61l2.63-.46a7,7,0,0,1,7.2,3.25,10.25,10.25,0,0,1,1,2.5,13.38,13.38,0,0,1,.42,3.36,12.51,12.51,0,0,1-1.65,6.2L40,30.77a12.52,12.52,0,0,0-1.6,5.09A25.75,25.75,0,0,1,35,46.56l-1.18,2a.85.85,0,0,1-.74.43.86.86,0,0,1-.86-.86V44.78a14.38,14.38,0,0,0-.8-4.74L31,38.68A2.62,2.62,0,0,0,26,38.62l-.46,1.24a14.56,14.56,0,0,0-.92,5.1v3.21a.87.87,0,0,1-.26.62.83.83,0,0,1-.6.24A.86.86,0,0,1,23,48.6l-1.17-2A25.76,25.76,0,0,1,18.5,35.87a12.43,12.43,0,0,0-.7-3.16.82.82,0,0,0-1.05-.48.81.81,0,0,0-.49,1A10.44,10.44,0,0,1,16.87,36a27.89,27.89,0,0,0,3.57,11.37l1.18,2a2.5,2.5,0,0,0,2.16,1.25,2.45,2.45,0,0,0,1.76-.73,2.51,2.51,0,0,0,.73-1.77V45a12.91,12.91,0,0,1,.82-4.52l.47-1.25a1,1,0,0,1,.92-.65,1,1,0,0,1,.93.66l.47,1.37a12.83,12.83,0,0,1,.71,4.21v3.39a2.49,2.49,0,0,0,4.65,1.25l1.17-2A27.73,27.73,0,0,0,40,36a10.9,10.9,0,0,1,1.4-4.42l1.76-3.07a14.17,14.17,0,0,0,1.86-7A14.39,14.39,0,0,0,44.52,17.72Z"/>
        <path class="cls-1" d="M19.31,30.17a4.22,4.22,0,0,0,.88,1,4.51,4.51,0,0,0,2.88,1,5.42,5.42,0,0,0,1.2-.14h.05a4.38,4.38,0,0,0-1.05-8.6,3.71,3.71,0,0,0-.67.06,5.22,5.22,0,0,0-.85-1.55,7.5,7.5,0,0,0,1.4-1,5.06,5.06,0,0,0,2.22.52l.52,0a5.17,5.17,0,0,0,4.35-3.63,5.35,5.35,0,0,0-2.74-6.26A.82.82,0,1,0,26.75,13a3.73,3.73,0,0,1,1.93,4.34,3.61,3.61,0,0,1-3,2.48A3.53,3.53,0,0,1,23.09,19a4.16,4.16,0,0,1-1.52-2.77.82.82,0,0,0-1.63.15A5.8,5.8,0,0,0,21.76,20a5.59,5.59,0,0,1-1.68.91,5.79,5.79,0,0,1-3.47.08,1.69,1.69,0,0,0,0-.23A.82.82,0,0,0,15,20.6l-.07,0h0a5.24,5.24,0,0,0-2.22,2.67l-.34,0A2.64,2.64,0,0,1,12,18.1l.36,0a2.62,2.62,0,0,1,1.75.67.82.82,0,1,0,1.09-1.22,4.26,4.26,0,0,0-2.67-1.08,6.12,6.12,0,0,1-.1-1.05,5.79,5.79,0,0,1,10.76-3,5.22,5.22,0,0,1,0,5,.81.81,0,1,0,1.4.83,6.87,6.87,0,0,0,0-6.64,7.42,7.42,0,0,0-13.8,3.81,7.07,7.07,0,0,0,.12,1.3A4.27,4.27,0,0,0,12.35,25h0a1.09,1.09,0,0,0,0,.18,5.29,5.29,0,0,0,5.27,5.28A5.35,5.35,0,0,0,19.31,30.17Zm6.59-2.48a2.85,2.85,0,0,1-2,2.73,3.26,3.26,0,0,1-2.65-.52,2.79,2.79,0,0,1-.47-.5,5.22,5.22,0,0,0,2.15-4.23s0-.07,0-.11a2.43,2.43,0,0,1,.38,0A2.84,2.84,0,0,1,25.9,27.69ZM14,25.17a3.28,3.28,0,0,1,.13-.94,3.72,3.72,0,0,1,1.33-2,7.28,7.28,0,0,0,2.78.54,7.48,7.48,0,0,0,1.93-.26,3.65,3.65,0,0,1,1.06,2v0h0a2.43,2.43,0,0,1,.05.56,3.65,3.65,0,0,1-3.64,3.65A3.66,3.66,0,0,1,14,25.17Z"/>
        <path class="cls-1" d="M29.41,9.28a4,4,0,1,0-4-4A4,4,0,0,0,29.41,9.28Zm0-6.29a2.33,2.33,0,1,1-2.32,2.33A2.33,2.33,0,0,1,29.41,3Z"/>
        <path class="cls-1" d="M7.92,17.29a4,4,0,1,0-4,4A4,4,0,0,0,7.92,17.29ZM4,19.61a2.33,2.33,0,1,1,2.33-2.32A2.33,2.33,0,0,1,4,19.61Z"/>
        <path class="cls-1" d="M16.9,6.14a3.07,3.07,0,1,0-3.07-3.07A3.07,3.07,0,0,0,16.9,6.14Zm0-4.51a1.44,1.44,0,1,1-1.44,1.44A1.44,1.44,0,0,1,16.9,1.63Z"/>
        <path class="cls-1" d="M9.36,28.82a3.07,3.07,0,1,0,3.06,3.06A3.06,3.06,0,0,0,9.36,28.82Zm0,4.5a1.44,1.44,0,1,1,0-2.87,1.44,1.44,0,0,1,0,2.87Z"/>
      </g>
    </g>
  </g>
</svg>
