<svg xmlns="http://www.w3.org/2000/svg" width="27" height="49.26" viewBox="0 0 27 49.26">
  <defs>
    <style>
      .cls-1 {
        fill: #72dbd4;
      }
    </style>
  </defs>
  <title>price-ic-6</title>
  <g id="Layer_2" data-name="Layer 2">
    <g id="Ñëîé_1" data-name="Ñëîé 1">
      <g>
        <path class="cls-1" d="M26.61,5.81a10.19,10.19,0,0,0-1-2.37A7.1,7.1,0,0,0,18.31.11L13.5,1,8.7.11A7.18,7.18,0,0,0,7.45,0a7,7,0,0,0-6.1,3.46A10.84,10.84,0,0,0,0,8.9a11.62,11.62,0,0,0,.68,3.91l.2.55c.59,1.61,1.19,3.28,1.67,4.95l.18.63v7.78a.82.82,0,0,0,.82.82H5.31l2.17,1.65V42.27A4.34,4.34,0,0,0,8.93,45.5l4,3.56,0,0,.06,0,.08.05.06,0,.1,0,.05,0h.32l0,0,.1,0,.06,0,.09-.05.05,0,0,0,4-3.56a4.33,4.33,0,0,0,1.44-3.23V32.2h0v-3l2.17-1.65h1.76a.83.83,0,0,0,.83-.82V18.94l.13-.44c.47-1.63,1.07-3.27,1.65-4.86l.3-.83A11.57,11.57,0,0,0,27,8.9,12,12,0,0,0,26.61,5.81ZM13.1,30.63a13.2,13.2,0,0,1,4.7,2l0,0v3A17.16,17.16,0,0,0,13.41,34l-4.28-.89V29.8Zm3.84,13.63-.09.08a17.49,17.49,0,0,0-3.44-1.12l-4.28-.89V39.7l3.94.82a14.69,14.69,0,0,1,2.48.74,15,15,0,0,1,2.28,1.11A2.67,2.67,0,0,1,16.94,44.26Zm-.79-4.53a15.67,15.67,0,0,0-2.74-.82L9.13,38V34.79l3.94.82a15.55,15.55,0,0,1,4.76,1.87v3A14.9,14.9,0,0,0,16.15,39.73ZM10,44.19l3.12.65a14.14,14.14,0,0,1,2.41.72l-2,1.78L10,44.26Zm8.21-16.06a.82.82,0,0,0-.33.66V30.7A14.52,14.52,0,0,0,13.44,29L8.66,28,8,27.54h10.9Zm4.43-2.24H4.37V19.65H22.59Zm2.18-13.64-.3.83c-.58,1.59-1.18,3.25-1.67,4.92H4.17l0-.14c-.49-1.73-1.1-3.42-1.7-5.07l-.19-.54A9.85,9.85,0,0,1,1.65,8.9,9.23,9.23,0,0,1,2.78,4.27,5.38,5.38,0,0,1,7.46,1.65a5.8,5.8,0,0,1,1,.08l4.95.88a1.4,1.4,0,0,0,.29,0l5-.88a5.7,5.7,0,0,1,.95-.08,5.34,5.34,0,0,1,4.66,2.61,8.59,8.59,0,0,1,.81,2,10.37,10.37,0,0,1,.33,2.66A10,10,0,0,1,24.77,12.25Z"/>
        <path class="cls-1" d="M6.57,24.42h7.49a.83.83,0,0,0,0-1.65H7.39V21.33a.83.83,0,0,0-1.65,0v2.26A.83.83,0,0,0,6.57,24.42Z"/>
        <path class="cls-1" d="M22.61,5.2a5.19,5.19,0,0,0-5.12-1.64l-3.61.79a.84.84,0,0,0-.63,1,.83.83,0,0,0,1,.63l3.6-.79a3.53,3.53,0,0,1,3.51,1.1,2.11,2.11,0,0,1,.19.23,4.1,4.1,0,0,1,.73,2.44.83.83,0,0,0,.82.83h0a.83.83,0,0,0,.83-.83,5.7,5.7,0,0,0-1.05-3.41Z"/>
      </g>
    </g>
  </g>
</svg>
