<svg xmlns="http://www.w3.org/2000/svg" width="50" height="42.4" viewBox="0 0 50 42.4" fill="#72dbd4">
        <path class="cls-1" d="M49.7,29.31a6.6,6.6,0,0,0-4.42-6.07,1,1,0,0,0,.1-.43V19.42a1,1,0,0,0-1-1H38.55a1,1,0,0,0-1,1v2.84q-1.48-.12-3-.21V19.42a1,1,0,0,0-1-1H27.73a1,1,0,0,0-1,1v2.35h-.83l-3.05,0V19.42a1,1,0,0,0-1-1H16a1,1,0,0,0-1,1v2.7c-1,.07-2,.15-3,.24V19.42a1,1,0,0,0-1-1H5.15a1,1,0,0,0-1,1v3.63a1,1,0,0,0,.08.39A6.59,6.59,0,0,0,0,30.25l0,.16a5.36,5.36,0,0,0,0,.82l.33,6.54A5.37,5.37,0,0,0,1.7,41.13l.23.22c.24.19.75.62,5.45.62.56,0,1.18,0,1.86,0a49.52,49.52,0,0,0,5.51.21h0a1,1,0,0,0,.71-.28,3.59,3.59,0,0,0,1.84.52h5.22a3.57,3.57,0,0,0,2.54-1.08,3.57,3.57,0,0,0,2.55,1.08h5.22a3.61,3.61,0,0,0,1.84-.52,1,1,0,0,0,.7.28h0A48.49,48.49,0,0,0,40.85,42h.08l1.81,0c4.58,0,5.1-.44,5.34-.63a2.49,2.49,0,0,0,.23-.22,5.37,5.37,0,0,0,1.36-3.36L50,31.21A4.76,4.76,0,0,0,49.7,29.31ZM39.56,20.44h3.79v2.4c-1.26-.15-2.52-.29-3.79-.41Zm-10.81,0h3.78v1.49c-1.26-.06-2.52-.1-3.78-.13ZM17,20.43h3.78v1.4c-1.25,0-2.52.1-3.78.17Zm-7.08,0v2.12c-1.26.13-2.52.27-3.78.43V20.43ZM6.05,25a150.11,150.11,0,0,1,19.83-1.25l1.52,0a1.28,1.28,0,0,0,.33.06,1.07,1.07,0,0,0,.31-.06,151.07,151.07,0,0,1,15.6,1.11,4.58,4.58,0,0,1,3.61,2.64c-1.51.26-3.76,1.84-5.23,3.09-.18-.55-.35-1-.49-1.46a3,3,0,0,0-2.39-2.05c-1.07-.14-2.92.86-4.68,2.95l-.25-.88a4.1,4.1,0,0,0-3.74-3,4,4,0,0,0-.49,0h0a4.19,4.19,0,0,0-3.79,3.11l-1.13,4-1.12-4a4.2,4.2,0,0,0-3.8-3.11h0a3.84,3.84,0,0,0-.48,0,4.12,4.12,0,0,0-3.75,3l-.28,1c-1.5-1.69-3.7-3.23-4.77-3.09a3,3,0,0,0-2.39,2.05L8,30.55c-1.54-1.28-4-2.9-5.5-3A4.64,4.64,0,0,1,6.05,25Zm29.87,10.2-.76-2.7c1.67-2.49,3.35-3.37,3.72-3.39a1,1,0,0,1,.73.7c.22.64.61,1.79,1,2.95h0a20.86,20.86,0,0,1,.63,2.6,19.67,19.67,0,0,1,0,4.19.54.54,0,0,1-.09.26,38,38,0,0,1-5,.27,3.54,3.54,0,0,0,.25-1.22A14,14,0,0,0,35.92,35.24ZM9.5,40l-.16,0-.47-.07a.54.54,0,0,1-.09-.26,19.67,19.67,0,0,1,0-4.19,43.22,43.22,0,0,1,1.57-5.56,1.05,1.05,0,0,1,.65-.68,10.27,10.27,0,0,1,3.89,3.5l-.73,2.59a14.15,14.15,0,0,0-.46,3.65A3.53,3.53,0,0,0,14,40.13C12.29,40.11,10.5,40.05,9.5,40ZM2.37,37.67,2,31.15a3.64,3.64,0,0,1,0-.6v0a1.5,1.5,0,0,1,.45-1,15.43,15.43,0,0,1,4.86,3.11,21.57,21.57,0,0,0-.57,2.43,21.21,21.21,0,0,0,0,4.69l0,.14a24.85,24.85,0,0,1-3.63-.21A3.32,3.32,0,0,1,2.37,37.67Zm20.15,2.7H17.3a1.53,1.53,0,0,1-1.53-1.49,11.84,11.84,0,0,1,.39-3.09l1.7-6a2.11,2.11,0,0,1,1.9-1.52h.29A2.22,2.22,0,0,1,22,29.89l1.66,5.87a12.2,12.2,0,0,1,.4,3.12A1.54,1.54,0,0,1,22.52,40.37Zm10.31,0H27.61a1.53,1.53,0,0,1-1.53-1.49,11.79,11.79,0,0,1,.39-3.09l1.67-5.9a2.21,2.21,0,0,1,1.94-1.64h.28a2.08,2.08,0,0,1,1.9,1.52l1.7,6a12.25,12.25,0,0,1,.4,3.12A1.53,1.53,0,0,1,32.83,40.37Zm14.81-2.7a3.32,3.32,0,0,1-.79,2,23.15,23.15,0,0,1-3.63.22l0-.15a21.84,21.84,0,0,0,0-4.69,21.09,21.09,0,0,0-.54-2.31c1.22-1.21,3.82-3,4.82-3.22a1.1,1.1,0,0,1,.28.35.36.36,0,0,0,0,.09A2.65,2.65,0,0,1,48,31.13Z"/>
        <path class="cls-1" d="M2,10.34a5.26,5.26,0,0,0,2.88,1.14v1.73a2,2,0,0,0,.6,1.41l1.23,1.17a1.92,1.92,0,0,0,1.35.55,1.94,1.94,0,0,0,1.36-.55l1.22-1.17a2,2,0,0,0,.6-1.41V10.48c1.5-.24,3-.44,4.5-.61v3.34a2,2,0,0,0,.6,1.41l1.23,1.17a1.92,1.92,0,0,0,1.35.55,1.94,1.94,0,0,0,1.36-.55l1.22-1.17a2,2,0,0,0,.6-1.41V9.42l2.25,0c1,0,2.07,0,3.11,0v3.78a2,2,0,0,0,.6,1.41l1.23,1.17a1.93,1.93,0,0,0,2.7,0l1.23-1.17a2,2,0,0,0,.6-1.41V9.86c1.49.15,3,.35,4.45.59v2.76a2,2,0,0,0,.6,1.41l1.23,1.17a1.94,1.94,0,0,0,2.71,0L44,14.62a2,2,0,0,0,.6-1.41V11.5a5.28,5.28,0,0,0,3.08-1.16,5.35,5.35,0,0,0,2-4.17V1a1,1,0,0,0-2,0V6.17A3.29,3.29,0,0,1,44,9.46a.92.92,0,0,0-.38-.08h0A87.18,87.18,0,0,0,10.1,8.61l-.12,0c-1.32.23-2.63.48-3.94.77a3.25,3.25,0,0,1-2.77-.65A3.3,3.3,0,0,1,2,6.17V1A1,1,0,0,0,0,1V6.17A5.35,5.35,0,0,0,2,10.34Zm29.79,2.83-1.15,1.11-1.15-1.1V9.51c.77,0,1.53.1,2.3.16Zm9.67,1.11-1.16-1.1V10.8q1.16.21,2.31.45v1.93ZM9.22,13.18l-1.16,1.1-1.15-1.1V11.3c.76-.17,1.53-.32,2.31-.47Zm10.86,0-1.16,1.1-1.15-1.1V9.68c.77-.07,1.54-.12,2.31-.16Z"/>
</svg>
