<?xml version="1.0" standalone="no"?>
<!DOCTYPE svg PUBLIC "-//W3C//DTD SVG 20010904//EN"
 "http://www.w3.org/TR/2001/REC-SVG-20010904/DTD/svg10.dtd">
<svg version="1.0" xmlns="http://www.w3.org/2000/svg"
 width="512.000000pt" height="512.000000pt" viewBox="0 0 512.000000 512.000000"
 preserveAspectRatio="xMidYMid meet">
<metadata>
Created by potrace 1.11, written by Peter Selinger 2001-2013
</metadata>
<g transform="translate(0.000000,512.000000) scale(0.100000,-0.100000)"
fill="#000000" stroke="none">
<path d="M1065 5108 c-286 -48 -515 -174 -667 -366 -81 -102 -132 -194 -186
-337 -14 -36 -49 -184 -57 -240 -4 -22 -8 -50 -10 -61 -24 -150 -24 -406 1
-649 3 -33 7 -73 9 -90 13 -144 44 -353 76 -525 40 -213 160 -719 186 -780 3
-8 7 -20 8 -26 14 -64 159 -498 190 -569 7 -16 36 -91 65 -165 29 -74 60 -153
70 -175 10 -22 44 -98 76 -170 63 -144 174 -362 222 -440 17 -27 41 -66 52
-85 21 -36 73 -108 125 -175 73 -93 170 -177 255 -221 47 -24 67 -28 140 -28
75 -1 92 3 142 28 65 33 159 121 233 216 27 36 66 83 86 105 100 109 227 270
464 589 l20 27 132 -178 c132 -178 215 -282 321 -402 31 -36 83 -98 115 -139
91 -114 164 -181 240 -217 59 -29 76 -33 140 -31 105 4 185 46 297 156 106
105 160 174 259 339 69 114 261 488 261 509 0 5 8 26 19 48 24 50 41 91 79
184 17 41 46 115 66 163 20 49 36 93 36 99 0 5 6 24 14 41 28 61 160 468 192
592 26 102 74 291 78 310 2 11 9 38 14 60 12 43 16 61 37 170 8 39 16 81 19
95 3 13 8 42 11 65 3 22 8 47 10 55 5 18 16 85 20 120 8 69 17 136 20 140 2 3
6 39 10 80 4 41 9 83 10 92 5 27 19 197 19 245 1 24 3 43 6 43 9 0 6 307 -2
316 -4 3 -3 15 3 25 5 11 6 19 1 19 -4 0 -8 10 -8 23 -1 31 -13 146 -19 182
-12 64 -48 211 -58 235 -5 14 -11 30 -12 35 -2 6 -19 44 -38 85 -73 153 -174
279 -297 372 -122 93 -339 183 -494 206 -82 11 -316 7 -376 -7 -198 -47 -325
-107 -540 -256 -106 -74 -436 -328 -460 -355 -3 -3 -33 -29 -68 -59 l-63 -54
-31 29 c-48 44 -52 47 -98 85 -23 18 -47 39 -54 44 -30 28 -181 148 -266 211
-307 229 -464 311 -681 355 -68 14 -298 19 -364 7z m1853 -1345 c4 -6 7 -170
7 -363 0 -227 3 -354 10 -358 5 -4 170 -7 365 -7 l355 0 0 -365 0 -365 -360
-2 c-198 -1 -362 -2 -365 -2 -3 -1 -6 -165 -5 -366 0 -201 -2 -365 -5 -366
-14 -3 -706 -4 -715 -2 -7 2 -10 129 -10 364 0 198 -4 363 -9 366 -4 3 -169 6
-365 6 l-356 0 1 361 c1 199 2 363 3 366 0 3 164 5 363 5 l363 0 0 360 c0 198
3 365 7 370 9 15 707 13 716 -2z"/>
</g>
</svg>
