<svg xmlns="http://www.w3.org/2000/svg" width="20" height="20" viewBox="0 0 20 20">
  <defs>
    <style>
      .cls-1 {
        fill: #ff5274;
        fill-rule: evenodd;
      }
    </style>
  </defs>
  <title>filter-icon</title>
  <g id="Layer_2" data-name="Layer 2">
    <g id="Layer_1-2" data-name="Layer 1">
      <path class="cls-1" d="M5.51,2.13A2.75,2.75,0,0,0,2.78,0,2.72,2.72,0,0,0,0,2.66,2.72,2.72,0,0,0,2.78,5.31,2.75,2.75,0,0,0,5.5,3.22H20V2.13Zm9.55,5.21a2.75,2.75,0,0,0-2.71,2.07H.06v1.12H12.35a2.82,2.82,0,0,0,5.43,0H20V9.41H17.78A2.77,2.77,0,0,0,15.06,7.34ZM7.19,14.69a2.75,2.75,0,0,0-2.72,2.09H.06v1.1h4.4A2.76,2.76,0,0,0,7.19,20a2.75,2.75,0,0,0,2.72-2.12H20v-1.1H9.9A2.74,2.74,0,0,0,7.19,14.69Z"/>
    </g>
  </g>
</svg>
