<svg xmlns="http://www.w3.org/2000/svg" width="31" height="31" viewBox="0 0 31 30.99">
  <defs>
    <style>
      .cls-1 {
        fill: #f05475;
      }
    </style>
  </defs>
  <title>insta-icon</title>
  <g id="Layer_2" data-name="Layer 2">
    <g id="Layer_1-2" data-name="Layer 1">
      <path class="cls-1" d="M15.5,10.26a5.24,5.24,0,1,0,5.24,5.24,5.25,5.25,0,0,0-5.24-5.24Z"/>
      <path class="cls-1" d="M25.25,8.62a2.07,2.07,0,0,1-1.43.59,2,2,0,0,1-1.42-.59,2,2,0,0,1,1.42-3.44,2,2,0,0,1,1.43,3.44ZM15.5,23.48a8,8,0,1,1,8-8,8,8,0,0,1-8,8ZM22.44,0H8.55A8.57,8.57,0,0,0,0,8.55V22.44A8.56,8.56,0,0,0,8.55,31H22.44A8.56,8.56,0,0,0,31,22.44V8.55A8.57,8.57,0,0,0,22.44,0Z"/>
    </g>
  </g>
</svg>
