<svg xmlns="http://www.w3.org/2000/svg" width="20" height="20" viewBox="0 0 20 20">
  <defs>
    <style>
      .cls-1 {
        fill: #fff;
        fill-rule: evenodd;
      }
    </style>
  </defs>
  <title>dzen</title>
  <g id="Layer_2" data-name="Layer 2">
    <g id="Layer_1-2" data-name="Layer 1">
      <path class="cls-1" d="M11.93,11.93c-1.57,1.62-1.69,3.65-1.82,8.07,4.12,0,7,0,8.44-1.44S20,14.1,20,10.11c-4.43.14-6.45.25-8.07,1.82ZM0,10.11c0,4,0,7,1.45,8.45S5.77,20,9.89,20c-.13-4.42-.25-6.45-1.82-8.07S4.43,10.25,0,10.11ZM9.89,0c-4.12,0-7,0-8.44,1.45S0,5.9,0,9.89c4.43-.13,6.45-.24,8.07-1.82S9.76,4.43,9.89,0Zm2,8.07C10.36,6.45,10.24,4.43,10.11,0c4.12,0,7,0,8.44,1.45S20,5.9,20,9.89C15.57,9.76,13.55,9.65,11.93,8.07Z"/>
    </g>
  </g>
</svg>
