<svg xmlns="http://www.w3.org/2000/svg" viewBox="0 0 21.12 21.04" width="21" height="21">
  <defs>
    <style>
      .cls-1 {
        fill: #fff;
        fill-rule: evenodd;
      }
    </style>
  </defs>
  <title>insta</title>
  <g id="Layer_2" data-name="Layer 2">
    <g id="Isolation_Mode" data-name="Isolation Mode">
      <path class="cls-1" d="M2.71,0H18.4a2.71,2.71,0,0,1,2.72,2.7V18.34A2.71,2.71,0,0,1,18.4,21H2.71A2.71,2.71,0,0,1,0,18.34V2.7A2.71,2.71,0,0,1,2.71,0ZM15.38,2.34h0a1,1,0,0,0-1,1V5.55a1,1,0,0,0,1,1h2.39a1,1,0,0,0,.95-1V3.29a1,1,0,0,0-.95-1ZM18.73,8.9H16.87a6,6,0,0,1,.27,1.8A6.46,6.46,0,0,1,10.58,17,6.46,6.46,0,0,1,4,10.7a6,6,0,0,1,.28-1.8H2.35v8.89a.83.83,0,0,0,.84.83h14.7a.84.84,0,0,0,.84-.83V8.9ZM10.58,6.38h0a4.17,4.17,0,0,0-4.24,4.1,4.17,4.17,0,0,0,4.24,4.09,4.17,4.17,0,0,0,4.24-4.09,4.17,4.17,0,0,0-4.24-4.1Z"/>
    </g>
  </g>
</svg>
