<svg xmlns="http://www.w3.org/2000/svg" viewBox="0 0 134.64 61.57" width="80" height="36">
  <defs>
    <style>
      .cls-1 {
        fill: #7a90a1;
      }
    </style>
  </defs>
  <title>pen</title>
  <g id="Layer_2" data-name="Layer 2">
    <g id="Layer_1-2" data-name="Layer 1">
      <g>
        <path class="cls-1" d="M11.36.15a11.11,11.11,0,0,1,4.1.73,9.57,9.57,0,0,1,3.19,2,9,9,0,0,1,2.06,3.05,10.05,10.05,0,0,1,.73,3.86,10,10,0,0,1-.73,3.85,9.08,9.08,0,0,1-2.06,3,9.47,9.47,0,0,1-3.19,2,11.15,11.15,0,0,1-4.1.73H7.5v7.72H0V.15Zm-.64,12.43a3,3,0,0,0,2.14-.83,2.65,2.65,0,0,0,0-3.91A3,3,0,0,0,10.72,7H7.5v5.57ZM26.86.15H47V6.79H34.37v3.43H45.94v6.44H34.37v3.85H47.44v6.65H26.86V.15Zm50.25,0v27H70.25L60.39,13.23V27.16h-7.5V.15h6.86l9.86,13.93V.15Z"/>
        <path class="cls-1" d="M102.84,20.52a2.33,2.33,0,0,0,1.83.93l.91-.2v5.14a5.88,5.88,0,0,1-2.92.73,5.18,5.18,0,0,1-2.51-.64,6.29,6.29,0,0,1-1.71-1.27l-.55-.65a8.5,8.5,0,0,1-.73.71A8.93,8.93,0,0,1,95,26.4a9.41,9.41,0,0,1-3.66.72A8.78,8.78,0,0,1,85.22,25a6.51,6.51,0,0,1-2.34-5,6.82,6.82,0,0,1,.5-2.56,8.11,8.11,0,0,1,1.23-2.08,14.45,14.45,0,0,1,1.45-1.47,10.38,10.38,0,0,1,1.24-.94l.52-.28-.33-.33c-.15-.15-.4-.45-.76-.9s-.66-.9-1-1.35A8.11,8.11,0,0,1,85,8.43,5.58,5.58,0,0,1,84.7,6.6,6.15,6.15,0,0,1,86.82,2,7.38,7.38,0,0,1,92,0a7.77,7.77,0,0,1,5.37,1.92,5.91,5.91,0,0,1,2.14,4.5,5.65,5.65,0,0,1-1.06,3.17,9,9,0,0,1-2.1,2.29l-1.06.77,2.93,3.48a4.12,4.12,0,0,0,.92-2.75H105a12.35,12.35,0,0,1-.55,3.66,11.53,11.53,0,0,1-1.09,2.64l-.56.84ZM91.84,22a3.71,3.71,0,0,0,1.54-.33A4.84,4.84,0,0,0,94.45,21l.32-.33L91.3,16.49c-.14.1-.32.23-.54.41a5.26,5.26,0,0,0-.9,1.08,2.8,2.8,0,0,0-.58,1.63A2.25,2.25,0,0,0,90,21.34a2.58,2.58,0,0,0,1.88.64Zm2-15a1.84,1.84,0,0,0-.49-1.32A1.75,1.75,0,0,0,92,5.14a1.82,1.82,0,0,0-1.35.51A1.85,1.85,0,0,0,90.19,7a2.64,2.64,0,0,0,.46,1.39,6,6,0,0,0,.91,1.14l.48.39A3.94,3.94,0,0,0,93.86,7Z"/>
        <path class="cls-1" d="M17.58,47.21a8.63,8.63,0,0,1,2.36,1.42,8.61,8.61,0,0,1,1.6,2,6.19,6.19,0,0,1,.75,3.2,7.19,7.19,0,0,1-2.4,5.46A8.29,8.29,0,0,1,17.06,61a11.09,11.09,0,0,1-3.77.6H0v-27H12.43a11.52,11.52,0,0,1,3.73.56,8.18,8.18,0,0,1,2.75,1.52,6.77,6.77,0,0,1,1.71,2.25,6.45,6.45,0,0,1,.6,2.75,5.17,5.17,0,0,1-.58,2.55,7.23,7.23,0,0,1-1.26,1.73,6.71,6.71,0,0,1-1.8,1.29ZM7.5,45.07h3.43a2.59,2.59,0,0,0,1.85-.69,2.28,2.28,0,0,0,0-3.34,2.6,2.6,0,0,0-1.85-.69H7.5v4.72Zm4.08,10.72A2.94,2.94,0,0,0,13.72,55a2.64,2.64,0,0,0,0-3.9,2.94,2.94,0,0,0-2.14-.84H7.5v5.58Zm30.93,5.78c-.4-.71-.85-1.56-1.35-2.53s-1-1.91-1.48-2.83S38.58,54.08,38,53H35.22v8.57h-7.5v-27H39.51a11.54,11.54,0,0,1,4.1.71,9.49,9.49,0,0,1,3.19,2,8.9,8.9,0,0,1,2.79,6.54,7.21,7.21,0,0,1-.75,3.45,10.66,10.66,0,0,1-1.61,2.3,9.7,9.7,0,0,1-2.36,1.75l6,10.29ZM39.08,46.14a2.9,2.9,0,0,0,2-.69,2.23,2.23,0,0,0,0-3.34,2.9,2.9,0,0,0-2-.69H35.22v4.72ZM67.4,42.92,65,50.64h4.72L67.4,42.92ZM63.33,56.64l-1.5,4.93H53.9l9.21-27h8.58l9.22,27H73l-1.5-4.93Zm28.34,4.93H84.16v-27h7.51v27Zm29.44-27v27h-6.86l-9.86-13.93V61.57h-7.5v-27h6.86l9.86,13.94V34.56Z"/>
        <path class="cls-1" d="M134.64,38.35a3.6,3.6,0,0,1-.29,1.44,3.66,3.66,0,0,1-.79,1.17,3.86,3.86,0,0,1-1.19.79,3.87,3.87,0,0,1-2.94,0,3.64,3.64,0,0,1-1.19-.79,3.69,3.69,0,0,1-.8-1.17,3.6,3.6,0,0,1-.29-1.44,3.65,3.65,0,0,1,.29-1.43,3.85,3.85,0,0,1,.8-1.18,3.85,3.85,0,0,1,4.13-.78,3.57,3.57,0,0,1,2,2,3.65,3.65,0,0,1,.29,1.43Zm-2.1-.62a1.16,1.16,0,0,1-.09.49,1.25,1.25,0,0,1-.23.31,1.05,1.05,0,0,1-.3.22l1,1.36a2.87,2.87,0,0,0,.49-.8,2.77,2.77,0,0,0,.17-1,2.61,2.61,0,0,0-.21-1,2.71,2.71,0,0,0-.57-.84,2.65,2.65,0,0,0-.85-.57,2.53,2.53,0,0,0-1-.21,2.58,2.58,0,0,0-1,.21,2.88,2.88,0,0,0-.85.57,2.71,2.71,0,0,0-.57.84,2.61,2.61,0,0,0-.21,1,2.58,2.58,0,0,0,.21,1,2.65,2.65,0,0,0,1.42,1.42,2.68,2.68,0,0,0,2.08,0,2.55,2.55,0,0,0,.85-.59h-1.1L130.9,39h-.29v1.19h-1.07V36.48h1.64a1.63,1.63,0,0,1,.55.1,1.39,1.39,0,0,1,.43.28,1.21,1.21,0,0,1,.28.39,1.12,1.12,0,0,1,.1.48ZM131,38c.27,0,.4-.09.4-.28s-.13-.28-.4-.28h-.4V38Z"/>
      </g>
    </g>
  </g>
</svg>
