<svg xmlns="http://www.w3.org/2000/svg" viewBox="0 0 21 28.76" width="21" height="29">
  <defs>
    <style>
      .cls-1 {
        fill: #fff;
      }
    </style>
  </defs>
  <title>youtube</title>
  <g id="Layer_2" data-name="Layer 2">
    <g id="Isolation_Mode" data-name="Isolation Mode">
      <polygon class="cls-1" points="7.74 0 5.67 0 4.41 5.28 4.28 5.28 2.95 0 0.9 0 0.9 0 3.33 7.97 3.33 13.21 5.37 13.21 5.37 7.73 7.74 0 7.74 0"/>
      <path class="cls-1" d="M8.36,12.72a2.53,2.53,0,0,0,1.89.73h0a2.61,2.61,0,0,0,1.93-.71,2.66,2.66,0,0,0,.7-2v-5a2.49,2.49,0,0,0-.71-1.82,2.54,2.54,0,0,0-1.85-.7,2.76,2.76,0,0,0-2,.67,2.32,2.32,0,0,0-.73,1.8v5.05a2.7,2.7,0,0,0,.71,2Zm1.15-7.1h0a.67.67,0,0,1,.21-.52.76.76,0,0,1,.54-.19.85.85,0,0,1,.58.19.68.68,0,0,1,.22.52v5.3a.83.83,0,0,1-.22.62.76.76,0,0,1-.58.22.7.7,0,0,1-.56-.22.89.89,0,0,1-.19-.62V5.62Z"/>
      <path class="cls-1" d="M17.8,3.46v7.4a2.48,2.48,0,0,1-.56.52,1,1,0,0,1-.51.21.39.39,0,0,1-.36-.16.82.82,0,0,1-.12-.5V3.46H14.44v8.15a2.2,2.2,0,0,0,.32,1.3,1.1,1.1,0,0,0,1,.43A2.1,2.1,0,0,0,16.76,13a3.71,3.71,0,0,0,1-.9V13.2h1.81V3.46Z"/>
      <path class="cls-1" d="M10.83,28.76h-.66c-2.36,0-4.65,0-6.8-.13a3.23,3.23,0,0,1-3.23-3.2C0,24.2,0,22.91,0,21.59s0-2.6.14-3.83a3.21,3.21,0,0,1,3.23-3.19c2.16-.09,4.44-.14,6.77-.14h.72c2.33,0,4.61.05,6.77.14a3.21,3.21,0,0,1,3.23,3.19C21,19,21,20.28,21,21.6s0,2.6-.14,3.83a3.23,3.23,0,0,1-3.23,3.2C15.47,28.72,13.19,28.76,10.83,28.76Zm-.33-.59h.33c2.35,0,4.63,0,6.78-.13h0a2.64,2.64,0,0,0,2.65-2.62v0c.09-1.22.13-2.5.13-3.8s0-2.59-.13-3.8v0a2.64,2.64,0,0,0-2.65-2.62h0c-2.16-.09-4.43-.13-6.75-.13h-.72c-2.32,0-4.6,0-6.75.13h0A2.64,2.64,0,0,0,.72,17.77v0C.63,19,.58,20.29.59,21.59s0,2.59.13,3.81v0A2.64,2.64,0,0,0,3.38,28h0c2.15.09,4.43.13,6.78.13Z"/>
      <path class="cls-1" d="M6.21,17H1.93v1.31H3.37V26h1.4V18.26H6.21V17Zm2.28,7.43h0a1.78,1.78,0,0,1-.38.35.63.63,0,0,1-.35.14.28.28,0,0,1-.25-.1.62.62,0,0,1-.08-.35v-5.1H6.19v5.57a1.56,1.56,0,0,0,.22.89.75.75,0,0,0,.65.3,1.39,1.39,0,0,0,.72-.22,2.65,2.65,0,0,0,.71-.62V26H9.73V19.32H8.49v5.06Zm4.8-5.14h0a1.18,1.18,0,0,0-.57.15,1.94,1.94,0,0,0-.54.47V17H10.94v9h1.24v-.51a1.82,1.82,0,0,0,.53.45,1.38,1.38,0,0,0,.65.14,1,1,0,0,0,.84-.37,1.73,1.73,0,0,0,.29-1.09V20.91a2.1,2.1,0,0,0-.31-1.25,1,1,0,0,0-.89-.42Zm-.07,5.18h0a.8.8,0,0,1-.11.46.39.39,0,0,1-.33.14.6.6,0,0,1-.3-.07,1.21,1.21,0,0,1-.3-.24V20.56a.91.91,0,0,1,.26-.2.63.63,0,0,1,.26-.07.46.46,0,0,1,.39.18.89.89,0,0,1,.13.51v3.44Zm5.85-1.61h0v-1.7a2.1,2.1,0,0,0-.45-1.45,1.67,1.67,0,0,0-1.31-.51A1.78,1.78,0,0,0,16,19.7a1.93,1.93,0,0,0-.52,1.41v3a2.22,2.22,0,0,0,.48,1.51,1.62,1.62,0,0,0,1.31.55,1.77,1.77,0,0,0,1.39-.52,2.23,2.23,0,0,0,.46-1.54v-.5H17.8v.46a1.37,1.37,0,0,1-.13.76.47.47,0,0,1-.43.17.43.43,0,0,1-.41-.2,1.41,1.41,0,0,1-.13-.73V22.81ZM16.7,21.1h0a1.11,1.11,0,0,1,.13-.6.5.5,0,0,1,.43-.18.48.48,0,0,1,.41.18,1.11,1.11,0,0,1,.13.6v.67H16.7V21.1Z"/>
    </g>
  </g>
</svg>
