<svg xmlns="http://www.w3.org/2000/svg" width="41" height="41" viewBox="0 0 41 41">
  <defs>
    <style>
      .cls-1 {
        fill: #ff5274;
      }
    </style>
  </defs>
  <title>cons-ic-2</title>
  <g id="Layer_2" data-name="Layer 2">
    <g id="Ñëîé_1" data-name="Ñëîé 1">
      <g>
        <path class="cls-1" d="M0,0V28.7H41V0ZM39,26.65H2.05V2.05H39Z"/>
        <path class="cls-1" d="M11.27,30.75a5.14,5.14,0,0,0-5,4.1H0v2H6.25a5.13,5.13,0,0,0,10.05,0H41v-2H16.3A5.14,5.14,0,0,0,11.27,30.75Zm0,8.2a3.08,3.08,0,1,1,3.08-3.07A3.08,3.08,0,0,1,11.27,39Z"/>
        <path class="cls-1" d="M14.35,4.72V24l15-9.63Zm2,3.76,9.14,5.87L16.4,20.22Z"/>
      </g>
    </g>
  </g>
</svg>
