<svg xmlns="http://www.w3.org/2000/svg" width="45" height="33.86" viewBox="0 0 45 33.86">
  <defs>
    <style>
      .cls-1 {
        fill: #ff5274;
      }
    </style>
  </defs>
  <title>cons-ic-1</title>
  <g id="Layer_2" data-name="Layer 2">
    <g id="_Layer_" data-name="&lt;Layer&gt;">
      <g>
        <path class="cls-1" d="M3.75,4.63a1,1,0,1,0,1-1A1,1,0,0,0,3.75,4.63Z"/>
        <path class="cls-1" d="M6.68,4.63a1,1,0,1,0,1-1A1,1,0,0,0,6.68,4.63Z"/>
        <path class="cls-1" d="M9.7,4.63a1,1,0,1,0,1-1A1,1,0,0,0,9.7,4.63Z"/>
        <path class="cls-1" d="M16.88,3.78a.85.85,0,0,0,0,1.7h2.63a.85.85,0,1,0,0-1.7Z"/>
        <path class="cls-1" d="M40.88,25.86a.85.85,0,0,0-.85.85v2.82a2.64,2.64,0,0,1-2.64,2.64H24.74a1.93,1.93,0,0,0,.07-.53V18.33c0-5-4.38-9.12-9.76-9.12S5.29,13.3,5.29,18.33V31.64a1.46,1.46,0,0,0,.1.53H3.27A1.57,1.57,0,0,1,1.7,30.59V3.27A1.57,1.57,0,0,1,3.27,1.7H38.46A1.57,1.57,0,0,1,40,3.27V7.11a.85.85,0,1,0,1.7,0V3.27A3.28,3.28,0,0,0,38.46,0H3.27A3.28,3.28,0,0,0,0,3.27V30.59a3.27,3.27,0,0,0,3.27,3.27h8.19a.85.85,0,0,0,.85-.84V31.49l.12.08h0l.06,0,0,0,.08,0h0a5,5,0,0,0,2.44.67,5.17,5.17,0,0,0,2.74-.85V33a.85.85,0,0,0,.85.84H37.39a4.34,4.34,0,0,0,4.34-4.33V26.71A.85.85,0,0,0,40.88,25.86ZM9.74,21.43a23.37,23.37,0,0,0,6.66-2.95,12.4,12.4,0,0,0,4,1.83V24a7.94,7.94,0,0,1-1.61,4.21,5.08,5.08,0,0,1-3.62,2.4H15a5.11,5.11,0,0,1-3.63-2.4A8,8,0,0,1,9.74,24ZM22.05,24V19.62a.86.86,0,0,0-.7-.84,10.15,10.15,0,0,1-3.14-1.16,9.87,9.87,0,0,1-1.28-.86.85.85,0,0,0-1.13,0,13.56,13.56,0,0,1-4.29,2.28c-1.54.57-2.82.9-2.83.91a.84.84,0,0,0-.63.82V24a9.88,9.88,0,0,0,2.56,6v2.13H7.71A2.27,2.27,0,0,1,7,31.62V18.33c0-4.09,3.61-7.42,8.06-7.42s8.06,3.33,8.06,7.42V31.64a.53.53,0,0,1-.53.53h-3.1V30A9.83,9.83,0,0,0,22.05,24Z"/>
        <path class="cls-1" d="M23.37,3.78a.85.85,0,0,0,0,1.7h5.14a.85.85,0,0,0,0-1.7Z"/>
        <path class="cls-1" d="M35.46,8.53c-5.26,0-9.54,3.77-9.54,8.4a7.53,7.53,0,0,0,.74,3.25,8.56,8.56,0,0,0,2.05,2.68,5,5,0,0,1-2.25,2.05.84.84,0,0,0,.11,1.61,6.61,6.61,0,0,0,1.52.15,9.47,9.47,0,0,0,5.2-1.57,10.82,10.82,0,0,0,2.17.23c5.26,0,9.54-3.77,9.54-8.4S40.72,8.53,35.46,8.53Zm0,15.1a9.34,9.34,0,0,1-2.14-.26.84.84,0,0,0-.69.13,7.83,7.83,0,0,1-3.3,1.37,9.05,9.05,0,0,0,1.24-1.82A.87.87,0,0,0,30.32,22a6.33,6.33,0,0,1-2.7-5.05c0-3.69,3.52-6.7,7.84-6.7s7.84,3,7.84,6.7S39.78,23.63,35.46,23.63Z"/>
        <path class="cls-1" d="M39.43,14.86H37.65V13.08a.86.86,0,0,0-.85-.85H34.12a.86.86,0,0,0-.85.85v1.78H31.49a.86.86,0,0,0-.85.85v2.68a.85.85,0,0,0,.85.85h1.78V21a.85.85,0,0,0,.85.85H36.8a.85.85,0,0,0,.85-.85V19.24h1.78a.85.85,0,0,0,.85-.85V15.71A.86.86,0,0,0,39.43,14.86Zm-5.31,2.68H32.34v-1h1.78a.85.85,0,0,0,.85-.85V13.93h1v1.78a.85.85,0,0,0,.85.85h1.78v1H36.8a.85.85,0,0,0-.85.85v1.78H35V18.39A.85.85,0,0,0,34.12,17.54Z"/>
      </g>
    </g>
  </g>
</svg>
