<svg xmlns="http://www.w3.org/2000/svg" width="49.4" height="48.49" viewBox="0 0 49.4 48.49">
  <defs>
    <style>
      .cls-1 {
        fill: #72dbd4;
      }
    </style>
  </defs>
  <title>comfort-5</title>
  <g id="Layer_2" data-name="Layer 2">
    <g id="Layer_1-2" data-name="Layer 1">
      <path class="cls-1" d="M48.88,11.69A2.39,2.39,0,0,0,47,10.76h-.87a7.06,7.06,0,0,0-3.73,1.07l.44-1.76A8.06,8.06,0,0,0,35,0H14.39A8.08,8.08,0,0,0,6.56,10.07L7,11.83a7.06,7.06,0,0,0-3.73-1.07H2.41a2.39,2.39,0,0,0-1.9.93,2.38,2.38,0,0,0-.44,2.06l5.68,23a4.43,4.43,0,0,0,2.82,3.12L7.41,47.3a1,1,0,0,0,.24.83,1,1,0,0,0,.78.36H11.1a1,1,0,0,0,.92-.56l4-7.78H33.38l4,7.78a1,1,0,0,0,.91.56H41a1.06,1.06,0,0,0,.78-.36A1,1,0,0,0,42,47.3l-1.15-7.42a4.43,4.43,0,0,0,2.82-3.12l5.67-23A2.39,2.39,0,0,0,48.88,11.69ZM2.14,13a.33.33,0,0,1,.27-.14h.87a5.11,5.11,0,0,1,4.93,3.81l3.43,13a4.44,4.44,0,0,0,4.3,3.31H33.45a4.46,4.46,0,0,0,4.31-3.31L40.29,20h.05v-.17l.84-3.21a5.11,5.11,0,0,1,4.94-3.81H47a.35.35,0,0,1,.27.14.3.3,0,0,1,.06.29l-5.68,23a2.38,2.38,0,0,1-2.32,1.81H10.07a2.39,2.39,0,0,1-2.32-1.81l-5.68-23A.33.33,0,0,1,2.14,13ZM33.45,30.87H15.94a2.4,2.4,0,0,1-2.31-1.78L13,26.64H36.41l-.64,2.45A2.4,2.4,0,0,1,33.45,30.87ZM40.84,9.56l-2.47,9.67L37,24.58H12.44L11,19.27,9.58,13.54l-1-4a6,6,0,0,1,5.83-7.5H35a6,6,0,0,1,5.83,7.5ZM13.7,40.15l-3.23,6.27H9.63l1-6.27Zm25.08,0,1,6.27h-.84L35.7,40.15Z"/>
    </g>
  </g>
</svg>
