<svg xmlns="http://www.w3.org/2000/svg" width="49" height="50.38" viewBox="0 0 49 50.38">
  <defs>
    <style>
      .cls-1 {
        fill: #72dbd4;
      }
    </style>
  </defs>
  <title>comfort-3</title>
  <g id="Layer_2" data-name="Layer 2">
    <g id="icons">
      <g>
        <polygon class="cls-1" points="23.59 15.76 28.64 20.81 36.9 12.55 35.38 11.03 28.64 17.78 25.11 14.25 23.59 15.76"/>
        <rect class="cls-1" x="13.63" y="17.15" width="3.22" height="2.14"/>
        <rect class="cls-1" x="40.43" y="17.15" width="3.22" height="2.14"/>
        <rect class="cls-1" x="27.56" y="3.22" width="2.14" height="3.22"/>
        <path class="cls-1" d="M48.79,26.16a5.28,5.28,0,0,0-5.39-1.48c-2.28.53-3.57,2.13-4.84,4.54L34.94,31.1A4.49,4.49,0,0,0,31.85,30H25.49L26,28.66l-2-.73-.29.79a4,4,0,0,0-2.23-.85H16.08c-1.78,0-3.82,1.31-5,2.46-1,1-2.62,2.55-3.58,3.47L6.12,32.47a1.07,1.07,0,0,0-1.52,0L.31,36.76a1.08,1.08,0,0,0,0,1.51L12.1,50.06a1.09,1.09,0,0,0,.76.32,1.07,1.07,0,0,0,.76-.32l4.29-4.29a1.06,1.06,0,0,0,0-1.51L17.68,44a1.55,1.55,0,0,1,.54-.09H34c2,0,9.31-7.78,9.38-7.86a57.72,57.72,0,0,0,5.54-8.86A1.06,1.06,0,0,0,48.79,26.16ZM12.86,47.79,2.59,37.51l2.77-2.77L15.63,45ZM41.77,34.66c-1.23,1.37-6.66,6.63-7.88,7.14H18.22a3.37,3.37,0,0,0-2.12.65L9,35.32c1-.93,2.53-2.43,3.56-3.45A6.51,6.51,0,0,1,16.08,30h5.36a3.65,3.65,0,0,1,1.47.81l-.05.13.43.15a3.78,3.78,0,0,0,2.13,1h6.43c1.48,0,2.14.81,2.14,1.61s-.66,1.61-2.14,1.61H22.2v2.14h9.65c2.82,0,4.29-1.88,4.29-3.75a3.3,3.3,0,0,0-.11-.82l3.82-2a1.08,1.08,0,0,0,.46-.46c1.25-2.43,2.18-3.41,3.57-3.73a3.9,3.9,0,0,1,2.74.29A62.78,62.78,0,0,1,41.77,34.66Z"/>
        <path class="cls-1" d="M14.3,25.51a16.07,16.07,0,1,1,29.86-3.09l2.07.56a18.23,18.23,0,1,0-33.84,3.51Z"/>
      </g>
    </g>
  </g>
</svg>
