<svg xmlns="http://www.w3.org/2000/svg" width="43" height="43" viewBox="0 0 43 43">
  <defs>
    <style>
      .cls-1 {
        fill: #72dbd4;
      }
    </style>
  </defs>
  <title>comfort-1</title>
  <g id="Layer_2" data-name="Layer 2">
    <g id="Layer_1-2" data-name="Layer 1">
      <g>
        <path class="cls-1" d="M42,0H1A1,1,0,0,0,0,1V42a1,1,0,0,0,1,1H42a1,1,0,0,0,1-1V1A1,1,0,0,0,42,0ZM2,41V2H41V41Z"/>
        <path class="cls-1" d="M32.17,12.83a7.38,7.38,0,0,0-1.94-3.14A9.75,9.75,0,0,0,26.6,7.58a17.14,17.14,0,0,0-5.52-.76H11.85A1.55,1.55,0,0,0,10.3,8.37V34.63a1.55,1.55,0,0,0,1.55,1.55h4.54a1.54,1.54,0,0,0,1.55-1.55V26.41h3.29a16,16,0,0,0,5.42-.79,9.4,9.4,0,0,0,3.6-2.21,8,8,0,0,0,1.93-3.32,13.48,13.48,0,0,0,.52-3.72,12,12,0,0,0-.53-3.54ZM15.94,26v8.22H12.31V8.82h8.77a15,15,0,0,1,4.86.66,7.82,7.82,0,0,1,2.89,1.65,5.32,5.32,0,0,1,1.42,2.29,10,10,0,0,1,.44,3,11.38,11.38,0,0,1-.44,3.16A5.92,5.92,0,0,1,28.81,22,7.53,7.53,0,0,1,26,23.74a14.34,14.34,0,0,1-4.74.66H17.49A1.55,1.55,0,0,0,15.94,26Z"/>
        <path class="cls-1" d="M21,21.66a9.49,9.49,0,0,0,2.77-.35,5,5,0,0,0,1.94-1.07,3.79,3.79,0,0,0,1-1.65l.06-.06v-.15a7.73,7.73,0,0,0,.22-1.9,6.75,6.75,0,0,0-.27-2,3.6,3.6,0,0,0-1.11-1.68h0a4.92,4.92,0,0,0-1.94-1,10.7,10.7,0,0,0-2.74-.3H17.49a1.55,1.55,0,0,0-1.55,1.55v7a1.54,1.54,0,0,0,1.55,1.55Zm-3.1-2V13.54H21a8.91,8.91,0,0,1,2.21.23,3.06,3.06,0,0,1,1.16.56,1.62,1.62,0,0,1,.5.77,4.65,4.65,0,0,1,.19,1.38,5.54,5.54,0,0,1-.18,1.45,1.68,1.68,0,0,1-.5.84,2.92,2.92,0,0,1-1.17.62,7.56,7.56,0,0,1-2.17.26Z"/>
      </g>
    </g>
  </g>
</svg>
