<svg xmlns="http://www.w3.org/2000/svg" viewBox="0 0 34 43.72" width="34" height="44">
  <defs>
    <style>
      .cls-1 {
        fill: #ff5274;
      }
    </style>
  </defs>
  <title>fact-5</title>
  <g id="Layer_2" data-name="Layer 2">
    <g id="Ñëîé_1" data-name="Ñëîé 1">
      <g>
        <path class="cls-1" d="M32.1,12a.74.74,0,0,0-.64.83,14,14,0,0,1,.1,1.73,12.57,12.57,0,0,1-1.66,6.25l-1.76,3.08A12.3,12.3,0,0,0,26.54,29a26.18,26.18,0,0,1-3.37,10.75l-1.18,2a.93.93,0,0,1-.81.47,1,1,0,0,1-.95-.94V37.9a14.4,14.4,0,0,0-.79-4.73L19,31.82a2.55,2.55,0,0,0-4.8-.06L13.72,33a14.39,14.39,0,0,0-.92,5.07V41.3a.94.94,0,0,1-1.75.47l-1.18-2A26.18,26.18,0,0,1,6.5,29a12.45,12.45,0,0,0-1.6-5.06L3.14,20.84a12.57,12.57,0,0,1-1.66-6.25,11.75,11.75,0,0,1,1.45-5.9A7,7,0,0,1,9,5.28a6.39,6.39,0,0,1,1.23.11l6.16,1.08h.26l3.78-.66a.74.74,0,0,0-.25-1.46L16.52,5l-6-1.06A8.28,8.28,0,0,0,9,3.8,8.43,8.43,0,0,0,1.64,8,13.2,13.2,0,0,0,0,14.59a14.09,14.09,0,0,0,1.85,7l1.77,3.08A11,11,0,0,1,5,29.11,27.68,27.68,0,0,0,8.59,40.47l1.17,2a2.42,2.42,0,0,0,4.52-1.21V38.08a13.08,13.08,0,0,1,.82-4.55l.47-1.26a1.07,1.07,0,0,1,2,0l.47,1.36a13,13,0,0,1,.71,4.24v3.4a2.42,2.42,0,0,0,4.51,1.21l1.18-2A27.68,27.68,0,0,0,28,29.11a11,11,0,0,1,1.41-4.46l1.76-3.08a14,14,0,0,0,1.86-7,15.11,15.11,0,0,0-.12-1.92A.73.73,0,0,0,32.1,12Z"/>
        <path class="cls-1" d="M5.75,9.45l-.26.33a5.83,5.83,0,0,0-1.06,3.47.74.74,0,0,0,.74.74h0a.74.74,0,0,0,.74-.74,4.4,4.4,0,0,1,.78-2.6l.19-.24a3.82,3.82,0,0,1,3.75-1.18A.74.74,0,1,0,11,7.79,5.27,5.27,0,0,0,5.75,9.45Z"/>
        <path class="cls-1" d="M33.56,8.8s-.32-.14-.82-.3A20.25,20.25,0,0,0,30.69,8c-.5-.11-1.33-.22-2.46-.34a2.06,2.06,0,0,1-1.81-1.81A23.5,23.5,0,0,0,26,3.32a16.1,16.1,0,0,0-.53-2.06c-.16-.5-.29-.8-.29-.81A.75.75,0,0,0,24.53,0a.73.73,0,0,0-.68.45s-.13.31-.3.81A20.91,20.91,0,0,0,23,3.31c-.15.74-.28,1.57-.38,2.46a2,2,0,0,1-1.81,1.81A24.74,24.74,0,0,0,18.38,8a17.77,17.77,0,0,0-2.06.53c-.51.16-.82.3-.83.3a.75.75,0,0,0-.44.69.72.72,0,0,0,.46.67s.31.13.8.29a18.87,18.87,0,0,0,2.06.53c.5.11,1.33.22,2.45.34a2.05,2.05,0,0,1,1.81,1.82c.1.9.23,1.74.39,2.49a19.78,19.78,0,0,0,.53,2.06c.17.5.29.8.3.81a.73.73,0,0,0,.68.45.75.75,0,0,0,.68-.45s.13-.31.29-.81.38-1.32.54-2.05.28-1.57.38-2.46a2.05,2.05,0,0,1,1.82-1.82A22,22,0,0,0,30.68,11a19.88,19.88,0,0,0,2.06-.53c.5-.16.8-.29.81-.29A.74.74,0,0,0,34,9.49.75.75,0,0,0,33.56,8.8Zm-3.18.74c-.69.14-1.47.26-2.3.36A3.51,3.51,0,0,0,25,13a22.09,22.09,0,0,1-.36,2.31l-.06.3c0-.1,0-.2-.07-.3A23.38,23.38,0,0,1,24.1,13,3.55,3.55,0,0,0,21,9.85c-1.06-.11-1.86-.22-2.31-.32a1.5,1.5,0,0,1-.29-.06l.3-.06A23,23,0,0,1,21,9.05a3.5,3.5,0,0,0,3.12-3.12,22.73,22.73,0,0,1,.36-2.32l.06-.27.06.28c.15.72.27,1.51.36,2.36A3.54,3.54,0,0,0,28.08,9.1a22.87,22.87,0,0,1,2.3.32l.28.05Z"/>
      </g>
    </g>
  </g>
</svg>
