<svg xmlns="http://www.w3.org/2000/svg" viewBox="0 0 34 40.77" width="34" height="41">
  <defs>
    <style>
      .cls-1 {
        fill: #ff5274;
      }
    </style>
  </defs>
  <title>fact-7</title>
  <g id="Layer_2" data-name="Layer 2">
    <g id="Ñëîé_1" data-name="Ñëîé 1">
      <g>
        <path class="cls-1" d="M11.89,14.28a.72.72,0,0,0,.72-.72,1.12,1.12,0,0,1,.21-.68l.06-.07a1.15,1.15,0,0,1,1.09-.3l1.48.3a.72.72,0,0,0,.85-.56.73.73,0,0,0-.56-.86l-1.48-.3a2.6,2.6,0,0,0-2.45.75l-.13.15a2.51,2.51,0,0,0-.52,1.57A.73.73,0,0,0,11.89,14.28Z"/>
        <path class="cls-1" d="M10.31,18.77A4.43,4.43,0,0,1,11,20.66a12.66,12.66,0,0,0,1.83,5.43l.58.95a1.57,1.57,0,0,0,1.33.73,1.53,1.53,0,0,0,1.56-1.5V24.7a5.2,5.2,0,0,1,.33-1.83l.23-.63a.18.18,0,0,1,.17-.09.18.18,0,0,1,.16.09l.23.58a5.3,5.3,0,0,1,.38,2v1.49a1.53,1.53,0,0,0,1.56,1.5A1.57,1.57,0,0,0,20.64,27l.58-.95a12.66,12.66,0,0,0,1.83-5.43,4.43,4.43,0,0,1,.64-1.89l.87-1.42a6.62,6.62,0,0,0,1-3.44,6.19,6.19,0,0,0-.88-3.28,4.59,4.59,0,0,0-3.94-2.1,5.27,5.27,0,0,0-.79.07L17,9.08,14.07,8.6a5.29,5.29,0,0,0-.8-.07,4.6,4.6,0,0,0-3.93,2.1,6.17,6.17,0,0,0-.88,3.28,6.62,6.62,0,0,0,1,3.44Zm.26-7.39A3.16,3.16,0,0,1,13.28,10a3.41,3.41,0,0,1,.55,0l3,.5h.24l3.05-.5a3.43,3.43,0,0,1,.56,0,3.13,3.13,0,0,1,2.7,1.41,4.71,4.71,0,0,1,.66,2.52,5.1,5.1,0,0,1-.76,2.68L22.45,18a5.89,5.89,0,0,0-.84,2.51A11.23,11.23,0,0,1,20,25.33l-.58,1a.12.12,0,0,1-.1,0c-.08,0-.11,0-.11-.05V24.78a6.64,6.64,0,0,0-.48-2.49l-.23-.58a1.64,1.64,0,0,0-3,0l-.23.63a6.62,6.62,0,0,0-.42,2.33v1.57s0,.05-.11.05a.12.12,0,0,1-.1,0l-.58-1a11.23,11.23,0,0,1-1.62-4.8A5.89,5.89,0,0,0,11.55,18l-.88-1.43a5.1,5.1,0,0,1-.76-2.68A4.77,4.77,0,0,1,10.57,11.38Z"/>
        <path class="cls-1" d="M10.34,32.55l6.28,3.86a.73.73,0,0,0,.38.11.76.76,0,0,0,.38-.11l6.28-3.86c4.46-2.74,7-6.88,7-11.35l-.08-18a.73.73,0,0,0-.29-.58.68.68,0,0,0-.63-.11,12.1,12.1,0,0,1-6.84,0A18.53,18.53,0,0,1,18.35.39a2.44,2.44,0,0,0-2.69,0,16.92,16.92,0,0,1-4.49,2.12,13,13,0,0,1-7,.12.69.69,0,0,0-.62.13.71.71,0,0,0-.28.57L3.33,21.2C3.33,25.67,5.88,29.81,10.34,32.55ZM11.59,3.93a18.78,18.78,0,0,0,4.88-2.31,1,1,0,0,1,1.1,0,19.5,19.5,0,0,0,4.86,2.33,13.41,13.41,0,0,0,6.72.22l.08,17c0,4-2.31,7.65-6.33,10.12L17,34.94l-5.9-3.62c-4-2.47-6.33-6.16-6.33-10.12l0-16.94A14.41,14.41,0,0,0,11.59,3.93Z"/>
        <path class="cls-1" d="M33.28,18.21a.73.73,0,0,0-.73.72v2.71a12.31,12.31,0,0,1-.71,4.12A12.46,12.46,0,0,1,30,29.08l-.59.77a23.76,23.76,0,0,1-3.2,2.92L17,39.17,7.79,32.79a23.57,23.57,0,0,1-3.23-2.94L4,29.08a12.46,12.46,0,0,1-1.81-3.32,12.31,12.31,0,0,1-.71-4.12V18.93a.73.73,0,0,0-.73-.72.72.72,0,0,0-.72.72v2.71A13.75,13.75,0,0,0,2.82,30l.59.77A24.5,24.5,0,0,0,6.94,34l9.65,6.68,0,0a.31.31,0,0,0,.13.06l.06,0,.18,0h0l.18,0,.06,0a.31.31,0,0,0,.13-.06l0,0,9.68-6.7a24.64,24.64,0,0,0,3.5-3.21l.59-.77a13.31,13.31,0,0,0,2-3.72,13.62,13.62,0,0,0,.8-4.6V18.93A.72.72,0,0,0,33.28,18.21Z"/>
      </g>
    </g>
  </g>
</svg>
