<svg xmlns="http://www.w3.org/2000/svg" viewBox="0 0 32 58.39" width="23">
  <defs>
    <style>
      .cls-1 {
        fill: #ff5274;
      }
    </style>
  </defs>
  <title>fact-4</title>
  <g id="Layer_2" data-name="Layer 2">
    <g id="Ñëîé_1" data-name="Ñëîé 1">
      <g>
        <path class="cls-1" d="M31.54,6.89a11.7,11.7,0,0,0-1.15-2.81A8.29,8.29,0,0,0,23.16,0,7.7,7.7,0,0,0,21.7.13l-5.7,1-5.69-1A7.84,7.84,0,0,0,8.83,0,8.28,8.28,0,0,0,1.6,4.1,12.8,12.8,0,0,0,0,10.55a13.56,13.56,0,0,0,.81,4.63l.24.65c.69,1.91,1.41,3.89,2,5.87l.21.74v9.22a1,1,0,0,0,1,1H6.29l2.58,2V50.1a5.11,5.11,0,0,0,1.71,3.82l4.75,4.22,0,0,.07,0,.1.06.07,0,.12,0,.06,0,.19,0h0l.19,0,0,0,.13,0,.07,0,.1-.06.06,0,.05,0,4.74-4.22a5.08,5.08,0,0,0,1.72-3.82V38.16h0V34.6l2.57-2h2.09a1,1,0,0,0,1-1V22.45l.15-.52c.57-1.94,1.27-3.89,1.95-5.77l.36-1A13.56,13.56,0,0,0,32,10.55,14.39,14.39,0,0,0,31.54,6.89Zm-16,29.41a15.64,15.64,0,0,1,5.56,2.35l.05,0v3.49a20.16,20.16,0,0,0-5.25-1.87l-5.07-1.06V35.32Zm4.55,16.16-.11.09a20.47,20.47,0,0,0-4.08-1.33l-5.07-1V47.05l4.67,1a17.07,17.07,0,0,1,2.94.87,17.75,17.75,0,0,1,2.7,1.32A3.15,3.15,0,0,1,20.08,52.46Zm-.94-5.38a19.56,19.56,0,0,0-3.25-1l-5.07-1.06V41.24l4.67,1a18.38,18.38,0,0,1,5.65,2.21V48A18.9,18.9,0,0,0,19.14,47.08Zm-7.35,5.29,3.7.77a18.68,18.68,0,0,1,2.86.85L16,56.1l-4.1-3.64Zm9.73-19a1,1,0,0,0-.38.78v2.26a17.35,17.35,0,0,0-5.21-2L10.26,33.2l-.74-.56H22.44Zm5.25-2.65H5.18V23.28H26.77Zm2.58-16.17-.35,1c-.69,1.89-1.4,3.85-2,5.83H5l0-.17c-.58-2-1.31-4.05-2-6l-.23-.64a11.73,11.73,0,0,1-.7-4A10.86,10.86,0,0,1,3.3,5.07,6.34,6.34,0,0,1,8.84,2a6.88,6.88,0,0,1,1.13.1l5.86,1a1,1,0,0,0,.34,0l5.87-1A6.88,6.88,0,0,1,23.17,2a6.33,6.33,0,0,1,5.52,3.1,9.68,9.68,0,0,1,1,2.35,12.3,12.3,0,0,1,.4,3.15A11.69,11.69,0,0,1,29.35,14.52Z"/>
        <path class="cls-1" d="M7.78,28.94h8.88a1,1,0,1,0,0-2H8.76v-1.7a1,1,0,1,0-1.95,0V28A1,1,0,0,0,7.78,28.94Z"/>
        <path class="cls-1" d="M26.8,6.17a6.17,6.17,0,0,0-6.08-1.95l-4.27.93a1,1,0,0,0-.74,1.17,1,1,0,0,0,1.16.74l4.27-.94a4.25,4.25,0,0,1,4.17,1.31c.07.09.15.18.22.28a4.92,4.92,0,0,1,.86,2.89,1,1,0,0,0,1,1h0a1,1,0,0,0,1-1,6.8,6.8,0,0,0-1.24-4C27,6.42,26.9,6.29,26.8,6.17Z"/>
      </g>
    </g>
  </g>
</svg>
