<svg xmlns="http://www.w3.org/2000/svg" viewBox="0 0 42 39.72" width="42" height="40">
  <defs>
    <style>
      .cls-1 {
        fill: #ff5274;
      }
    </style>
  </defs>
  <title>fact-2</title>
  <g id="Layer_2" data-name="Layer 2">
    <g id="Ñëîé_1" data-name="Ñëîé 1">
      <g>
        <path class="cls-1" d="M22.7,1.73a7,7,0,0,1,1.22-.11A6.79,6.79,0,0,1,29.85,5a11.57,11.57,0,0,1,1.43,5.82.81.81,0,1,0,1.62,0,13.13,13.13,0,0,0-1.64-6.62A8.41,8.41,0,0,0,23.91,0a8.25,8.25,0,0,0-1.49.13l-6,1-6-1A8.28,8.28,0,0,0,9,0,8.42,8.42,0,0,0,1.65,4.15,13.1,13.1,0,0,0,0,10.78a14,14,0,0,0,1.85,7L3.6,20.78A10.89,10.89,0,0,1,5,25.17,27.51,27.51,0,0,0,8.53,36.46l1.16,2a2.48,2.48,0,0,0,4.62-1.23V33.88a13,13,0,0,1,.7-4.19l.46-1.34a1.13,1.13,0,0,1,.29-.43.81.81,0,1,0-1-1.23,2.6,2.6,0,0,0-.77,1.13l-.46,1.35a14.51,14.51,0,0,0-.79,4.71v3.37a.85.85,0,0,1-.85.85.86.86,0,0,1-.75-.43l-1.16-2A25.85,25.85,0,0,1,6.6,25,12.26,12.26,0,0,0,5,20L3.26,16.92a12.38,12.38,0,0,1-1.64-6.14A11.58,11.58,0,0,1,3.05,5,6.93,6.93,0,0,1,10.2,1.73l6.11,1.08h.28Z"/>
        <path class="cls-1" d="M11.46,4A5.31,5.31,0,0,0,6.24,5.66,4.19,4.19,0,0,0,6,6,5.86,5.86,0,0,0,4.91,9.47a.81.81,0,0,0,1.62,0A4.21,4.21,0,0,1,7.29,7a1.55,1.55,0,0,1,.19-.24,3.66,3.66,0,0,1,3.63-1.14l3.7.81a.8.8,0,0,0,1-.62.81.81,0,0,0-.61-1Z"/>
        <path class="cls-1" d="M41.19,31A.81.81,0,0,0,42,30.2V26.08a.81.81,0,0,0-.81-.81h-3.6a1.34,1.34,0,0,1-1.13-.63c-2.84-4.58-4.41-5.46-5.68-6.16l-.11-.06a4.44,4.44,0,0,1-1.39-1.82,4.91,4.91,0,0,1-.43-1.51,2.89,2.89,0,0,0-1.72-2.51,2.45,2.45,0,0,0-2.06.12,4.43,4.43,0,0,0-1.79,1.6c-1.29,2.12-.49,5.35,1.94,7.84a.25.25,0,0,1,.07.17.22.22,0,0,1-.22.22H19.92a3.59,3.59,0,0,0-3,2.89,3.56,3.56,0,0,0,.63,2.66,2.79,2.79,0,0,0-.6,1.69,2.83,2.83,0,0,0,.86,2,3,3,0,0,0-.1,2.21,2.9,2.9,0,0,0,1.15,1.46,2.6,2.6,0,0,0-.08,1.61,2.73,2.73,0,0,0,2.41,2H35.66a4,4,0,0,0,1.46-.28,4,4,0,0,0,1-.57h3.07a.82.82,0,0,0,.81-.82V35.79a.81.81,0,1,0-1.62,0v.81H38.63V35.13a.81.81,0,1,0-1.62,0V37a2.34,2.34,0,0,1-.49.27,2.31,2.31,0,0,1-.86.17H21.27a1.14,1.14,0,0,1-1-.78,1,1,0,0,1,.1-.74h1.22a.82.82,0,0,0,0-1.63H20a1.37,1.37,0,0,1-.83-.81,1.34,1.34,0,0,1,.15-1.18h1.5a.81.81,0,1,0,0-1.62H18.94a1.21,1.21,0,0,1-.41-.91,1.28,1.28,0,0,1,.48-.93h1.41a.82.82,0,0,0,0-1.63H18.9a2,2,0,0,1-.43-1.52,2,2,0,0,1,1.64-1.55h5A1.85,1.85,0,0,0,26.38,21c-1.88-1.93-2.6-4.4-1.72-5.86a2.86,2.86,0,0,1,1.15-1,.86.86,0,0,1,.71-.06c.38.15.62.57.72,1.25a6.56,6.56,0,0,0,.59,2,5.68,5.68,0,0,0,2.05,2.52l.12.06c1.1.61,2.47,1.37,5.08,5.6a2.92,2.92,0,0,0,1.7,1.27V30.2a.81.81,0,1,0,1.62,0V26.89h2V30.2A.81.81,0,0,0,41.19,31Z"/>
      </g>
    </g>
  </g>
</svg>
