<svg xmlns="http://www.w3.org/2000/svg" viewBox="0 0 41 39.48" width="41" height="39">
  <defs>
    <style>
      .cls-1 {
        fill: #ff5274;
      }
    </style>
  </defs>
  <title>fact-8</title>
  <g id="Layer_2" data-name="Layer 2">
    <g id="Ñëîé_1" data-name="Ñëîé 1">
      <g>
        <path class="cls-1" d="M40.53,26.17A19.54,19.54,0,0,1,36.85,24a10.17,10.17,0,0,0-5.45-2.1,11.93,11.93,0,0,0-3.16.2,11.63,11.63,0,0,0-6.51,3.5,8.88,8.88,0,0,0-.8,1l-4.29-.76L11.54,24l-.13,0h-.05A3.61,3.61,0,0,0,7.88,25.2a3.62,3.62,0,0,0-2.64,0,1.78,1.78,0,0,0-.94,1.06,3.47,3.47,0,0,0-.85-.17l-.36,0A3,3,0,0,0,1,26.75a1.59,1.59,0,0,1-.13.13,1.43,1.43,0,0,0-.41,1.26A1.45,1.45,0,0,0,1.2,29.2l.25.11a3.47,3.47,0,0,0-1,.68A1.33,1.33,0,0,0,0,31.11a1,1,0,0,0,.51.7l8.87,5.3.06,0a51.66,51.66,0,0,0,6.68,2.12,6,6,0,0,0,1.63.22,6.35,6.35,0,0,0,2.14-.38l10.28-3.75.08,0a6,6,0,0,1,5.3,0A.8.8,0,0,0,36.63,35a.81.81,0,0,0-.37-1.08,7.62,7.62,0,0,0-6.67,0L19.35,37.59a4.58,4.58,0,0,1-2.81.12,50,50,0,0,1-6.36-2L2,30.82a2.19,2.19,0,0,1,.9-.25,2.17,2.17,0,0,1,.92.29l0,0c.34.17.7.38,1,.57s.7.42,1.08.61l4.2,1.88a.8.8,0,1,0,.65-1.47L6.66,30.61c-.3-.15-.62-.34-1-.54s-.72-.42-1.08-.61l-1.21-.95a.75.75,0,0,0-.15-.09l-1.13-.55A1.32,1.32,0,0,1,3,27.63l.33,0a1.7,1.7,0,0,1,.7.19l1.82.91c.79.4,1.59.81,2.29,1.15l2.61,1.17a.75.75,0,0,0,.33.07.8.8,0,0,0,.33-1.53L8.82,28.46,6.57,27.33,5.86,27v-.34l.08,0c.17-.08,1.15-.38,4.25,1.45l.08,0,2.54,1.13a1,1,0,0,0,.33.06.79.79,0,0,0,.73-.47.81.81,0,0,0-.41-1.06L11,26.66c-.52-.31-1-.58-1.47-.8A2,2,0,0,1,11,25.48l5.11,1.88.14,0,2.15.38a52.21,52.21,0,0,0-5,2.34A3.6,3.6,0,0,0,12,34.64a.79.79,0,0,0,.74.49.55.55,0,0,0,.18,0l7.19-1.69L24,33.18a.8.8,0,0,0,.75-.85.79.79,0,0,0-.85-.75l-4,.24-.14,0-6.48,1.53a2,2,0,0,1,.95-1.86c1.93-1.14,7.26-3.28,7.32-3.3h0a.82.82,0,0,0,.2-.12h0a.8.8,0,0,0,.15-.17h0a8.85,8.85,0,0,1,1-1.24,10.07,10.07,0,0,1,5.62-3,11.06,11.06,0,0,1,2.76-.17,8.58,8.58,0,0,1,4.58,1.78,20.59,20.59,0,0,0,4,2.37.8.8,0,0,0,.66-1.46Z"/>
        <path class="cls-1" d="M11.8,12.42a5.87,5.87,0,0,1,.75,2.38,16.1,16.1,0,0,0,2.08,6.61l.67,1.16a1.74,1.74,0,0,0,1.52.88,1.75,1.75,0,0,0,1.76-1.75V19.76A7,7,0,0,1,19,17.48l.26-.78a.24.24,0,0,1,.43,0l.26.71a6.87,6.87,0,0,1,.45,2.46V21.7a1.75,1.75,0,0,0,1.75,1.75,1.76,1.76,0,0,0,1.53-.88l.66-1.16a16.1,16.1,0,0,0,2.08-6.61,5.87,5.87,0,0,1,.75-2.38l1-1.75a8.3,8.3,0,0,0,1.11-4.15,7.85,7.85,0,0,0-1-4A5.17,5.17,0,0,0,23.74,0a5.59,5.59,0,0,0-.91.08L19.47.67,16.1.08A5.52,5.52,0,0,0,15.18,0a5.18,5.18,0,0,0-4.5,2.55,7.93,7.93,0,0,0-1,4,8.4,8.4,0,0,0,1.11,4.15Zm.28-9.07A3.54,3.54,0,0,1,15.19,1.6a3.28,3.28,0,0,1,.63.06l3.51.62a1.31,1.31,0,0,0,.28,0l3.5-.62a3.39,3.39,0,0,1,.64-.06,3.57,3.57,0,0,1,3.11,1.75,6.33,6.33,0,0,1,.77,3.17,6.8,6.8,0,0,1-.89,3.35l-1,1.76a7.33,7.33,0,0,0-1,3,14.41,14.41,0,0,1-1.87,5.95l-.66,1.16A.16.16,0,0,1,22,21.7V19.87a8.62,8.62,0,0,0-.54-3l-.27-.71a1.83,1.83,0,0,0-3.44,0l-.27.77A8.72,8.72,0,0,0,17,19.76V21.7a.15.15,0,0,1-.28.07L16,20.61a14.55,14.55,0,0,1-1.87-5.95,7.33,7.33,0,0,0-1-3l-1-1.76a6.8,6.8,0,0,1-.89-3.35A6.21,6.21,0,0,1,12.08,3.35Z"/>
        <path class="cls-1" d="M13.77,7.61h0a.8.8,0,0,0,.8-.8,2.17,2.17,0,0,1,.37-1.25l.1-.12a1.77,1.77,0,0,1,1.75-.54l2.12.46a.8.8,0,1,0,.35-1.57l-2.12-.46A3.38,3.38,0,0,0,13.81,4.4l-.16.21A3.66,3.66,0,0,0,13,6.81.8.8,0,0,0,13.77,7.61Z"/>
      </g>
    </g>
  </g>
</svg>
