<svg xmlns="http://www.w3.org/2000/svg" viewBox="0 0 33 41.19" width="33" height="41">
  <defs>
    <style>
      .cls-1 {
        fill: #ff5274;
      }
    </style>
  </defs>
  <title>fact-1</title>
  <g id="Layer_2" data-name="Layer 2">
    <g id="Ñëîé_2" data-name="Ñëîé 2">
      <path class="cls-1" d="M29.92,41.19H3.07A3.08,3.08,0,0,1,0,38.12v-32A3.09,3.09,0,0,1,3.07,3H6.19a.86.86,0,1,1,0,1.72H3.07A1.36,1.36,0,0,0,1.72,6.12v32a1.34,1.34,0,0,0,1.35,1.35H29.92a1.35,1.35,0,0,0,1.36-1.35v-32a1.38,1.38,0,0,0-1.36-1.37H27.5A.86.86,0,1,1,27.5,3h2.42A3.09,3.09,0,0,1,33,6.12v32A3.08,3.08,0,0,1,29.92,41.19Z"/>
      <g>
        <path class="cls-1" d="M9.25,15.37a.86.86,0,0,1-.53-.19l-.05,0a.86.86,0,0,1,.84-1.49A.91.91,0,0,1,10,14a.87.87,0,0,1-.72,1.33Zm.24-.09a.8.8,0,0,1-.26.05A.85.85,0,0,0,9.49,15.28Zm-.33-1.67-.22,0Z"/>
        <path class="cls-1" d="M9.25,20.49a.85.85,0,0,1-.53-.18l-.05,0a.87.87,0,0,1-.22-1.2.86.86,0,0,1,1.06-.3.91.91,0,0,1,.46.38.87.87,0,0,1-.72,1.33Zm-.09-1.76a1,1,0,0,0-.22.05Z"/>
        <path class="cls-1" d="M9.25,25.31a.85.85,0,0,1-.53-.18l-.05,0a.86.86,0,0,1,.83-1.5A.9.9,0,0,1,10,24a.85.85,0,0,1-.26,1.18A.78.78,0,0,1,9.25,25.31Zm0,0a.61.61,0,0,0,.29-.05A.72.72,0,0,1,9.21,25.27Zm-.1-1.71-.18,0Z"/>
        <path class="cls-1" d="M9.25,30.13A.85.85,0,0,1,8.72,30l-.05,0a.86.86,0,0,1,.83-1.5.9.9,0,0,1,.47.39A.86.86,0,0,1,9.71,30,.84.84,0,0,1,9.25,30.13Zm.25-.08a1,1,0,0,1-.28,0A1,1,0,0,0,9.5,30.05Zm-.36-1.67-.2,0Z"/>
        <path class="cls-1" d="M23,15.41H12.72a.86.86,0,1,1,0-1.72H23a.86.86,0,0,1,0,1.72Z"/>
        <path class="cls-1" d="M23.38,20.56H13.06a.86.86,0,1,1,0-1.71H23.38a.86.86,0,0,1,0,1.71Z"/>
        <path class="cls-1" d="M23.38,25.38H13.06a.86.86,0,0,1,0-1.72H23.38a.86.86,0,0,1,0,1.72Z"/>
        <path class="cls-1" d="M23.38,30.19H13.06a.86.86,0,1,1,0-1.72H23.38a.86.86,0,0,1,0,1.72Z"/>
      </g>
      <path class="cls-1" d="M25,8.53H9.14a.85.85,0,0,1-.86-.77C8.06,5.47,8.7,1,12.67.28A28.53,28.53,0,0,1,17.15,0,24.23,24.23,0,0,1,22,.36c4.15,1,3.8,7.11,3.78,7.37A.86.86,0,0,1,25,8.53ZM10,6.81H24.1c-.05-1.42-.42-4.27-2.48-4.78a23.8,23.8,0,0,0-4.47-.31A27.71,27.71,0,0,0,13,2C10.38,2.42,10,5.38,10,6.81Z"/>
      <path class="cls-1" d="M26.84,37.41H6.3a2.77,2.77,0,0,1-2.52-2.93V9.33A2.42,2.42,0,0,1,6.3,6.81h.58a.86.86,0,0,1,0,1.72H6.3a.72.72,0,0,0-.8.8V34.48c0,.56.35,1.21.8,1.21H26.84c.43,0,.66-.71.66-1.21V9.33c0-.84-.48-.86-.63-.87A.86.86,0,1,1,27,6.74a2.4,2.4,0,0,1,2.25,2.59V34.48C29.22,35.9,28.38,37.41,26.84,37.41Z"/>
    </g>
  </g>
</svg>
