<svg xmlns="http://www.w3.org/2000/svg" viewBox="0 0 45 39.47" width="45" height="39">
  <defs>
    <style>
      .cls-1 {
        fill: #ff5274;
      }
    </style>
  </defs>
  <title>fact-6</title>
  <g id="Layer_2" data-name="Layer 2">
    <g id="Ñëîé_1" data-name="Ñëîé 1">
      <g>
        <g>
          <path class="cls-1" d="M20.93,39.47A2.46,2.46,0,0,1,18.47,37V33.83a12.78,12.78,0,0,0-.8-4.45l-.46-1.23a1,1,0,0,0-.91-.64,1,1,0,0,0-.92.66l-.46,1.33a12.79,12.79,0,0,0-.7,4.16V37a2.46,2.46,0,0,1-4.59,1.23l-1.16-2A27.51,27.51,0,0,1,5,25a10.71,10.71,0,0,0-1.38-4.36l-1.73-3A14,14,0,0,1,0,10.71,13,13,0,0,1,1.64,4.12,8.37,8.37,0,0,1,8.93,0a8.25,8.25,0,0,1,1.49.13L16.49,1.2a.81.81,0,0,1-.28,1.59L10.14,1.72a7,7,0,0,0-1.2-.11A6.77,6.77,0,0,0,3,4.92a11.55,11.55,0,0,0-1.42,5.79,12.26,12.26,0,0,0,1.63,6.11l1.73,3a12.26,12.26,0,0,1,1.59,5A25.57,25.57,0,0,0,9.87,35.42l1.15,2a.87.87,0,0,0,.74.43.85.85,0,0,0,.85-.85V33.66A14.32,14.32,0,0,1,13.39,29l.46-1.34a2.59,2.59,0,0,1,4.87-.06l.46,1.24a14.31,14.31,0,0,1,.9,5V37a.85.85,0,0,0,1.59.42.81.81,0,1,1,1.4.81A2.48,2.48,0,0,1,20.93,39.47Z"/>
          <path class="cls-1" d="M31.58,14.34a.55.55,0,0,1-.18,0,.8.8,0,0,1-.61-1,12.44,12.44,0,0,0,.29-2.65,11.52,11.52,0,0,0-1.42-5.78,6.76,6.76,0,0,0-5.9-3.32,7,7,0,0,0-1.21.11L16.49,2.79a.82.82,0,0,1-.94-.66.82.82,0,0,1,.66-.93L22.27.13A8.22,8.22,0,0,1,23.75,0a8.36,8.36,0,0,1,7.31,4.13,13.1,13.1,0,0,1,1.63,6.58,13.79,13.79,0,0,1-.33,3A.79.79,0,0,1,31.58,14.34Z"/>
          <path class="cls-1" d="M5.68,10.22a.81.81,0,0,1-.81-.81A5.8,5.8,0,0,1,5.94,6l.26-.33A5.24,5.24,0,0,1,11.39,4l3.67.8a.81.81,0,0,1-.35,1.58L11,5.53A3.67,3.67,0,0,0,7.43,6.66l-.19.24a4.26,4.26,0,0,0-.75,2.51A.81.81,0,0,1,5.68,10.22Z"/>
        </g>
        <g>
          <path class="cls-1" d="M26.13,32.74H26a.81.81,0,0,1-.65-.93l.2-1.2-5.62-5.48a.81.81,0,0,1,.44-1.38l7.78-1.13,3.47-7a.81.81,0,0,1,1.45,0l3.48,7,1.46.21a.82.82,0,0,1,.68.92.8.8,0,0,1-.91.68l-1.89-.27a.83.83,0,0,1-.6-.44l-2.94-6-2.94,6a.84.84,0,0,1-.61.44l-6.58,1L27,29.74a.79.79,0,0,1,.23.71l-.27,1.62A.81.81,0,0,1,26.13,32.74Z"/>
          <path class="cls-1" d="M39.66,39.28a.84.84,0,0,1-.37-.09l-6.95-3.65-7,3.65a.82.82,0,0,1-.85-.06.83.83,0,0,1-.32-.79l.43-2.47a.81.81,0,1,1,1.59.27l-.15.87L32,33.91a.83.83,0,0,1,.75,0L38.59,37l-1.12-6.56a.82.82,0,0,1,.23-.71l4.76-4.64L41,24.88a.8.8,0,0,1,.23-1.59l3.12.45a.82.82,0,0,1,.65.55.8.8,0,0,1-.2.83L39.13,30.6l1.33,7.74a.81.81,0,0,1-.32.79A.83.83,0,0,1,39.66,39.28Z"/>
        </g>
      </g>
    </g>
  </g>
</svg>
