<svg xmlns="http://www.w3.org/2000/svg" viewBox="0 0 36 35.15" width="36" height="35">
  <defs>
    <style>
      .cls-1 {
        fill: #ff5274;
      }
    </style>
  </defs>
  <title>info-link-4</title>
  <g id="Layer_2" data-name="Layer 2">
    <g id="Calque_2" data-name="Calque 2">
      <g>
        <path class="cls-1" d="M29.08,33.72H9.35V31.8H29.08a2.25,2.25,0,0,0,2.17-1.49L33,31.1A4.19,4.19,0,0,1,29.08,33.72Z"/>
        <path class="cls-1" d="M9.84,15.33,9.3,13.49c1.93-.57,8.24-3,8.24-10.42V3A3.22,3.22,0,0,1,20.85,0a3.27,3.27,0,0,1,2.4.55,3.87,3.87,0,0,1,1.43,2.9A21.83,21.83,0,0,1,24,11.67h9.25a2.51,2.51,0,0,1,2.53,1.85l-1.8.66c-.21-.58-.51-.61-.51-.61h0l-.16,0H21l.69-1.39c1.64-3.28,1.06-8.45,1.05-8.5a2.21,2.21,0,0,0-.64-1.55,1.43,1.43,0,0,0-1-.22l-.19,0a1.34,1.34,0,0,0-1.49,1.17C19.42,11.8,12.09,14.66,9.84,15.33Z"/>
        <polygon class="cls-1" points="6.83 35.15 0 35.15 0 33.24 4.91 33.24 4.91 14.78 0.52 14.78 0.52 12.86 6.83 12.86 6.83 35.15"/>
        <g>
          <path class="cls-1" d="M32.32,18.85h-1a1,1,0,1,1,0-1.91h1a1,1,0,1,1,0,1.91Z"/>
          <path class="cls-1" d="M32.27,18.85h-.08l0-1.91h.05a1.67,1.67,0,0,0,1.84-1.46l1.89.34A3.58,3.58,0,0,1,32.27,18.85Z"/>
        </g>
        <g>
          <path class="cls-1" d="M31.73,23.87h-1a1,1,0,0,1,0-1.92h1a1,1,0,1,1,0,1.92Z"/>
          <path class="cls-1" d="M31.68,23.87H31.6l0-1.92h0a1.67,1.67,0,0,0,1.85-1.46l1.88.35A3.57,3.57,0,0,1,31.68,23.87Z"/>
        </g>
        <g>
          <path class="cls-1" d="M30.5,28.94h-1a1,1,0,0,1,0-1.92h1a1,1,0,0,1,0,1.92Z"/>
          <path class="cls-1" d="M30.44,28.94h-.08l0-1.92a1.69,1.69,0,0,0,1.9-1.46l1.88.35A3.58,3.58,0,0,1,30.44,28.94Z"/>
        </g>
      </g>
    </g>
  </g>
</svg>
