<svg xmlns="http://www.w3.org/2000/svg" viewBox="0 0 52 43.1" width="52" height="43">
  <defs>
    <style>
      .cls-1 {
        fill: #ff5274;
      }
    </style>
  </defs>
  <title>info-link-1</title>
  <g id="Layer_2" data-name="Layer 2">
    <g id="Calque_4" data-name="Calque 4">
      <g>
        <path class="cls-1" d="M10.09,20.82a1.62,1.62,0,1,0,1.62,1.62A1.63,1.63,0,0,0,10.09,20.82Z"/>
        <circle class="cls-1" cx="15.69" cy="22.44" r="1.62"/>
        <circle class="cls-1" cx="21.3" cy="22.44" r="1.62"/>
        <path class="cls-1" d="M46.9,0H25.71A5.11,5.11,0,0,0,20.6,5.1V8.24h2.14V5.1a3,3,0,0,1,3-3H46.9a3,3,0,0,1,3,3V19.25a3,3,0,0,1-3,3h-2a1.06,1.06,0,0,0-1.07,1.06v5.58l-5.4-6.27a1.07,1.07,0,0,0-.81-.37H33.54v2.13h3.62l7,8.08a1.07,1.07,0,0,0,.81.37,1,1,0,0,0,.37-.07,1.06,1.06,0,0,0,.7-1V24.35h.9a5.11,5.11,0,0,0,5.1-5.1V5.1A5.11,5.11,0,0,0,46.9,0Z"/>
        <path class="cls-1" d="M26.29,10.3H5.1A5.11,5.11,0,0,0,0,15.4V29.55a5.11,5.11,0,0,0,5.1,5.1H6V42a1.06,1.06,0,0,0,.7,1,1,1,0,0,0,.37.07,1.08,1.08,0,0,0,.81-.37l7-8.08H26.29a5.11,5.11,0,0,0,5.11-5.1V15.4A5.11,5.11,0,0,0,26.29,10.3Zm3,19.25a3,3,0,0,1-3,3H14.35a1.07,1.07,0,0,0-.81.37l-5.4,6.27V33.59a1.07,1.07,0,0,0-1.07-1.07h-2a3,3,0,0,1-3-3V15.4a3,3,0,0,1,3-3H26.29a3,3,0,0,1,3,3Z"/>
        <circle class="cls-1" cx="36" cy="12.13" r="1.62"/>
        <circle class="cls-1" cx="41.6" cy="12.13" r="1.62"/>
      </g>
    </g>
  </g>
</svg>
