<svg xmlns="http://www.w3.org/2000/svg" viewBox="0 0 42 35.95" width="42" height="36">
  <defs>
    <style>
      .cls-1 {
        fill: #ff5274;
      }
    </style>
  </defs>
  <title>info-link-3</title>
  <g id="Layer_2" data-name="Layer 2">
    <g id="Isolation_Mode" data-name="Isolation Mode">
      <g>
        <path class="cls-1" d="M38.56,0h0a3.49,3.49,0,0,0-3.29,3.72v8.87h2V3.71a1.49,1.49,0,0,1,1.26-1.66A1.56,1.56,0,0,1,40,3.69V20.56l-7.65,10c-.26.31-1.11,1.61-.85,5.39l2.05-.14c-.21-3,.39-3.95.39-4l7.9-10.31a1,1,0,0,0,.21-.62V3.68A3.58,3.58,0,0,0,38.56,0Z"/>
        <path class="cls-1" d="M36.66,16.24a1,1,0,0,1,.27.69,3,3,0,0,1-.87,2l-4.35,4.71L33.22,25l4.35-4.71A5,5,0,0,0,39,16.84a3,3,0,0,0-.93-2.11c-1.41-1.3-3.85-.89-5.54.94L29.44,19a26.12,26.12,0,0,1-3.29,2.84C26,22,22,24.29,22,28v8h2.05V28c0-2.47,3.09-4.31,3.17-4.36a29,29,0,0,0,3.7-3.17L34,17.06C35,16.06,36.18,15.8,36.66,16.24Z"/>
        <path class="cls-1" d="M2.05,20.56V3.7A1.56,1.56,0,0,1,3.44,2.05h0A1.49,1.49,0,0,1,4.7,3.72v8.87H6.75V3.73A3.49,3.49,0,0,0,3.45,0h0A3.58,3.58,0,0,0,0,3.69V20.91a1,1,0,0,0,.21.62L8.1,31.84s.61.95.4,4l2.05.14c.26-3.78-.59-5.08-.81-5.34Z"/>
        <path class="cls-1" d="M15.91,21.88A26.33,26.33,0,0,1,12.58,19L9.49,15.67C7.8,13.84,5.37,13.43,4,14.73A3,3,0,0,0,3,16.84a5,5,0,0,0,1.41,3.49L8.78,25l1.51-1.39L5.94,18.94a3,3,0,0,1-.87-2,1,1,0,0,1,.27-.69c.48-.44,1.71-.18,2.64.82l3.11,3.38a28.79,28.79,0,0,0,3.73,3.18s3.12,1.86,3.12,4.33v8H20V28C20,24.29,16,22,15.91,21.88Z"/>
      </g>
    </g>
  </g>
</svg>
