<svg xmlns="http://www.w3.org/2000/svg" viewBox="0 0 52 47.81" width="52" height="48">
  <defs>
    <style>
      .cls-1 {
        fill: #ff5274;
      }
    </style>
  </defs>
  <title>info-link-2</title>
  <g id="Layer_2" data-name="Layer 2">
    <g id="Calque_3" data-name="Calque 3">
      <g>
        <path class="cls-1" d="M19.6,15.68A2.22,2.22,0,0,1,22,13.55H30A2.22,2.22,0,0,1,32.4,15.7l.45,4.23,2-.21-.44-4.2a4.22,4.22,0,0,0-4.36-4H22a4.21,4.21,0,0,0-4.36,3.95l-.44,4.22,2,.21Z"/>
        <path class="cls-1" d="M22.93,8.42a4.76,4.76,0,1,0-.56-6.71h0A4.76,4.76,0,0,0,22.93,8.42Zm1-5.42a2.77,2.77,0,0,1,3.89-.33,2.73,2.73,0,0,1,1,1.88,2.76,2.76,0,0,1-4.53,2.34A2.76,2.76,0,0,1,23.89,3Z"/>
        <path class="cls-1" d="M12.36,9.51A4.75,4.75,0,0,0,16,1.68,4.69,4.69,0,0,0,12.75,0a4.75,4.75,0,1,0-.39,9.49ZM10.57,2.65A2.79,2.79,0,0,1,12.35,2h.23a2.74,2.74,0,0,1,1.88,1h0a2.76,2.76,0,1,1-3.89-.32Z"/>
        <path class="cls-1" d="M51.84,27.44l0-.19c-.08-.66-.16-1.42-.25-2.23-.64-5.64-1.2-10.07-2.16-11.59a6.66,6.66,0,0,0-4.6-3.06,4.07,4.07,0,0,0-2.95.43c-1.56,1.26-2,3.06-3,7.42-.19.82-.41,1.74-.66,2.77L29,23.21l.43,1.8H22.58l.43-1.8L13.82,21c-.25-1-.47-1.95-.66-2.77-1-4.36-1.45-6.16-3-7.42a4.07,4.07,0,0,0-2.95-.43,6.66,6.66,0,0,0-4.6,3.06C1.64,15,1.08,19.38.44,25c-.09.81-.17,1.57-.25,2.23l0,.18c-.24,1.95-.88,7.13,4.13,7.82h9.57l3,12.56,1.95-.46L15.44,33.26H4.5C2,32.88,1.76,30.84,2.15,27.68l0-.19c.08-.66.17-1.42.26-2.25.4-3.55,1.07-9.49,1.86-10.74A4.58,4.58,0,0,1,8.9,12.35c1,.83,1.4,2.44,2.31,6.33.23,1,.5,2.1.81,3.38l.14.59L22,25H10.72L8.57,18.24a1,1,0,0,0-1.91.6l1.18,3.7L7,27.88A1,1,0,0,0,7.83,29l9,1.54A2,2,0,0,1,18.17,32l2.59,15.17,2-.33-2.6-15.22a4,4,0,0,0-2.93-3L9.14,27.22l0-.21H25V46.77h2V27H42.83l0,.21-8.11,1.39a4,4,0,0,0-2.89,3.05L29.27,46.83l2,.33L33.82,32a2,2,0,0,1,1.32-1.47l9-1.55A1,1,0,0,0,45,27.88l-.83-5.34,1.18-3.7a1,1,0,0,0-1.91-.6L41.28,25H30l9.81-2.36.14-.59c.31-1.28.58-2.4.81-3.38.91-3.89,1.28-5.5,2.27-6.3a4.51,4.51,0,0,1,4.65,2.12c.79,1.25,1.46,7.19,1.86,10.74.09.83.18,1.59.26,2.25l0,.19c.39,3.16.14,5.2-2.35,5.58H36.56L33.21,47.35l1.95.46,3-12.56h9.57C52.72,34.56,52.08,29.39,51.84,27.44Z"/>
        <path class="cls-1" d="M36.57,8.39a4.76,4.76,0,1,0,6.15-7.27,4.77,4.77,0,0,0-6.7.56A4.77,4.77,0,0,0,36.57,8.39Zm1-5.42h0a2.74,2.74,0,0,1,1.88-1h.23a2.76,2.76,0,1,1-2.11,1Z"/>
      </g>
    </g>
  </g>
</svg>
