<svg xmlns="http://www.w3.org/2000/svg" viewBox="0 0 57 30.73" width="57" height="31">
  <defs>
    <style>
      .cls-1 {
        fill: #ff5274;
      }
    </style>
  </defs>
  <title>pop-service-1</title>
  <g id="Layer_2" data-name="Layer 2">
    <g id="Ñëîé_1" data-name="Ñëîé 1">
      <g>
        <path class="cls-1" d="M4.51,14.56,6.26,14c.27,1.5.53,3,.76,4.52a4.35,4.35,0,0,0,3.9,3.78H11l.44,0a4.78,4.78,0,0,0,.66,0,4.37,4.37,0,0,0,3.79-3.7L17,11.71l.53-.07c.34,1.85.68,3.74,1,5.61A4.35,4.35,0,0,0,22.34,21l.07-.86,0,.86.44,0a4.87,4.87,0,0,0,.66,0,4.37,4.37,0,0,0,3.79-3.7l1-6.45h.46v0c.38,2.08.77,4.24,1.08,6.36A4.36,4.36,0,0,0,33.76,21l.07-.86,0,.86.44,0a4.87,4.87,0,0,0,.66,0,4.35,4.35,0,0,0,3.78-3.7l.91-5.7.46.07c0,.23.09.47.13.7.38,2.09.77,4.25,1.08,6.36a4.36,4.36,0,0,0,3.91,3.78h.49q.33,0,.66,0a4.36,4.36,0,0,0,3.78-3.7L50.88,14c.75.22,1.5.44,2.24.68a.82.82,0,0,0,.26,0A.87.87,0,0,0,53.65,13c-.83-.27-1.66-.52-2.5-.75l1-6.37A3.38,3.38,0,0,0,50,2.17a12.42,12.42,0,0,0-4-.68,16.11,16.11,0,0,0-4.53.72,3.84,3.84,0,0,0-.91.44,3.35,3.35,0,0,0-2-2,12.42,12.42,0,0,0-4-.68h-.07a15.28,15.28,0,0,0-4.46.72,3.46,3.46,0,0,0-1.5.94,3.37,3.37,0,0,0-1.44-1A12.42,12.42,0,0,0,23.16,0H23.1a15.36,15.36,0,0,0-4.47.72,3.46,3.46,0,0,0-2.06,1.73A3.1,3.1,0,0,0,15.69,2a12.42,12.42,0,0,0-3.95-.68h-.06A15.36,15.36,0,0,0,7.21,2,3.39,3.39,0,0,0,4.83,5.76c.33,2.15.72,4.32,1.1,6.43l0,.13c-.65.19-1.31.38-2,.59a.87.87,0,1,0,.52,1.65Zm9.63,3.78a2.62,2.62,0,0,1-2.25,2.25,4.55,4.55,0,0,1-.83,0,2.66,2.66,0,0,1-2.33-2.31c-.24-1.57-.51-3.16-.79-4.72,2.38-.64,4.79-1.16,7.21-1.57ZM25.56,17a2.62,2.62,0,0,1-2.25,2.25,3.8,3.8,0,0,1-.83,0A2.66,2.66,0,0,1,20.15,17c-.28-1.86-.61-3.74-.95-5.58,2.44-.28,4.89-.46,7.34-.52ZM37,17a2.63,2.63,0,0,1-2.25,2.25,3.81,3.81,0,0,1-.83,0A2.65,2.65,0,0,1,31.57,17c-.31-2-.68-4.1-1-6.11q3.69.09,7.35.51ZM48.4,18.53a2.63,2.63,0,0,1-2.26,2.25,3.71,3.71,0,0,1-.82,0A2.65,2.65,0,0,1,43,18.48c-.32-2.14-.72-4.31-1.1-6.41l0-.11c2.46.41,4.91.93,7.33,1.58ZM42,3.87a13.35,13.35,0,0,1,4-.64,10.37,10.37,0,0,1,3.39.58,1.64,1.64,0,0,1,1.07,1.83l-1,6.17c-2.62-.68-5.26-1.24-7.92-1.66-.27-1.48-.53-3-.75-4.46A1.66,1.66,0,0,1,42,3.87ZM30.57,2.37a13.69,13.69,0,0,1,3.94-.64h.06A10.65,10.65,0,0,1,38,2.32,1.64,1.64,0,0,1,39,4.15l-.88,5.53q-3.94-.46-7.94-.54c-.29-1.63-.58-3.3-.83-4.94A1.67,1.67,0,0,1,30.57,2.37Zm-11.42,0a13.7,13.7,0,0,1,4-.64h0a10.65,10.65,0,0,1,3.39.59,1.64,1.64,0,0,1,1.07,1.83l-.79,5c-2.66,0-5.3.24-7.92.55C18.57,7.88,18.24,6,18,4.2A1.67,1.67,0,0,1,19.15,2.37ZM6.55,5.5A1.66,1.66,0,0,1,7.73,3.67,13.7,13.7,0,0,1,11.68,3h.05a10.38,10.38,0,0,1,3.39.59,1.64,1.64,0,0,1,1.07,1.83l-.75,4.74c-2.63.43-5.23,1-7.81,1.67C7.25,9.77,6.86,7.62,6.55,5.5Z"/>
        <path class="cls-1" d="M56.45,21.39a.86.86,0,0,0-1.12.48l-1.4,3.54A5.66,5.66,0,0,1,48.64,29H8a5.71,5.71,0,0,1-5.5-4.2L1.7,22a.85.85,0,0,0-1.06-.61A.86.86,0,0,0,0,22.42l.76,2.82A7.44,7.44,0,0,0,8,30.73H48.64A7.39,7.39,0,0,0,55.54,26l1.4-3.53A.86.86,0,0,0,56.45,21.39Z"/>
      </g>
    </g>
  </g>
</svg>
