<svg xmlns="http://www.w3.org/2000/svg" viewBox="0 0 57 38.82" width="57" height="39">
  <defs>
    <style>
      .cls-1 {
        fill: #ff5274;
      }
    </style>
  </defs>
  <title>pop-service-2</title>
  <g id="Layer_2" data-name="Layer 2">
    <g id="Ñëîé_1" data-name="Ñëîé 1">
      <g>
        <path class="cls-1" d="M8.05,10.05c.42,1.14.84,2.33,1.18,3.5l.15.53a1,1,0,0,0,.57.65,1,1,0,0,0,.87,0A7.23,7.23,0,0,1,13,13.94a7.33,7.33,0,0,1,3.75.35,1,1,0,1,0,.69-1.89A9.31,9.31,0,0,0,12.66,12a8.77,8.77,0,0,0-1.67.45c-.32-1-.69-2.06-1.05-3.05L9.81,9a6.6,6.6,0,0,1-.39-2.24,6.08,6.08,0,0,1,.75-3.08,3.38,3.38,0,0,1,3-1.66,2.91,2.91,0,0,1,.6.06l3.52.62a1,1,0,0,0,.35,0l3.53-.62A2.81,2.81,0,0,1,21.72,2a3.37,3.37,0,0,1,3,1.65A5.54,5.54,0,0,1,25.2,5a6.78,6.78,0,0,1,.23,1.78A6.56,6.56,0,0,1,25,9c-.13.34-.23.63-.34.91-.31.84-.58,1.56-1.08,3.23-.05.17-.09.31-.12.4a1,1,0,0,0,.7,1.24.84.84,0,0,0,.27,0,1,1,0,0,0,1-.73l.11-.38c.48-1.59.72-2.26,1-3.1l.34-.93a8.55,8.55,0,0,0,.51-2.92,9,9,0,0,0-.29-2.3,7.57,7.57,0,0,0-.73-1.79A5.4,5.4,0,0,0,21.72,0a5.8,5.8,0,0,0-.95.08l-3.35.6L14.09.09a5.07,5.07,0,0,0-1-.09,5.39,5.39,0,0,0-4.7,2.67,8.13,8.13,0,0,0-1,4.08,8.55,8.55,0,0,0,.51,2.92Z"/>
        <path class="cls-1" d="M31.37,10.61c.32.84.56,1.5,1,3.09l.11.37h0a1,1,0,0,0,1.24.69,1,1,0,0,0,.69-1.26l-.11-.39c-.5-1.65-.77-2.38-1.08-3.22-.11-.27-.21-.57-.34-.91a6.56,6.56,0,0,1-.39-2.24A7.37,7.37,0,0,1,32.75,5a6.15,6.15,0,0,1,.54-1.3,3.37,3.37,0,0,1,3-1.65,3,3,0,0,1,.6.06l3.52.62a1,1,0,0,0,.35,0l3.52-.62A2.93,2.93,0,0,1,44.84,2a3.38,3.38,0,0,1,2.95,1.66,6.08,6.08,0,0,1,.75,3.08A6.6,6.6,0,0,1,48.15,9L48,9.38c-.36,1-.73,2-1,3A8.67,8.67,0,0,0,45.29,12a9.27,9.27,0,0,0-4.77.44,1,1,0,1,0,.68,1.89A7.35,7.35,0,0,1,45,13.94a7.2,7.2,0,0,1,2.19.75,1,1,0,0,0,.47.12,1,1,0,0,0,.39-.08,1,1,0,0,0,.58-.65l.15-.53c.33-1.17.76-2.35,1.17-3.49L50,9.67a8.56,8.56,0,0,0,.52-2.92,8.13,8.13,0,0,0-1-4.08A5.39,5.39,0,0,0,44.83,0a5.8,5.8,0,0,0-.95.08l-3.35.6L37.2.09a5.07,5.07,0,0,0-1-.09,5.4,5.4,0,0,0-4.69,2.66,7.26,7.26,0,0,0-.73,1.78,8.71,8.71,0,0,0-.29,2.31A8.55,8.55,0,0,0,31,9.67C31.15,10,31.27,10.32,31.37,10.61Z"/>
        <path class="cls-1" d="M52.65,19.05,52,19a10.37,10.37,0,0,0-4.17.75,5.37,5.37,0,0,0-3.76-1.47,5.07,5.07,0,0,0-.86.07l-3,.46-3.05-.46a4.91,4.91,0,0,0-.86-.07,5.41,5.41,0,0,0-3.66,1.37,7.71,7.71,0,0,0-7.7,0,5.41,5.41,0,0,0-3.66-1.38,4.91,4.91,0,0,0-.86.07l-3.05.46-3-.46a4.91,4.91,0,0,0-.86-.07,5.4,5.4,0,0,0-3.66,1.38A8.86,8.86,0,0,0,4,18.61H3.89A4.85,4.85,0,0,0,0,23.43V36.36a1,1,0,1,0,2,0V23.43A2.84,2.84,0,0,1,4.3,20.6a6.75,6.75,0,0,1,4.34.74,6.22,6.22,0,0,0-.48,2.42,6.3,6.3,0,0,0,1.08,3.49l.92,1.37a3.5,3.5,0,0,1,.61,1.66,12,12,0,0,0,2,5.36l.61.91a1.92,1.92,0,0,0,1.59.82,1.82,1.82,0,0,0,1.88-1.76v-1.5a4.33,4.33,0,0,1,.32-1.62l.2-.49.19.45a4.21,4.21,0,0,1,.37,1.73v1.43a1.82,1.82,0,0,0,1.88,1.76,1.92,1.92,0,0,0,1.59-.82l.61-.91a11.73,11.73,0,0,0,2-5.36,3.5,3.5,0,0,1,.61-1.66l.92-1.37a6.22,6.22,0,0,0,1.08-3.49,6.06,6.06,0,0,0-.48-2.43,5.67,5.67,0,0,1,5.4,0A6.06,6.06,0,0,0,31,23.76a6.22,6.22,0,0,0,1.08,3.49L33,28.62a3.61,3.61,0,0,1,.61,1.66,11.73,11.73,0,0,0,2,5.36l.61.91a1.9,1.9,0,0,0,1.59.82,1.82,1.82,0,0,0,1.88-1.76v-1.5A4.53,4.53,0,0,1,40,32.49l.2-.49.2.45a4.36,4.36,0,0,1,.36,1.73v1.43a1.83,1.83,0,0,0,1.88,1.76,1.92,1.92,0,0,0,1.6-.82l.6-.91a11.73,11.73,0,0,0,2-5.36,3.63,3.63,0,0,1,.62-1.66l.91-1.37A6.29,6.29,0,0,0,49,21.49,8.08,8.08,0,0,1,52,21a4.07,4.07,0,0,1,.5,0A2.87,2.87,0,0,1,55,23.93V37.81a1,1,0,1,0,2,0V23.93A4.9,4.9,0,0,0,52.65,19.05ZM23.8,26.13l-.91,1.37a5.68,5.68,0,0,0-.95,2.57,9.71,9.71,0,0,1-1.63,4.45l-.4.59v-.93a6.34,6.34,0,0,0-.53-2.53l-.24-.56a2,2,0,0,0-3.63.05l-.24.6a6.25,6.25,0,0,0-.46,2.37v1l-.4-.59a9.71,9.71,0,0,1-1.63-4.45,5.68,5.68,0,0,0-.95-2.57l-.91-1.37a4.2,4.2,0,0,1-.74-2.37,3.94,3.94,0,0,1,.63-2.23,3.18,3.18,0,0,1,2.65-1.22,3.39,3.39,0,0,1,.55,0l3.2.48a1.5,1.5,0,0,0,.3,0l3.2-.48a3.43,3.43,0,0,1,.56,0,3.16,3.16,0,0,1,2.64,1.23,3.91,3.91,0,0,1,.64,2.22A4.21,4.21,0,0,1,23.8,26.13Zm22.84,0-.92,1.37a5.78,5.78,0,0,0-.94,2.57,9.62,9.62,0,0,1-1.64,4.45l-.39.59v-.93a6.34,6.34,0,0,0-.53-2.53L42,31.09a2,2,0,0,0-3.62.05l-.24.6a6.25,6.25,0,0,0-.46,2.37v1l-.4-.59a9.89,9.89,0,0,1-1.64-4.45,5.66,5.66,0,0,0-.94-2.57l-.92-1.37A4.28,4.28,0,0,1,33,23.76a4,4,0,0,1,.64-2.23,3.18,3.18,0,0,1,2.64-1.22,3.52,3.52,0,0,1,.56,0l3.2.48a1.5,1.5,0,0,0,.3,0l3.19-.48a3.64,3.64,0,0,1,.57,0,3.16,3.16,0,0,1,2.64,1.23,3.91,3.91,0,0,1,.63,2.22A4.28,4.28,0,0,1,46.64,26.13Z"/>
      </g>
    </g>
  </g>
</svg>
