<svg xmlns="http://www.w3.org/2000/svg" viewBox="0 0 46 50.74" width="46" height="51">
  <defs>
    <style>
      .cls-1 {
        fill: #ff5274;
      }
    </style>
  </defs>
  <title>pop-service-3</title>
  <g id="Layer_2" data-name="Layer 2">
    <g id="Ñëîé_1" data-name="Ñëîé 1">
      <g>
        <path class="cls-1" d="M33,46.76c-4.29,2.84-10.7,2.15-13,1.78.45-3.48-.93-4.77-1.1-4.91a.93.93,0,0,0-1.31.09A.9.9,0,0,0,17.69,45s1,1,.37,4.1a.91.91,0,0,0,.7,1.07,27,27,0,0,0,5.64.57A17.53,17.53,0,0,0,34,48.29a.92.92,0,1,0-1-1.53Z"/>
        <path class="cls-1" d="M14.79,41.67a10.48,10.48,0,0,1-5,.75,18.91,18.91,0,0,1-3.12-.55.66.66,0,0,1-.43-.37.52.52,0,0,1,0-.44,3,3,0,0,0,.9-3.64,2.42,2.42,0,0,0-1.26-1c-.11,0-.19-.16-.17-.22v0a.61.61,0,0,1,.47-.39H8.38a.92.92,0,0,0,0-1.84H6.25l-.53-.15a.27.27,0,0,1-.18-.18.49.49,0,0,1,0-.2,2.89,2.89,0,0,0,.52-1.62l.07-2.17a.89.89,0,0,0-.26-.67.91.91,0,0,0-.66-.28H2.42c.4-.76.84-1.53,1.26-2.28l1-1.81A11.06,11.06,0,0,0,6,20a6.88,6.88,0,0,0,0-1.36,12.31,12.31,0,0,1-.12-1.58,9.86,9.86,0,0,1,.28-2.4,17.36,17.36,0,0,1,4.7-8.27c7.06-6.79,17.32-4,17.75-3.87a15,15,0,0,1,9.2,6.76,16,16,0,0,1,2.13,10,20.51,20.51,0,0,1-.78,3.17.92.92,0,0,0,1.74.58,22,22,0,0,0,.86-3.48,18,18,0,0,0-2.36-11.2A16.91,16.91,0,0,0,29.08.77C27.89.43,17.24-2.3,9.56,5.09a19.14,19.14,0,0,0-5.21,9.15A11.92,11.92,0,0,0,4,17.1a12.74,12.74,0,0,0,.14,1.81,5.57,5.57,0,0,1,0,1,9.25,9.25,0,0,1-1.1,3.75c-.32.59-.66,1.19-1,1.78-.69,1.22-1.4,2.48-2,3.72a.89.89,0,0,0,.05.88.91.91,0,0,0,.78.43H4.3l0,1.22a1.09,1.09,0,0,1-.17.59,2.15,2.15,0,0,0-.38,1.38A2,2,0,0,0,4.3,35a2.42,2.42,0,0,0-.32.69,2.07,2.07,0,0,0,1.29,2.43.69.69,0,0,1,.33.22,1.31,1.31,0,0,1-.54,1.37,1.69,1.69,0,0,0-.38.49,2.33,2.33,0,0,0-.09,2,2.51,2.51,0,0,0,1.63,1.42,19.15,19.15,0,0,0,3.44.6,10.88,10.88,0,0,0,1.14.06,12.21,12.21,0,0,0,4.7-.94.92.92,0,1,0-.71-1.69Z"/>
        <path class="cls-1" d="M45.08,39.19a.92.92,0,0,0-.92.92,2.14,2.14,0,0,1-1,1.82,4.4,4.4,0,0,1-2.29.64h-9.4a1.25,1.25,0,0,1-1-.43c-.16-.2-.14-.31-.13-.36s.12-.47.92-1a.92.92,0,0,0-.53-1.67H29.14a.92.92,0,0,1-.92-.6.74.74,0,0,1,0-.26c0-.08.11-.4,1.1-1.15l.26-.2a.92.92,0,0,0-.64-1.58H27.31A.7.7,0,0,1,27,33.92l.82-.36a.92.92,0,0,0-.38-1.76H20A1.06,1.06,0,0,1,19,31.06a.78.78,0,0,1,0-.16,1,1,0,0,1,0-.29A1,1,0,0,1,20,29.9h0l11.8,0a1.54,1.54,0,0,0,1.24-.53,1.47,1.47,0,0,0,.25-1.54.83.83,0,0,0-.33-.41l-1.67-1.15-.12-.07c-.41-.2-1.31-.83-1.45-1.43l13,5.22a2.24,2.24,0,0,1,.79.53A2.12,2.12,0,0,1,44.16,32,.92.92,0,0,0,46,32a3.89,3.89,0,0,0-1.11-2.73,4,4,0,0,0-1.43-1l-13-5.22a1.88,1.88,0,0,0-1.83.26A1.77,1.77,0,0,0,27.93,25c.23,1.63,2,2.64,2.41,2.85l.35.24H20a2.87,2.87,0,0,0-2.84,2.12,3,3,0,0,0-.08.79c0,.14,0,.28.05.42A2.87,2.87,0,0,0,20,33.64h4.84a2.25,2.25,0,0,0-.2.77,2.32,2.32,0,0,0,.06.83,2.54,2.54,0,0,0,2,1.83,2,2,0,0,0-.34,1,2.27,2.27,0,0,0,.05.78,2.69,2.69,0,0,0,2.24,2,2.52,2.52,0,0,0-.19.63A2.28,2.28,0,0,0,29,43.26a3.12,3.12,0,0,0,2.46,1.15h9.4a6.3,6.3,0,0,0,3.25-.91A4,4,0,0,0,46,40.11.92.92,0,0,0,45.08,39.19Z"/>
        <path class="cls-1" d="M24.18,25.51A.92.92,0,0,0,24,24.22a9.15,9.15,0,0,0-5.74-2,9.24,9.24,0,1,0,5,17,.92.92,0,1,0-1-1.54,7.4,7.4,0,1,1-4-13.61,7.26,7.26,0,0,1,4.59,1.6A.92.92,0,0,0,24.18,25.51Z"/>
        <path class="cls-1" d="M18.53,28a.92.92,0,0,0,0-1.84A5.3,5.3,0,1,0,21.7,35.7a.92.92,0,0,0-1.1-1.47,3.43,3.43,0,0,1-2.07.69,3.46,3.46,0,1,1,0-6.92Z"/>
      </g>
    </g>
  </g>
</svg>
