<svg xmlns="http://www.w3.org/2000/svg" width="44" height="53.65" viewBox="0 0 44 53.65">
  <defs>
    <style>
      .cls-1 {
        fill: #ff5274;
      }
    </style>
  </defs>
  <title>pop-service-7</title>
  <g id="Layer_2" data-name="Layer 2">
    <g id="Ñëîé_1" data-name="Ñëîé 1">
      <g>
        <path class="cls-1" d="M41.46,23.72a5.34,5.34,0,0,0-2.15-.82,5.65,5.65,0,0,0-4.12,1,13,13,0,0,1,.7-1.46l1.91-3.32a15.27,15.27,0,0,0,2-7.52A14.22,14.22,0,0,0,38,4.47,9.05,9.05,0,0,0,30.11,0,9.63,9.63,0,0,0,28.5.14L22,1.29,15.47.14A9.66,9.66,0,0,0,13.85,0,9.06,9.06,0,0,0,6,4.46a14.23,14.23,0,0,0-1.78,7.17,15.17,15.17,0,0,0,2,7.52l1.9,3.32a12.54,12.54,0,0,1,.69,1.43,5.63,5.63,0,0,0-4.08-1,5.34,5.34,0,0,0-2.15.82A5.73,5.73,0,0,0,0,28.59V46.21a8.18,8.18,0,0,0,2.45,6.18A4.88,4.88,0,0,0,4.66,53.5c.55.11,3,.15,5.74.15,3.91,0,8.49-.07,9.33-.09,1.12,0,7.21.09,12.33.09,3.6,0,6.73,0,7.28-.15a4.88,4.88,0,0,0,2.21-1.11A8.18,8.18,0,0,0,44,46.21V28.59A5.73,5.73,0,0,0,41.46,23.72ZM7.52,18.38a13.56,13.56,0,0,1-1.8-6.75A12.65,12.65,0,0,1,7.3,5.23a7.52,7.52,0,0,1,6.57-3.68,8.52,8.52,0,0,1,1.33.11l6.65,1.18a1.22,1.22,0,0,0,.27,0l6.65-1.18a8.58,8.58,0,0,1,1.35-.11,7.52,7.52,0,0,1,6.56,3.69,12.71,12.71,0,0,1,1.57,6.39,13.56,13.56,0,0,1-1.8,6.75l-1.9,3.32a13.47,13.47,0,0,0-1.72,5.46,28.3,28.3,0,0,1-3.65,11.62L27.92,41a1,1,0,0,1-2-.52V37a15.64,15.64,0,0,0-1-5.46l-.5-1.35a2.74,2.74,0,0,0-2.56-1.78,2.71,2.71,0,0,0-2.57,1.84l-.51,1.47A15.71,15.71,0,0,0,18,36.79v3.67a1,1,0,0,1-1.94.52l-1.27-2.2a28.37,28.37,0,0,1-3.5-10.34v-.17l-.06-.35c0-.25-.07-.5-.09-.76A13.47,13.47,0,0,0,9.42,21.7ZM42.45,46.21a6.69,6.69,0,0,1-1.91,5A3.22,3.22,0,0,1,39,52c-.93.18-12.33.12-19.3,0h0c-5.22.08-13.85.14-14.75,0a3.22,3.22,0,0,1-1.5-.77,6.69,6.69,0,0,1-1.91-5V28.59A4.24,4.24,0,0,1,3.38,25a3.88,3.88,0,0,1,1.54-.59,4.15,4.15,0,0,1,3.13.85A4.53,4.53,0,0,1,9.69,28.1a30,30,0,0,0,3.76,11.45l1.26,2.2a2.59,2.59,0,0,0,4.84-1.29V36.79a14,14,0,0,1,.76-4.59l.51-1.47a1.18,1.18,0,0,1,1.11-.79,1.19,1.19,0,0,1,1.11.77l.5,1.35A14,14,0,0,1,24.43,37v3.48a2.59,2.59,0,0,0,4.83,1.29l1.26-2.2a30,30,0,0,0,3.71-11,.43.43,0,0,1,0-.11A4.64,4.64,0,0,1,36,25.28a4.15,4.15,0,0,1,3.13-.85,3.88,3.88,0,0,1,1.54.59,4.24,4.24,0,0,1,1.83,3.57V46.21Z"/>
        <path class="cls-1" d="M10.29,11h0a.78.78,0,0,0,.78-.77,4.78,4.78,0,0,1,.84-2.82l.21-.27A4.15,4.15,0,0,1,16.2,5.84l4,.89a.77.77,0,1,0,.33-1.51l-4-.89A5.69,5.69,0,0,0,11,6.12l-.29.36a6.34,6.34,0,0,0-1.14,3.73A.78.78,0,0,0,10.29,11Z"/>
      </g>
    </g>
  </g>
</svg>
