<svg xmlns="http://www.w3.org/2000/svg" viewBox="0 0 54 57.91" width="54" height="58">
  <defs>
    <style>
      .cls-1 {
        fill: #ff5274;
      }
    </style>
  </defs>
  <title>pop-service-5</title>
  <g id="Layer_2" data-name="Layer 2">
    <g id="Ñëîé_1" data-name="Ñëîé 1">
      <g>
        <path class="cls-1" d="M51.81,38.35,39.23,33.73a1,1,0,0,0-.5,0l-18.56,3a5.24,5.24,0,0,0-.55-3.39l3.15-1.78H36.83a1,1,0,0,0,0-2H22.51a1,1,0,0,0-.48.13l-3.42,1.94c-2.37-3.3-6.61-6.33-8.37-7.5a2.28,2.28,0,0,0,0-.4c.1-1.66-1.74-5.13-3.7-7a3.46,3.46,0,0,0-4.16-.46l-.78.48A3.43,3.43,0,0,0,.54,21.57l.76,1.18,3.35,5,0,0,9.39,13.89a6.86,6.86,0,0,0,2.05,2,5.71,5.71,0,0,0,.64.35l3.52,5.34h-4.9A5.48,5.48,0,0,0,9.91,54.8v2.12a1,1,0,0,0,1,1h34a1,1,0,0,0,0-2h-33V54.8a3.52,3.52,0,0,1,3.51-3.51H29.14a1,1,0,0,0,0-2H22.63l-3.05-4.62a6.85,6.85,0,0,0,1.63-.12l7.5-1.47,5.55,7.64a1,1,0,0,0,.79.41H46.43a3.51,3.51,0,0,1,3.51,3.51,1,1,0,0,0,2,0,5.47,5.47,0,0,0-5.47-5.47H35.55l-4.72-6.5,8.39-1.65,10.36,3.58a3.37,3.37,0,0,0,1.09.18,3.27,3.27,0,0,0,1.49-.36,3.33,3.33,0,0,0-.35-6.11ZM2.94,21.68,2.2,20.51A1.43,1.43,0,0,1,2,19.39a1.48,1.48,0,0,1,.67-.93L3.45,18a1.49,1.49,0,0,1,1.79.2c1.77,1.68,3.14,4.65,3.1,5.45,0,.06-.07.6-1.14,1.29l-1.44.92ZM52,41.9a1.38,1.38,0,0,1-.69.81,1.35,1.35,0,0,1-1.06.07L39.61,39.12a1.1,1.1,0,0,0-.51,0L20.84,42.67a5,5,0,0,1-3-.35h0a5.28,5.28,0,0,1-.62-.33,5.17,5.17,0,0,1-1.48-1.43L6.86,27.47l1.39-.88a6.3,6.3,0,0,0,1-.76c2.95,2,6.61,5,8.24,7.61h0a3.8,3.8,0,0,1,.74,3,2.15,2.15,0,0,1-.5.83l-1.53,1.5a1,1,0,0,0,0,1.38,1,1,0,0,0,.7.3,1,1,0,0,0,.69-.28l1.31-1.28,19.93-3.28L51.14,40.2A1.37,1.37,0,0,1,52,41.9Z"/>
        <path class="cls-1" d="M35.63,21.2A1,1,0,0,0,37,21.09l1.68-2A5.9,5.9,0,0,0,38,10.81L34.19,7.53,36,5.47l5.44.1h0a1,1,0,1,0,0-2l-5.9-.11a1,1,0,0,0-.76.35L32.7,6.26,31.2,5l2.53-3H44.88a1,1,0,0,0,0-2H33.28a1,1,0,0,0-.75.34L29.71,3.71,27,1.41a5.91,5.91,0,0,0-8.32.66L17,4a1,1,0,0,0-.24.72,1,1,0,0,0,.35.67ZM20.2,3.34a3.93,3.93,0,0,1,5.54-.44l11,9.4a3.94,3.94,0,0,1,.44,5.55l-1,1.22-17-14.51Z"/>
        <path class="cls-1" d="M23.25,18a1,1,0,0,0,.75-.34l1.46-1.72a1,1,0,0,0-.11-1.38,1,1,0,0,0-1.38.11L22.5,16.34a1,1,0,0,0,.11,1.39A1,1,0,0,0,23.25,18Z"/>
        <path class="cls-1" d="M21.34,10.72l-3.49.42a1,1,0,0,0,.12,2h.12l3.49-.42a1,1,0,1,0-.24-1.95Z"/>
        <path class="cls-1" d="M28.83,17.46a1,1,0,0,0-.94,1L28,21.57a1,1,0,0,0,1,.94h0a1,1,0,0,0,.94-1l-.13-3.08A1,1,0,0,0,28.83,17.46Z"/>
      </g>
    </g>
  </g>
</svg>
