<svg width="224" height="56" viewBox="0 0 224 56" xmlns="http://www.w3.org/2000/svg"><path fill="#303540" d="M0 0h56v56H0z"/><path fill="#FEFEFE" d="M22.3 22.3c-3.1 3.1-3.1 8.2 0 11.3 3.1 3.1 8.2 3.1 11.3 0 3.1-3.1 3.1-8.2 0-11.3-3.1-3.1-8.1-3.1-11.3 0"/><path fill="#FFF" d="M41 15.6v12.3C41 35.2 35.2 41 27.9 41H15.6c7.1 6.8 18.2 6.7 25.1-.3 6.9-6.9 7-18 .3-25.1M15 28.1C15 20.8 20.8 15 28.1 15h12.3c-7.1-6.8-18.2-6.7-25.1.3s-7 18.1-.3 25.1V28.1z"/><path fill="#2E6BE5" d="M56 0h168v56H56z"/><path fill="#FFF" d="M84.3 30.3c-3.6-1-6.3-3.9-6.3-8.1 0-5.2 4.3-8.2 8.9-8.2h21.9v6.3H96v4.9h9.9v6.1H96V40h-6.8V20.1h-2.4c-1.1 0-2.4.7-2.4 2.1 0 1.1.7 1.8 1.6 2.2l-1.7 5.9zM112 40V14h7v26h-7zm19.1-19.6c5.2 0 8.9 2.5 8.9 7.7V40h-5.9v-2c-1.1 2-3.6 2.6-6 2.6-4.2 0-6.6-3-6.6-6.4 0-2.9 2.3-6.4 8-6.4h4.1v-.3c0-2.2-.8-3-2.6-3-1.6 0-2.6.8-2.7 2.3h-6c.3-3.7 3.3-6.4 8.8-6.4zm2.6 12.3v-1.1h-2.9c-1.7 0-3 .9-3 2.2 0 1.4 1 2.1 2.7 2.1 2 0 3.2-1.4 3.2-3.2zm26.7-8.9c1.3-2.4 3.2-3.3 5.7-3.3 4.8 0 6.9 3 6.9 7.8V40h-6.5V29.6c0-2.2-.4-3.5-2.3-3.5-2.1 0-2.7 1.6-2.7 3.7V40H155V29.6c0-2.2-.5-3.5-2.5-3.5-2.1 0-2.8 1.8-2.8 4v10H143V21h6.3v2.8c1.3-2.7 3.6-3.4 5.7-3.4 2.5 0 4.3 1 5.4 3.4zm22-.2c1.3-2.4 3.7-3.2 6-3.2 5 0 8 4.2 8 10.1 0 6-3.1 10.1-8 10.1-2.3 0-4.6-.7-5.8-2.6v9H176V21h6.4v2.6zm3.6 11.8c2.8 0 3.9-2.3 3.9-4.9 0-2.6-1-4.8-3.9-4.8-2.7 0-3.9 2.2-3.9 4.8.1 2.6 1.2 4.9 3.9 4.9z"/></svg>