<svg xmlns="http://www.w3.org/2000/svg" width="57" height="59.11" viewBox="0 0 57 59.11">
  <defs>
    <style>
      .cls-1 {
        fill: #ff5274;
      }
    </style>
  </defs>
  <title>trigger-3</title>
  <g id="Layer_2" data-name="Layer 2">
    <g id="Layer_1-2" data-name="Layer 1">
      <path class="cls-1" d="M55.9,46.09l-3.49-3V10.59A10.51,10.51,0,0,0,42,0H37.15a9.11,9.11,0,0,0-5.26,1.67L30.4,2.72a6.18,6.18,0,0,0-8.3.21,6.16,6.16,0,0,0-.81.95,2.23,2.23,0,0,0,.21,2.77l5.4,5.93a2.26,2.26,0,0,0,1.65.74A2.15,2.15,0,0,0,29.69,13a6.19,6.19,0,0,0,2.37-2.75,6.46,6.46,0,0,0-.3-5.9l1.35-.95a7,7,0,0,1,4-1.28H42a8.4,8.4,0,0,1,8.3,8.48V41.33l-5.2-4.41A8.1,8.1,0,0,0,39.86,35H35.07V30.51H38.4a1.06,1.06,0,0,0,0-2.11H29.63a1.06,1.06,0,1,0,0,2.11H33V35H25.29a2,2,0,0,1-1.31-.5L9.14,21.24a3,3,0,0,0-2.25-.78,3.07,3.07,0,0,0-.42.07L5.34,18a3.15,3.15,0,0,0,1.39-3l-.57-4.35A3.14,3.14,0,0,0,5,8.58,3.09,3.09,0,0,0,2.68,8,3.12,3.12,0,0,0,0,11.49L.6,15.84a3.12,3.12,0,0,0,2.64,2.68l1.43,3.14a3.15,3.15,0,0,0,.38,4.27L19.89,39.18a8.12,8.12,0,0,0,5.4,2.06h.92l1.73,11.87H18.12A3.18,3.18,0,0,0,15,56.28V57a2.12,2.12,0,0,0,2.12,2.11H39.38A2.11,2.11,0,0,0,41.49,57v-.72a3.17,3.17,0,0,0-3.16-3.17H36.4l1.73-11.87h1.73a2,2,0,0,1,1.27.47l10.8,9.17a3,3,0,0,0,2,.74,3.06,3.06,0,0,0,2.38-1.14A3.16,3.16,0,0,0,55.9,46.09ZM30.14,9.37a4.15,4.15,0,0,1-1.57,1.83h0s-.07,0-.11,0l-5.4-5.93a.16.16,0,0,1,0-.15,4.46,4.46,0,0,1,.53-.61,4.08,4.08,0,0,1,2.82-1.14,4.12,4.12,0,0,1,3.51,2A4.34,4.34,0,0,1,30.14,9.37Zm-28,1.84A1,1,0,0,1,3,10.06h.13a.94.94,0,0,1,.58.19,1,1,0,0,1,.39.69l.57,4.35a1,1,0,0,1-.84,1.14,1,1,0,0,1-1.1-.87Zm36.21,44a1.05,1.05,0,0,1,1.05,1.06V57H17.07v-.72a1.05,1.05,0,0,1,1.05-1.06H38.33Zm-4.06-2.11h-4.2L28.34,41.24H36Zm20.39-4a1,1,0,0,1-1.37.13L42.49,40.1a4.11,4.11,0,0,0-2.63-1H25.29a6,6,0,0,1-4-1.53L6.46,24.36a1,1,0,0,1-.1-1.45A1,1,0,0,1,7,22.57h.06a.94.94,0,0,1,.64.24L22.58,36.05a4.06,4.06,0,0,0,2.71,1H39.86a6,6,0,0,1,3.87,1.43l10.8,9.18A1,1,0,0,1,54.66,49.15Z"/>
    </g>
  </g>
</svg>
