<svg xmlns="http://www.w3.org/2000/svg" width="55" height="59.61" viewBox="0 0 55 59.61">
  <defs>
    <style>
      .cls-1 {
        fill: #ff5274;
      }
    </style>
  </defs>
  <title>trigger-1</title>
  <g id="Layer_2" data-name="Layer 2">
    <g id="Layer_1-2" data-name="Layer 1">
      <path class="cls-1" d="M21.16,14,20,20.63a1.08,1.08,0,0,0,1.55,1.13l5.92-3.11,5.92,3.11a1,1,0,0,0,.49.12,1,1,0,0,0,.63-.21,1.05,1.05,0,0,0,.43-1L33.84,14l4.78-4.67a1,1,0,0,0,.27-1.09A1.06,1.06,0,0,0,38,7.55l-6.61-1-3-6a1.07,1.07,0,0,0-1.92,0l-3,6L17,7.55a1.07,1.07,0,0,0-.87.73,1.05,1.05,0,0,0,.28,1.09Zm3.29-5.42a1.06,1.06,0,0,0,.8-.58L27.5,3.48,29.75,8a1,1,0,0,0,.8.58l5,.73L31.94,12.9a1.08,1.08,0,0,0-.3.95l.86,5L28,16.49a1.1,1.1,0,0,0-1,0l-4.5,2.37.86-5a1.08,1.08,0,0,0-.3-.95L19.42,9.36ZM54.3,47.16a1.07,1.07,0,0,0-1.18.31l-3.63,4.24-3.6-4.24a1.08,1.08,0,0,0-1.19-.31,1.07,1.07,0,0,0-.69,1v9.31H39.38V42.6a1,1,0,0,0-.69-1,1.06,1.06,0,0,0-1.18.29l-3.2,3.61-3-21.26a1.08,1.08,0,0,0-.54-.78L28,22h0l-.05,0,0,0-.05,0h-.1l-.06,0h-.4l-.06,0h-.1l-.05,0,0,0-.05,0h0l-2.73,1.52a1.08,1.08,0,0,0-.54.78l-3,21.26-3.2-3.61a1.06,1.06,0,0,0-1.18-.29,1,1,0,0,0-.69,1V57.47H11V48.16a1.07,1.07,0,0,0-1.88-.69l-3.6,4.24L1.88,47.47A1.07,1.07,0,0,0,.7,47.16a1.08,1.08,0,0,0-.7,1v7.18a1.07,1.07,0,0,0,2.14,0V51.05l2.57,3a1.06,1.06,0,0,0,1.62,0l2.53-3v7.47a1.07,1.07,0,0,0,1.07,1.07h6.76a1.07,1.07,0,0,0,1.07-1.07V45.42l2.87,3.23a1,1,0,0,0,1.1.32,1.07,1.07,0,0,0,.75-.88l3.28-23,1.74-1,1.74,1,3.28,23a1.07,1.07,0,0,0,.75.88,1,1,0,0,0,1.1-.32l2.87-3.23V58.54a1.07,1.07,0,0,0,1.07,1.07h6.76a1.07,1.07,0,0,0,1.07-1.07V51.07l2.53,3a1.06,1.06,0,0,0,1.62,0l2.57-3v4.29a1.07,1.07,0,1,0,2.14,0V48.16A1.08,1.08,0,0,0,54.3,47.16Z"/>
    </g>
  </g>
</svg>
