<svg xmlns="http://www.w3.org/2000/svg" width="45" height="56.66" viewBox="0 0 45 56.66">
  <defs>
    <style>
      .cls-1 {
        fill: #ff5274;
      }
    </style>
  </defs>
  <title>trigger-2</title>
  <g id="Layer_2" data-name="Layer 2">
    <g id="Layer_1-2" data-name="Layer 1">
      <g>
        <path class="cls-1" d="M45,33.57V10.34a1.09,1.09,0,0,0-1.09-1.09c-8.72,0-13.8-2.34-16.52-4.31A11.51,11.51,0,0,1,23.55.68a1.08,1.08,0,0,0-1-.68h-.08a1.08,1.08,0,0,0-1,.68c0,.09-3.6,8.57-20.34,8.57A1.09,1.09,0,0,0,0,10.34V33.57c-.11,1.17-.53,12.38,22,23a1,1,0,0,0,.46.11h.08a1,1,0,0,0,.46-.11C45.51,46,45.09,34.74,45,33.57ZM22.5,54.39c-11.08-5.3-16-10.62-18.22-14.17-2.36-3.82-2.1-6.43-2.1-6.45a.66.66,0,0,0,0-.14V11.41c8.77-.19,14-2.7,16.87-4.82A15.72,15.72,0,0,0,22.5,3.15a15.72,15.72,0,0,0,3.44,3.44c2.87,2.12,8.1,4.63,16.87,4.82V33.63a.66.66,0,0,0,0,.14C42.83,33.88,43.92,44.16,22.5,54.39Z"/>
        <path class="cls-1" d="M33.25,16.12,33,15.94a7.76,7.76,0,0,0-8.65-.66,1.08,1.08,0,0,0-.46,1.46,1.09,1.09,0,0,0,1.47.47,5.55,5.55,0,0,1,6.3.45l.22.17a6.07,6.07,0,0,1,1.18,8.28L31.7,28a13.82,13.82,0,0,1-.88,1.09c-.14.18-.32.38-.56.67h0c-.87.88-1.35,3.81-1.41,8.69,0,.1-.05,2.49-2.08,3.19l-.11,0A4.05,4.05,0,0,1,26,42a14.77,14.77,0,0,1-.22-4.26c0-.71.09-4.34-1.43-5.91A2.42,2.42,0,0,0,22.53,31h-.06a2.42,2.42,0,0,0-1.78.78c-1.52,1.57-1.46,5.2-1.43,5.9A14.82,14.82,0,0,1,19,42a4.08,4.08,0,0,1-.69-.24l-.11,0c-2-.7-2.08-3.09-2.08-3.19-.06-4.89-.54-7.81-1.41-8.69h0l-.57-.67c-.34-.4-.5-.59-.87-1.09l-1.39-1.92a6.07,6.07,0,0,1,1.18-8.28l.22-.17c2.37-1.84,5.37-1.57,8,.73l0,0a10.08,10.08,0,0,0,4.53,1.84,1.09,1.09,0,1,0,.33-2.15,8.17,8.17,0,0,1-3.49-1.37c-3.45-3-7.57-3.27-10.77-.79l-.22.18a8.26,8.26,0,0,0-1.6,11.26l1.39,1.93h0c.42.56.62.79,1,1.21l.57.67.08.09c.11.2.74,1.59.82,7.21,0,.16,0,4,3.49,5.22a4.54,4.54,0,0,0,1.68.44l.23,0c2.2-.27,2.13-3.16,2-6.51-.05-1.35.17-3.65.82-4.32a.28.28,0,0,1,.22-.11h.06a.28.28,0,0,1,.22.11c.64.67.87,3,.82,4.33-.09,3.34-.16,6.23,2,6.5l.23,0a4.54,4.54,0,0,0,1.68-.44C31,42.49,31,38.66,31,38.51c.08-5.63.71-7,.82-7.22l.08-.09.57-.67c.35-.41.55-.64,1-1.21l1.4-1.94A8.26,8.26,0,0,0,33.25,16.12Z"/>
      </g>
    </g>
  </g>
</svg>
