<svg xmlns="http://www.w3.org/2000/svg" width="70.99" height="95" viewBox="0 0 70.99 95">
  <defs>
    <style>
      .cls-1, .cls-2 {
        fill: #fff;
      }

      .cls-2 {
        stroke: #279da2;
        stroke-linecap: round;
        stroke-linejoin: round;
        stroke-width: 2.47px;
      }

      .cls-3 {
        fill: #279da2;
      }
    </style>
  </defs>
  <title>hands</title>
  <g id="Слой_2" data-name="Слой 2">
    <g id="Layer_6" data-name="Layer 6">
      <path class="cls-1" d="M10.16,66.9s-1.86-2.24,2.63-1.05,7.06-.09,7.06-.09l2.64,2.12,3.77,3.39a14.81,14.81,0,0,0,8.74,1c4.67-1,13.29-2.62,17-.8a21.57,21.57,0,0,1,6.22,4.72l9.62,6.07s2.16.29,0,4.17a28.58,28.58,0,0,1-5,6.52s-4.07-1.5-5.63-2.87-6.1-4.39-10.7-2.37-14.29,1.22-16.77.48S19,81.36,16.15,78.46s-6.71-7.65-7-9.18A2.34,2.34,0,0,1,10.16,66.9Z"/>
      <path class="cls-1" d="M60.39,28.08s1.85,2.24-2.63,1.05-7.06.1-7.06.1L48.05,27.1l-3.76-3.39a14.84,14.84,0,0,0-8.74-1c-4.68,1-13.3,2.62-17,.8a21.43,21.43,0,0,1-6.21-4.72L2.7,12.71s-2.16-.29,0-4.16A28.63,28.63,0,0,1,7.63,2s4.08,1.5,5.63,2.87,6.1,4.4,10.7,2.37S38.26,6,40.73,6.78s10.86,6.84,13.67,9.74,6.7,7.65,7,9.18A2.35,2.35,0,0,1,60.39,28.08Z"/>
      <path class="cls-2" d="M33.46,37.62c3-.07,7.74-3.63,11.31-1.91,7.27,3.52-.42,13-.41,15.48,0,3.4,0,8.75-2.36,11.28-1.65,1.79-2.82.35-2.56-2,.19-1.81.73-4.07-.24-5.92-1.13-2.16-3-2.57-5.13-1.8-5,1.74-.63,8.91-2.75,10.55-4.61-.36-4.43-8.15-4.49-11.87,0-1.37-1.78-3.49-2.37-5.18-1.57-4.57-3.17-8.87,2.4-10.58a5.87,5.87,0,0,1,5.35,1,10.68,10.68,0,0,0,4.86,2.65"/>
      <g>
        <path class="cls-3" d="M69.56,80.93c-3.17-1.75-9.89-5.62-10.44-6l-.3-.37c-2-2.46-7.41-9-21.18-4.35a17.66,17.66,0,0,1-7.15,1c-.53-.06-1.07-.16-1.59-.26l-.39-.07c-1.28-1-6.33-4.91-8.16-5.71a13.77,13.77,0,0,0-5.28-.75c-1-.58-3.4-1.71-5.33-.4a4.25,4.25,0,0,0-1.82,2.72,6.59,6.59,0,0,0,1.4,4.9c.33.49,8.3,12,18.93,17.1a18.85,18.85,0,0,0,8.68,1.39l13.53-1.89a8.66,8.66,0,0,1,3.87.45l7.38,5.69A2.75,2.75,0,0,0,63.4,95a2.69,2.69,0,0,0,.57-.06,2.76,2.76,0,0,0,1.86-1.39l4.82-8.88A2.75,2.75,0,0,0,69.56,80.93ZM24.12,71.1a7.75,7.75,0,0,0-1.74.78l-5.12-4.52a6.91,6.91,0,0,1,2,.42A41.91,41.91,0,0,1,24.12,71.1ZM63.43,92.2,56.1,86.55c-1.07-.91-3.31-1.11-4.78-1.11-.54,0-1,0-1.21,0L36.63,87.38a15.89,15.89,0,0,1-7.18-1.13C19.5,81.52,12,70.56,11.63,70.1a3.87,3.87,0,0,1-1-2.79,1.41,1.41,0,0,1,.63-.93c.45-.3,1.38,0,2.07.36l7.49,6.61a3.19,3.19,0,0,0-.5,1.46c-.13,2.09,1.7,3.88,4.91,4.81,6.22,1.79,16.55,2,17,2a1.44,1.44,0,0,0,1.42-1.38,1.41,1.41,0,0,0-1.38-1.43c-.1,0-10.39-.19-16.25-1.88-2.24-.64-2.91-1.58-2.89-1.93s.78-1.14,3-1.48a8.21,8.21,0,0,1,2.23.24c.59.11,1.2.22,1.79.29a20.1,20.1,0,0,0,8.42-1.21c11.89-4,16,1.07,18,3.5l.33.41c.67.79,11.13,6.59,11.21,6.59Z"/>
        <path class="cls-3" d="M12.17,20.45c2,2.46,7.39,9,21.17,4.35a17.11,17.11,0,0,1,7.15-1.05c.53.05,1.07.16,1.6.25l.39.08c1.27,1,6.33,4.91,8.16,5.71a13.73,13.73,0,0,0,5.28.75,6.91,6.91,0,0,0,3.28,1,3.59,3.59,0,0,0,2-.6,4.24,4.24,0,0,0,1.81-2.72,6.53,6.53,0,0,0-1.39-4.9c-.33-.49-8.3-12-18.93-17.1a18.66,18.66,0,0,0-8.69-1.39L20.53,6.72a8.74,8.74,0,0,1-3.87-.45L9.27.57a2.77,2.77,0,0,0-4.12.88L.34,10.33a2.76,2.76,0,0,0,1.08,3.74c3.18,1.74,9.9,5.61,10.44,6Zm34.7,3.45a7.08,7.08,0,0,0,1.73-.79l5.13,4.53a6.91,6.91,0,0,1-2-.42A41.91,41.91,0,0,1,46.87,23.9ZM7.56,2.8l7.33,5.64C16.35,9.7,20,9.6,20.88,9.5L34.35,7.62a15.87,15.87,0,0,1,7.18,1.13C51.48,13.48,59,24.44,59.35,24.9a3.94,3.94,0,0,1,1,2.79,1.45,1.45,0,0,1-.63.93c-.46.3-1.38,0-2.07-.36l-7.5-6.62a3.28,3.28,0,0,0,.51-1.45c.13-2.09-1.71-3.89-4.92-4.81-6.21-1.8-16.54-2-17-2a1.41,1.41,0,0,0,0,2.81c.1,0,10.39.18,16.25,1.87,2.23.65,2.91,1.59,2.89,1.94s-.78,1.14-3,1.48a8.63,8.63,0,0,1-2.23-.24C42,21.14,41.4,21,40.8,21a20.4,20.4,0,0,0-8.42,1.2c-11.87,4-16-1.06-18-3.49L14,18.26c-.67-.79-11.12-6.59-11.2-6.59Z"/>
      </g>
    </g>
  </g>
</svg>
