<svg xmlns="http://www.w3.org/2000/svg" width="40.78" height="36.47" viewBox="0 0 40.78 36.47">
  <defs>
    <style>
      .cls-1 {
        fill: #72dbd4;
      }
    </style>
  </defs>
  <title>t-1</title>
  <g id="Слой_2" data-name="Слой 2">
    <g id="Calque_2" data-name="Calque 2">
      <g>
        <path class="cls-1" d="M6.79,13.22c-1.16.43-2.68,1.54-3.37,4.36a.74.74,0,0,0,.54.89.55.55,0,0,0,.18,0,.73.73,0,0,0,.71-.56A4.32,4.32,0,0,1,7.3,14.6a.74.74,0,0,0-.51-1.38Z"/>
        <path class="cls-1" d="M13.27,30a9.22,9.22,0,0,0-2.74.64A3.53,3.53,0,0,1,6.32,30c-6.1-5.47-4.69-13.4-4.68-13.44.56-2.34,1.61-3.94,3.11-4.74a6.46,6.46,0,0,1,4.72-.3.23.23,0,0,0,.11,0,21.12,21.12,0,0,0,3.58.47h.26A22.24,22.24,0,0,0,17,11.57a.27.27,0,0,0,.12,0,6.24,6.24,0,0,1,5.1.52L23,10.84a7.63,7.63,0,0,0-6.35-.7,19.34,19.34,0,0,1-3.25.42h-.3a18.34,18.34,0,0,1-3.23-.42,7.78,7.78,0,0,0-5.84.39c-1.9,1-3.2,2.93-3.87,5.74C.13,16.62-1.4,25.08,5.27,31a4.75,4.75,0,0,0,3.51,1.49A5.78,5.78,0,0,0,11.11,32a7.3,7.3,0,0,1,2.21-.53,7.43,7.43,0,0,1,2.15.52,6.32,6.32,0,0,0,1.67.49l.2-1.46a4.76,4.76,0,0,1-1.3-.39A9.12,9.12,0,0,0,13.27,30Z"/>
        <path class="cls-1" d="M9.58,4.32c.07,0,1.83.71,3.09,3.7a.71.71,0,0,0,.68.64h.26c.93,0,4-.16,5.63-2.22h0c1.3-1.64,2.13-5.4,2.16-5.56a.72.72,0,0,0-.19-.66A.73.73,0,0,0,20.55,0c-.42.08-4.16.77-5.73,1.92A5.59,5.59,0,0,0,12.91,5.4a6.51,6.51,0,0,0-2.85-2.47.74.74,0,0,0-.93.45A.75.75,0,0,0,9.58,4.32Zm6.1-1.2a13.55,13.55,0,0,1,4-1.43,12.64,12.64,0,0,1-1.6,3.85c-1,1.27-2.9,1.57-3.94,1.64C14.23,5.92,14.59,3.91,15.68,3.12Z"/>
        <path class="cls-1" d="M40.54,5.05a.73.73,0,0,0-1,0L36.61,8.15c-.39-.26-.66-.41-.7-.43h0l-.43-.23,2.85-6a.73.73,0,0,0-.35-1,.73.73,0,0,0-1,.35l-2.87,6c-.32-.12-.7-.24-1.11-.35L33.76,2a.74.74,0,0,0-1.46-.24l-.74,4.46a6.16,6.16,0,0,0-2.73.19A4.09,4.09,0,0,0,26.4,8.62c-.06.14-6.26,14.18-7.27,25.62a2.4,2.4,0,0,0,.81,1.8.71.71,0,0,0,.25.2h0l.13.08a.72.72,0,0,0,.25.07,2.2,2.2,0,0,0,.61.09A2.4,2.4,0,0,0,22.56,36c8.93-7.16,17.17-20.1,17.26-20.25a4,4,0,0,0,.46-3.22,7.46,7.46,0,0,0-2.5-3.51l2.79-3A.73.73,0,0,0,40.54,5.05ZM20.36,35.94l.19-.35h0Zm18.5-23A2.55,2.55,0,0,1,38.57,15c0,.05-1.33,2.08-3.42,5a6.42,6.42,0,0,1-3.45-1.09.73.73,0,0,0-1,.21.74.74,0,0,0,.21,1,8.1,8.1,0,0,0,3.23,1.25c-.86,1.15-1.82,2.38-2.85,3.65a4.83,4.83,0,0,1-2.46-.74.74.74,0,0,0-1,.22.73.73,0,0,0,.22,1,6.07,6.07,0,0,0,2.14.86,64.34,64.34,0,0,1-8.48,8.51.86.86,0,0,1-.73.09.87.87,0,0,1-.34-.62,55.43,55.43,0,0,1,1.29-7.64,6.17,6.17,0,0,0,1.79,1.18.72.72,0,0,0,.29.06.74.74,0,0,0,.29-1.41A4.8,4.8,0,0,1,22.32,25c.47-1.83,1-3.6,1.52-5.27a9,9,0,0,0,3.05,2.16.79.79,0,0,0,.29.06.74.74,0,0,0,.29-1.42A6.91,6.91,0,0,1,24.39,18c.45-1.34.9-2.58,1.31-3.68a5.63,5.63,0,0,0,1.72,1.13.79.79,0,0,0,.29.06A.73.73,0,0,0,28,14.12a4,4,0,0,1-1.71-1.33c.84-2.17,1.43-3.51,1.45-3.55A2.58,2.58,0,0,1,29.3,7.83c2.16-.73,5.29.85,5.31.86L35.2,9C35.34,9.08,38.28,10.79,38.86,13Z"/>
      </g>
    </g>
  </g>
</svg>
