<svg xmlns="http://www.w3.org/2000/svg" width="36.91" height="31" viewBox="0 0 36.91 31">
  <defs>
    <style>
      .cls-1 {
        fill: #72dbd4;
      }
    </style>
  </defs>
  <title>t-4</title>
  <g id="Слой_2" data-name="Слой 2">
    <g id="Isolation_Mode" data-name="Isolation Mode">
      <g>
        <path class="cls-1" d="M11.07,19.33c.37,2.74,1,6.27,2.07,7.48.74.88,1.42.79,1.76.66A2.23,2.23,0,0,0,16,25.21a23.48,23.48,0,0,1,.61-7.79,1.87,1.87,0,0,1,3.54,0,23.21,23.21,0,0,1,.62,7.79,2.23,2.23,0,0,0,1.07,2.26,1.4,1.4,0,0,0,.45.08,1.74,1.74,0,0,0,1.32-.74c1-1.21,1.69-4.74,2.07-7.48a22.26,22.26,0,0,1,1.47-6.19c1.7-3.37,1.52-6.94-.44-8.9-1.1-1.1-3.66-2.55-8.56-.13a10.45,10.45,0,0,0-1.44-.74,5.83,5.83,0,0,0-6.62,1.34C8.21,6.8,8,10,9.6,13.14A22.63,22.63,0,0,1,11.07,19.33Zm0-13.69a4.49,4.49,0,0,1,5.1-1,8.72,8.72,0,0,1,1.29.68c1.36.78,2.89,1.68,4.05.93a.69.69,0,0,0,.21-1,.7.7,0,0,0-1-.21c-.21.14-.64,0-1.12-.17,2.64-1.09,4.76-1,6,.28,1.51,1.51,1.59,4.51.18,7.29a23.17,23.17,0,0,0-1.61,6.63c-.47,3.52-1.13,6.05-1.75,6.77a1.05,1.05,0,0,1-.23.22,1.77,1.77,0,0,1-.17-.88A24.33,24.33,0,0,0,21.46,17a3.26,3.26,0,0,0-6.2,0,24.58,24.58,0,0,0-.67,8.22,1.77,1.77,0,0,1-.17.88,1.35,1.35,0,0,1-.23-.22c-.61-.72-1.27-3.25-1.75-6.77a23.59,23.59,0,0,0-1.6-6.63C9.53,9.92,9.63,7.29,11.1,5.64Z"/>
        <path class="cls-1" d="M8,13.52a.71.71,0,0,0,.31-.08.7.7,0,0,0,.31-.93,7.71,7.71,0,0,1-.91-3.73A.69.69,0,0,0,7,8.06a.68.68,0,0,0-.72.67,9.28,9.28,0,0,0,1.06,4.41A.7.7,0,0,0,8,13.52Z"/>
        <path class="cls-1" d="M6.24,13.52a.68.68,0,0,0,.31-.08.69.69,0,0,0,.31-.93A7.47,7.47,0,0,1,6,8.2.7.7,0,1,0,4.62,8a8.88,8.88,0,0,0,1,5.12A.7.7,0,0,0,6.24,13.52Z"/>
        <path class="cls-1" d="M28,1.32a3.59,3.59,0,0,1,1.93,2.37.69.69,0,1,0,1.33-.39A5,5,0,0,0,28.56.06.69.69,0,1,0,28,1.32Z"/>
        <path class="cls-1" d="M25.94,2.15C27.73,2.48,28.84,3.87,29,6a.69.69,0,0,0,.69.64h0a.69.69,0,0,0,.64-.74c-.2-2.74-1.77-4.64-4.19-5.08a.69.69,0,1,0-.25,1.36Z"/>
        <path class="cls-1" d="M36.49,15.14c-.51-.22-5-2.06-6.71-.11-.56.66-.87,2.18-1.36,4.82-.72,3.81-1.81,9.57-4.21,9.75s-3-1.57-3.72-4.05c-.43-1.46-.85-2.84-2.09-2.77h-.08c-1.21,0-1.58,1.27-2,2.64-.68,2.37-1.39,4.17-3.8,4.18h0c-2.38,0-3.45-5.84-4.16-9.7C7.9,17.23,7.59,15.69,7,15c-1.7-2-6.15.18-6.65.43a.7.7,0,0,0-.31.93A.69.69,0,0,0,1,16.7c1.64-.82,4.26-1.6,5-.76a17.22,17.22,0,0,1,1,4.21C7.91,25,9,31,12.55,31h0c3.64,0,4.53-3.13,5.12-5.18a5.48,5.48,0,0,1,.61-1.64h.15A5.35,5.35,0,0,1,19.16,26c.6,2,1.5,5.05,4.73,5.05l.42,0c3.47-.26,4.58-6.14,5.47-10.87a17,17,0,0,1,1-4.17c.81-.94,3.79-.09,5.11.47a.69.69,0,0,0,.91-.37A.68.68,0,0,0,36.49,15.14Z"/>
      </g>
    </g>
  </g>
</svg>
