<svg xmlns="http://www.w3.org/2000/svg" width="46.06" height="17" viewBox="0 0 46.06 17">
  <defs>
    <style>
      .cls-1 {
        fill: #72dbd4;
      }
    </style>
  </defs>
  <title>t-2</title>
  <g id="Слой_2" data-name="Слой 2">
    <g id="Isolation_Mode" data-name="Isolation Mode">
      <g>
        <path class="cls-1" d="M43.07,3.27V3.18a.09.09,0,0,0,0-.05.43.43,0,0,0,0,0V3a.17.17,0,0,0,0,0s0,0,0-.05l0,0,0,0,0-.05,0,0h0l0,0,0,0,0,0,0,0,0,0h0l0,0-.06,0,0,0H42c-3.16,0-3.17,0-4.93-.48-.75-.2-1.78-.48-3.45-.88-5.11-1.2-6.8-.49-8.3.14a5.47,5.47,0,0,1-2,.56h-.41a5.52,5.52,0,0,1-2-.56C19.3.72,17.6,0,12.49,1.21c-1.66.4-2.69.68-3.45.88-1.76.48-1.76.48-4.93.48H3.54l0,0-.05,0,0,0h0s0,0,0,0l0,0,0,0,0,0s0,0,0,0h0l0,0a.1.1,0,0,1,0,.05.08.08,0,0,1,0,0l0,0,0,.05s0,0,0,0v0s0,0,0,0,0,0,0,.05v.18a.07.07,0,0,0,0,.05.13.13,0,0,0,0,.06v0s0,0,0,0,0,0,0,.06,0,0,0,0h0C7.49,11.9,15.08,17,22.91,17h.23C31,17,38.58,11.9,43,3.66h0v0a.14.14,0,0,0,0-.06s0,0,0,0,0,0,0,0a.13.13,0,0,1,0-.06V3.27ZM29,10.37V7.06c.85-.08,1.69-.18,2.53-.3V9.59C30.65,9.89,29.81,10.15,29,10.37Zm-5.17.73V7.34c1.23,0,2.46-.06,3.68-.15V10.7A23.81,23.81,0,0,1,23.78,11.1Zm-5.14-.39V7.19c1.22.09,2.43.14,3.65.15V11.1A24.83,24.83,0,0,1,18.64,10.71Zm-4-1.11V6.76c.84.12,1.69.22,2.53.3v3.32A23,23,0,0,1,14.62,9.6ZM6.79,5.09a56,56,0,0,0,6.34,1.44V9A27.48,27.48,0,0,1,6.79,5.09ZM33,6.53a55.17,55.17,0,0,0,6.29-1.44A27.49,27.49,0,0,1,33,9Zm-23.55-3c.75-.2,1.76-.48,3.41-.86,4.63-1.1,6-.51,7.37.06a7,7,0,0,0,2.55.67h.54a7,7,0,0,0,2.55-.67c1.35-.57,2.74-1.16,7.38-.06,1.64.38,2.66.66,3.4.86s1,.28,1.43.35A58,58,0,0,1,8,3.88C8.4,3.81,8.83,3.69,9.43,3.53Zm13.6,12c-5.8,0-11.5-3-15.69-8.12a28.8,28.8,0,0,0,6.16,3.38.64.64,0,0,0,.19.08,26.85,26.85,0,0,0,4,1.19.45.45,0,0,0,.16,0,25,25,0,0,0,5.18.54h0a25.64,25.64,0,0,0,5.25-.55l.11,0a25.81,25.81,0,0,0,4-1.21l.18-.07a28.74,28.74,0,0,0,6.13-3.37C34.55,12.52,28.86,15.54,23,15.51Z"/>
        <path class="cls-1" d="M45.85,4.44a3,3,0,0,1-.79-3.36.74.74,0,0,0-.33-1,.74.74,0,0,0-1,.33,4.43,4.43,0,0,0,1.06,5.08.74.74,0,0,0,.53.22.7.7,0,0,0,.52-.22A.73.73,0,0,0,45.85,4.44Z"/>
        <path class="cls-1" d="M1.33.08a.76.76,0,0,0-.33,1A3,3,0,0,1,.22,4.44a.74.74,0,0,0,0,1,.71.71,0,0,0,.53.22.7.7,0,0,0,.52-.22A4.43,4.43,0,0,0,2.33.41.74.74,0,0,0,1.33.08Z"/>
      </g>
    </g>
  </g>
</svg>
