<svg xmlns="http://www.w3.org/2000/svg" width="37.53" height="32" viewBox="0 0 37.53 32">
  <defs>
    <style>
      .cls-1 {
        fill: #72dbd4;
      }
    </style>
  </defs>
  <title>t-3</title>
  <g id="Слой_2" data-name="Слой 2">
    <g id="Isolation_Mode" data-name="Isolation Mode">
      <g>
        <path class="cls-1" d="M34.21,2.39a51,51,0,0,0-30.89,0A4.67,4.67,0,0,0,0,6.8v7a1.67,1.67,0,0,0,.55,1.18,1.76,1.76,0,0,0,1.2.43h.12a4.4,4.4,0,0,0,1-.1,1.89,1.89,0,0,0,.47.78,2.72,2.72,0,0,0,2,.68h0a3.92,3.92,0,0,0,1.85-.39,1.31,1.31,0,0,0,.11.12A3.46,3.46,0,0,0,9.87,17h.82a4.85,4.85,0,0,0,1.67-.2,2.06,2.06,0,0,0,.94.66,7.15,7.15,0,0,0,2.3.23H16a6.64,6.64,0,0,0,2.17-.23,2.19,2.19,0,0,0,.6-.32,2,2,0,0,0,.59.32,7.12,7.12,0,0,0,2.3.23h.4a6.67,6.67,0,0,0,2.17-.23,2,2,0,0,0,.94-.67A5.58,5.58,0,0,0,27.1,17h.82a3.07,3.07,0,0,0,2.28-.59,1.31,1.31,0,0,0,.11-.12,3.92,3.92,0,0,0,1.85.39h0a2.72,2.72,0,0,0,2-.68,1.89,1.89,0,0,0,.47-.78,4.4,4.4,0,0,0,1,.1h.12a1.76,1.76,0,0,0,1.2-.43,1.67,1.67,0,0,0,.55-1.18v-7A4.67,4.67,0,0,0,34.21,2.39ZM3.78,3.82a49.49,49.49,0,0,1,30,0A3.17,3.17,0,0,1,36,6.8V8.28l-.22,0A2.15,2.15,0,0,0,34.34,9a2,2,0,0,0-1.8-1.43A3.64,3.64,0,0,0,30,9.3,2.86,2.86,0,0,0,27.6,7.86a3.59,3.59,0,0,0-2.66,1.52,3.8,3.8,0,0,0-3.15-2,3.74,3.74,0,0,0-3,1.77,3.76,3.76,0,0,0-3-1.77,3.82,3.82,0,0,0-3.15,2A3.59,3.59,0,0,0,9.93,7.86,2.86,2.86,0,0,0,7.57,9.3,3.64,3.64,0,0,0,5,7.58,2,2,0,0,0,3.19,9a2.15,2.15,0,0,0-1.46-.75l-.23,0V6.8A3.17,3.17,0,0,1,3.78,3.82Zm-1.93,10H1.8a.41.41,0,0,1-.26,0,.2.2,0,0,1,0-.13V11.26a3.4,3.4,0,0,1,.31-1.47,2.46,2.46,0,0,1,1,1.47v2.48S2.53,13.86,1.85,13.86Zm3.52,1.36h0A1.42,1.42,0,0,1,4.42,15a.58.58,0,0,1-.14-.45V11.3c0-1.2.39-2.22.71-2.22.62,0,1.86,1.47,1.86,2.22v3.23C6.85,15.13,5.92,15.22,5.37,15.22Zm5.07.32H9.87a3.73,3.73,0,0,1-1.49-.15.49.49,0,0,1,0-.22V11.64c0-.9.71-2.28,1.58-2.28s2,1.4,2,2.28v3.53c0,.14,0,.21,0,.22A3.65,3.65,0,0,1,10.44,15.54Zm7.23.55a6.5,6.5,0,0,1-1.8.14H15.6a6.53,6.53,0,0,1-1.8-.14c-.2-.08-.34-.16-.34-.6v-4a2.63,2.63,0,0,1,2.28-2.54A2.64,2.64,0,0,1,18,11.47v4C18,15.93,17.88,16,17.67,16.09Zm6.4-.6c0,.44-.13.52-.34.6a6.53,6.53,0,0,1-1.8.14h-.27a6.5,6.5,0,0,1-1.8-.14c-.21-.08-.34-.16-.34-.6v-4a2.63,2.63,0,0,1,2.27-2.54,2.63,2.63,0,0,1,2.28,2.54v4Zm5.11-.32a.49.49,0,0,1,0,.22,3.7,3.7,0,0,1-1.48.15h-.58a3.65,3.65,0,0,1-1.48-.15s0-.08,0-.22V11.64c0-.88,1.11-2.28,2-2.28s1.58,1.38,1.58,2.28v3.53Zm4.07-.64a.58.58,0,0,1-.14.45,1.42,1.42,0,0,1-.94.24h0c-.55,0-1.48-.09-1.48-.69V11.3c0-.75,1.24-2.22,1.86-2.22.32,0,.71,1,.71,2.22v3.23ZM36,13.69a.2.2,0,0,1,0,.13.41.41,0,0,1-.26,0h0a2.57,2.57,0,0,1-.93-.1v-2.5a2.43,2.43,0,0,1,1-1.47A3.36,3.36,0,0,1,36,11.26Z"/>
        <path class="cls-1" d="M34.22,22.09V19.38A1.27,1.27,0,0,0,33,18.06H31.17a1.1,1.1,0,0,0-.48.12,1.37,1.37,0,0,0-.53-.12H27.85a1.32,1.32,0,0,0-.84.32,1.5,1.5,0,0,0-.37-.05h-2.7a1.4,1.4,0,0,0-.91.34,1.51,1.51,0,0,0-.48-.08h-3a1.44,1.44,0,0,0-.74.2,1.44,1.44,0,0,0-.74-.2H15a1.51,1.51,0,0,0-.48.08,1.38,1.38,0,0,0-.91-.34h-2.7a1.5,1.5,0,0,0-.37.05,1.32,1.32,0,0,0-.84-.32H7.37a1.37,1.37,0,0,0-.53.12,1.1,1.1,0,0,0-.48-.12H4.51a1.27,1.27,0,0,0-1.2,1.32v2.71a2.51,2.51,0,0,0-1.54,2.4v3.45a2.34,2.34,0,0,0,1.84,2.21A62.92,62.92,0,0,0,18.77,32a62.9,62.9,0,0,0,15.15-1.85,2.34,2.34,0,0,0,1.84-2.21V24.49A2.5,2.5,0,0,0,34.22,22.09Zm-2.75-2.53h1.25v3c0,.79-.14.93-.14.93a.21.21,0,0,1-.11,0,1,1,0,0,1-1-.95Zm-3.43,0H30v3.17c0,1.07-.23,1.07-.5,1.07-.59,0-1.43-.33-1.43-1.07V19.56Zm-4,.26h2.5v3.52c0,1.25-.69,1.25-1,1.25h0c-.7,0-1.51-.33-1.51-1.25V19.82Zm-1.5,3.52v.52a1.51,1.51,0,1,1-3,0V20.09l3,0ZM18,23.86a1.51,1.51,0,1,1-3,0V20.09l3,0Zm-7-1.13V19.82h2.5v3.52c0,.92-.81,1.25-1.51,1.25-.3,0-1,0-1-1.25Zm-1.5-3v3c0,.74-.84,1.07-1.43,1.07-.27,0-.5,0-.5-1.07V19.56H9.49Zm-4.68-.17H6.06v3a1,1,0,0,1-1,.95.21.21,0,0,1-.11,0H5s-.15-.15-.15-.93Zm29.45,8.38a.84.84,0,0,1-.7.75A61.45,61.45,0,0,1,4,28.69a.84.84,0,0,1-.7-.75V24.49a1.29,1.29,0,0,1,.22-.72A1.54,1.54,0,0,0,5.07,25a2.65,2.65,0,0,0,1.41-.43,1.75,1.75,0,0,0,1.58.77,3.31,3.31,0,0,0,1.74-.49A2.29,2.29,0,0,0,12,26.09a3.27,3.27,0,0,0,2-.63,3,3,0,0,0,4.81.38,3,3,0,0,0,4.8-.38,3.21,3.21,0,0,0,2,.63,2.29,2.29,0,0,0,2.18-1.28,3.31,3.31,0,0,0,1.74.49,1.75,1.75,0,0,0,1.58-.77,2.66,2.66,0,0,0,1.42.43,1.54,1.54,0,0,0,1.58-1.2,1.45,1.45,0,0,1,.21.73Z"/>
      </g>
    </g>
  </g>
</svg>
