<svg xmlns="http://www.w3.org/2000/svg" width="25" height="25.06" viewBox="0 0 25 25.06">
  <defs>
    <style>
      .cls-1 {
        fill: #ff5274;
      }
    </style>
  </defs>
  <title>callback-1</title>
  <g id="Layer_2" data-name="Layer 2">
    <g id="Calque_2" data-name="Calque 2">
      <g>
        <path class="cls-1" d="M17.62,0A7.38,7.38,0,0,0,15.5,14.44V16.7a.78.78,0,0,0,.43.69.84.84,0,0,0,.34.08.74.74,0,0,0,.47-.16l5.42-4.12A7.37,7.37,0,0,0,17.62,0Zm3.6,12-4.17,3.17v-1.3a.77.77,0,0,0-.62-.75,5.83,5.83,0,1,1,7-5.71A5.79,5.79,0,0,1,21.22,12Z"/>
        <path class="cls-1" d="M19.59,3.45H15.86V5.58H13.73V9.31h2.13v2.13h3.73V9.31h2.13V5.58H19.59Zm.59,3.68v.63H18V9.89h-.63V7.76H15.28V7.13h2.13V5H18V7.13Z"/>
        <path class="cls-1" d="M13.91,17.42a2,2,0,0,0-2.18-.62L10,17.32a32.39,32.39,0,0,1-2.07-2.9l0,0,0-.06,0,0a.1.1,0,0,0,0-.05A33,33,0,0,1,6,11.17L7.23,9.81a2,2,0,0,0,.34-2.24L6.09,3.82A1.69,1.69,0,0,0,4.67,2.73C3.92,2.65,2.52,3.39,1.49,4A2.48,2.48,0,0,0,0,6.07c-.21,3,1.09,6.66,3.74,10.69l.1.15,0,0,.16.23c2.61,4.1,5.35,6.7,8.13,7.73a1.79,1.79,0,0,0,.76.15,2.86,2.86,0,0,0,1.7-.62,6.75,6.75,0,0,0,2.5-2.39,1.72,1.72,0,0,0-.43-1.76Zm1.76,4.13a9.76,9.76,0,0,1-1.94,1.63,1.18,1.18,0,0,1-.92.32l-.08,0c-1.7-.62-4.35-2.37-7.39-7.12l-.18-.27-.11-.17c-2.44-3.7-3.67-7.16-3.49-9.76,0-.06,0,0,0-.08s.12-.4.7-.72A9.46,9.46,0,0,1,4.53,4.27h0a.28.28,0,0,1,.11.14L6.15,8.18a.54.54,0,0,0,0,.11.48.48,0,0,1-.14.51L4.54,10.55a.78.78,0,0,0-.12.85,35.38,35.38,0,0,0,2.16,3.77v0A34.69,34.69,0,0,0,9.13,18.7.78.78,0,0,0,10,19l2.22-.67a.49.49,0,0,1,.54.11l.06.07,2.8,2.89a.37.37,0,0,1,.11.18Z"/>
      </g>
    </g>
  </g>
</svg>
