<svg xmlns="http://www.w3.org/2000/svg" width="27" height="23.03" viewBox="0 0 27 23.03">
  <defs>
    <style>
      .cls-1 {
        fill: #ff5274;
      }
    </style>
  </defs>
  <title>callback-6</title>
  <g id="Layer_2" data-name="Layer 2">
    <g id="Ñëîé_1" data-name="Ñëîé 1">
      <g>
        <path class="cls-1" d="M26.94,21.33l-3.6-7.93a.7.7,0,0,0-.34-.34l-4.44-2L18,12.28l4.22,1.92L25,20.27l-4.56-2-1.56-4.07a.69.69,0,0,0-.88-.4.68.68,0,0,0-.39.88L19,18.45l-4.84,2.73V18.52H12.82v2.66L8,18.45l1.45-3.79A.68.68,0,0,0,9,13.78a.69.69,0,0,0-.88.4L6.6,18.25,2,20.27,4.79,14.2,9,12.33l-.55-1.25L4,13.06a.7.7,0,0,0-.34.34L.06,21.33a.67.67,0,0,0,.14.76.67.67,0,0,0,.76.14L7.1,19.51l6.06,3.43a.69.69,0,0,0,.34.09.63.63,0,0,0,.33-.09h0l6.06-3.43L26,22.23a.68.68,0,0,0,.9-.9Z"/>
        <path class="cls-1" d="M13.5,17.38a.68.68,0,0,0,.58-.33c.52-.87,5-8.58,5-11.42a5.63,5.63,0,1,0-11.26,0c0,2.84,4.52,10.55,5,11.42A.7.7,0,0,0,13.5,17.38Zm0-16a4.28,4.28,0,0,1,4.27,4.27c0,1.83-2.7,7-4.27,9.71-1.58-2.76-4.27-7.88-4.27-9.71A4.27,4.27,0,0,1,13.5,1.36Z"/>
        <path class="cls-1" d="M16.74,5.63A3.24,3.24,0,1,0,13.5,8.87,3.25,3.25,0,0,0,16.74,5.63Zm-5.12,0A1.88,1.88,0,1,1,13.5,7.51,1.88,1.88,0,0,1,11.62,5.63Z"/>
      </g>
    </g>
  </g>
</svg>
