<svg xmlns="http://www.w3.org/2000/svg" width="21" height="24.8" viewBox="0 0 21 24.8">
  <defs>
    <style>
      .cls-1 {
        fill: #ff5274;
      }
    </style>
  </defs>
  <title>callback-3</title>
  <g id="Layer_2" data-name="Layer 2">
    <g id="Ñëîé_1" data-name="Ñëîé 1">
      <g>
        <path class="cls-1" d="M10.5,14.27A3.23,3.23,0,1,1,13.73,11,3.23,3.23,0,0,1,10.5,14.27Zm0-5A1.82,1.82,0,1,0,12.31,11,1.82,1.82,0,0,0,10.5,9.22Z"/>
        <path class="cls-1" d="M6.19,20.19H4.77V17.9a2.69,2.69,0,0,1,2.69-2.69h6.08a2.7,2.7,0,0,1,2.69,2.69v2.28H14.81V17.9a1.28,1.28,0,0,0-1.27-1.28H7.46a1.27,1.27,0,0,0-.9.38,1.3,1.3,0,0,0-.37.9Z"/>
        <path class="cls-1" d="M18.22,24.8H2.78A2.79,2.79,0,0,1,0,22V6.58A2.79,2.79,0,0,1,2.78,3.8h2.8L9.43.42a1.59,1.59,0,0,1,2.15,0L15.42,3.8h2.8A2.79,2.79,0,0,1,21,6.58V22A2.79,2.79,0,0,1,18.22,24.8ZM2.78,5.21A1.37,1.37,0,0,0,1.42,6.58V22a1.36,1.36,0,0,0,1.36,1.36H18.22A1.36,1.36,0,0,0,19.58,22V6.58a1.37,1.37,0,0,0-1.36-1.37H15.15A.71.71,0,0,1,14.69,5L10.63,1.48l0,0a.17.17,0,0,0-.21,0l0,0L6.31,5a.71.71,0,0,1-.46.17Z"/>
      </g>
    </g>
  </g>
</svg>
