<svg xmlns="http://www.w3.org/2000/svg" width="27" height="22.41" viewBox="0 0 27 22.41">
  <defs>
    <style>
      .cls-1 {
        fill: #ff5274;
      }
    </style>
  </defs>
  <title>callback-5</title>
  <g id="Layer_2" data-name="Layer 2">
    <g id="Ñëîé_1" data-name="Ñëîé 1">
      <g>
        <path class="cls-1" d="M24.28,0H13.35a2.73,2.73,0,0,0-2.73,2.72V4.34h1.29V2.72a1.44,1.44,0,0,1,1.44-1.43H24.28a1.43,1.43,0,0,1,1.43,1.43V10a1.44,1.44,0,0,1-1.43,1.44h-1a.64.64,0,0,0-.64.64v2.62l-2.63-3a.64.64,0,0,0-.48-.22H17.39v1.28h1.82l3.56,4.14a.68.68,0,0,0,.49.22.54.54,0,0,0,.22,0,.63.63,0,0,0,.42-.6V12.74h.38A2.72,2.72,0,0,0,27,10V2.72A2.72,2.72,0,0,0,24.28,0Z"/>
        <path class="cls-1" d="M13.65,5.31H2.72A2.72,2.72,0,0,0,0,8v7.29a2.72,2.72,0,0,0,2.72,2.72H3.1v3.72a.62.62,0,0,0,.42.6.54.54,0,0,0,.22,0,.68.68,0,0,0,.49-.22l3.56-4.14h5.86a2.73,2.73,0,0,0,2.73-2.72V8A2.73,2.73,0,0,0,13.65,5.31Zm1.44,10a1.45,1.45,0,0,1-1.44,1.44H7.49A.64.64,0,0,0,7,17L4.38,20V17.41a.64.64,0,0,0-.64-.64h-1a1.44,1.44,0,0,1-1.43-1.44V8A1.43,1.43,0,0,1,2.72,6.6H13.65A1.44,1.44,0,0,1,15.09,8Z"/>
      </g>
    </g>
  </g>
</svg>
