<svg xmlns="http://www.w3.org/2000/svg" width="24" height="29.73" viewBox="0 0 24 29.73">
  <defs>
    <style>
      .cls-1 {
        fill: #ff5274;
      }
    </style>
  </defs>
  <title>callback-2</title>
  <g id="Layer_2" data-name="Layer 2">
    <g id="Ñëîé_1" data-name="Ñëîé 1">
      <g>
        <path class="cls-1" d="M4.31,21.92A10.43,10.43,0,0,1,12,4.44h.93V2.72l4.13,2.39L12.93,7.5V5.78H12A9.09,9.09,0,0,0,6,21.66a.79.79,0,1,0,1-1.17A7.52,7.52,0,0,1,11.36,7.38v2.84L20.2,5.11,11.36,0V2.89A12,12,0,0,0,3.16,23a.77.77,0,0,0,.58.26A.81.81,0,0,0,4.27,23,.79.79,0,0,0,4.31,21.92Z"/>
        <path class="cls-1" d="M20.88,6.8a.78.78,0,0,0-1.11,0,.79.79,0,0,0-.05,1.11A10.43,10.43,0,0,1,12,25.3h-.93V27L6.94,24.62l4.13-2.39V24H12A9.09,9.09,0,0,0,18,8.07a.77.77,0,0,0-1.1.07A.78.78,0,0,0,17,9.24a7.53,7.53,0,0,1-4.35,13.13V19.51L3.8,24.61l8.84,5.12V26.85a12,12,0,0,0,8.24-20Z"/>
      </g>
    </g>
  </g>
</svg>
