<svg xmlns="http://www.w3.org/2000/svg" viewBox="0 0 27 22.93" width="27" height="23">
  <defs>
    <style>
      .cls-1 {
        fill: #ff5274;
      }
    </style>
  </defs>
  <title>services-1</title>
  <g id="Layer_2" data-name="Layer 2">
    <g id="Ñëîé_1" data-name="Ñëîé 1">
      <g>
        <path class="cls-1" d="M26.84,15.78a3.67,3.67,0,0,0-3.22-3.53q-1.77-.23-3.54-.36V10.52a.68.68,0,0,0-.68-.68H16.29a.68.68,0,0,0-.68.68v1.14c-.54,0-1.09,0-1.63,0l-2.43,0V10.52a.67.67,0,0,0-.68-.68H7.77a.67.67,0,0,0-.68.68v1.39c-1.3.1-2.59.24-3.88.4a3.67,3.67,0,0,0-3.19,4v.07a3.3,3.3,0,0,0,0,.45l.17,3.5a3,3,0,0,0,.76,1.87.86.86,0,0,0,.14.13c.16.13.44.37,3,.37h1A28.33,28.33,0,0,0,8,22.81H8a.72.72,0,0,0,.39-.12,2.11,2.11,0,0,0,1,.24h2.79a2,2,0,0,0,1.36-.52,2.07,2.07,0,0,0,1.36.52h2.8a2.11,2.11,0,0,0,1-.24.72.72,0,0,0,.39.12h0A24.36,24.36,0,0,0,22,22.69h1c2.48,0,2.76-.23,2.92-.37a.89.89,0,0,0,.14-.13,2.91,2.91,0,0,0,.76-1.87L27,16.82A2.65,2.65,0,0,0,26.84,15.78ZM17,11.2h1.75v.59c-.58,0-1.17-.06-1.75-.09Zm-8.53,0H10.2v.52l-1.76.1Zm-5,2.47A80.06,80.06,0,0,1,14,13a79.25,79.25,0,0,1,9.48.6,2.3,2.3,0,0,1,1.74,1.18,8,8,0,0,0-2.53,1.52c-.07-.22-.13-.42-.19-.59a1.76,1.76,0,0,0-1.39-1.19,3.4,3.4,0,0,0-2.46,1.43l-.06-.22A2.34,2.34,0,0,0,16.43,14h-.27A2.4,2.4,0,0,0,14,15.78l-.47,1.67-.47-1.67A2.38,2.38,0,0,0,10.91,14h-.27a2.33,2.33,0,0,0-2.13,1.7L8.42,16c-.8-.85-1.89-1.6-2.49-1.52A1.74,1.74,0,0,0,4.54,15.7c-.06.15-.12.34-.18.54A7.68,7.68,0,0,0,1.7,14.75,2.3,2.3,0,0,1,3.39,13.66Zm16.08,5.28-.39-1.39a4.13,4.13,0,0,1,1.85-1.69.4.4,0,0,1,.25.28c.12.34.33.95.51,1.57h0A10.59,10.59,0,0,1,22,19.08a10.94,10.94,0,0,1,0,2.21s0,0,0,0a19.47,19.47,0,0,1-2.38.13,2.09,2.09,0,0,0,.07-.51A7.65,7.65,0,0,0,19.47,18.94ZM5.24,21.36H5.15l-.18,0v0a10.12,10.12,0,0,1,0-2.21,20.61,20.61,0,0,1,.84-2.94A.47.47,0,0,1,6,15.87,5.55,5.55,0,0,1,8,17.62L7.6,19a7.56,7.56,0,0,0-.26,2,2.72,2.72,0,0,0,.08.51C6.58,21.44,5.73,21.41,5.24,21.36Zm-3.7-1.09-.18-3.48a1.37,1.37,0,0,1,0-.3v0a.73.73,0,0,1,.15-.38,8.57,8.57,0,0,1,2.4,1.55,10.18,10.18,0,0,0-.29,1.24,11.47,11.47,0,0,0,0,2.47,12.82,12.82,0,0,1-1.71-.11A1.6,1.6,0,0,1,1.54,20.27Zm10.63,1.31H9.38a.68.68,0,0,1-.68-.66,6.24,6.24,0,0,1,.2-1.62l.92-3.21a1,1,0,0,1,.88-.72h.15a1,1,0,0,1,.91.78l.89,3.14a6.88,6.88,0,0,1,.21,1.63A.69.69,0,0,1,12.17,21.58Zm5.52,0h-2.8a.68.68,0,0,1-.68-.66,5.87,5.87,0,0,1,.21-1.62l.89-3.15a1,1,0,0,1,.91-.78h.14a1,1,0,0,1,.89.72l.91,3.2a6.4,6.4,0,0,1,.21,1.63A.68.68,0,0,1,17.69,21.58Zm7.78-1.31a1.72,1.72,0,0,1-.36,1,13.64,13.64,0,0,1-1.71.1,11.56,11.56,0,0,0,0-2.47,10.59,10.59,0,0,0-.27-1.18,9,9,0,0,1,2.39-1.61l.06.08,0,.07a1.37,1.37,0,0,1,.07.53Z"/>
        <path class="cls-1" d="M1.12,5.77a3,3,0,0,0,2.51.58c1.27-.28,2.56-.5,3.85-.67V7.2a1.15,1.15,0,0,0,.37.85l.65.63A1.17,1.17,0,0,0,9.32,9a1.19,1.19,0,0,0,.82-.33l.65-.63a1.19,1.19,0,0,0,.37-.85V5.35c.66,0,1.33-.06,2-.06.95,0,1.91,0,2.86.07V7.2a1.18,1.18,0,0,0,.36.85l.66.63a1.17,1.17,0,0,0,1.63,0l.66-.63a1.18,1.18,0,0,0,.36-.85V5.72c1.19.17,2.37.38,3.55.63a2.8,2.8,0,0,0,.64.08,3,3,0,0,0,1.86-.66,3,3,0,0,0,1.12-2.33V.68a.68.68,0,1,0-1.36,0V3.44a1.62,1.62,0,0,1-.61,1.27A1.6,1.6,0,0,1,23.52,5c-1.39-.31-2.8-.54-4.21-.72A.65.65,0,0,0,19,4.23l-.15,0a47.52,47.52,0,0,0-5.71-.32A48.66,48.66,0,0,0,8,4.24H8A46.13,46.13,0,0,0,3.34,5a1.63,1.63,0,0,1-2-1.59V.68A.68.68,0,0,0,0,.68V3.44A3,3,0,0,0,1.12,5.77ZM18.33,7.12l-.48.46-.49-.46V5.46l1,.09Zm-8.53,0-.48.46-.48-.46V5.52l1-.09Z"/>
      </g>
    </g>
  </g>
</svg>
