<svg xmlns="http://www.w3.org/2000/svg" viewBox="0 0 27 28.94" width="27" height="29">
  <defs>
    <style>
      .cls-1 {
        fill: #ff5274;
      }
    </style>
  </defs>
  <title>services-3</title>
  <g id="Layer_2" data-name="Layer 2">
    <g id="Ñëîé_1" data-name="Ñëîé 1">
      <g>
        <path class="cls-1" d="M25.84,19,19.6,16.72a.54.54,0,0,0-.31,0l-9,1.49A2.83,2.83,0,0,0,10,16.69l1.43-.81h6.93a.61.61,0,0,0,.61-.61.61.61,0,0,0-.61-.61H11.28a.61.61,0,0,0-.3.08l-1.59.9A17.72,17.72,0,0,0,5.33,12a.62.62,0,0,0,0-.13A6.26,6.26,0,0,0,3.47,8.34,1.83,1.83,0,0,0,1.26,8.1l-.38.24A1.76,1.76,0,0,0,.05,9.48a1.82,1.82,0,0,0,.24,1.4l.37.58,1.67,2.46v0L7,20.82a3.59,3.59,0,0,0,1.06,1l.29.17L10,24.44H7.74a2.84,2.84,0,0,0-2.83,2.84v1a.61.61,0,0,0,.61.61H22.36a.62.62,0,0,0,.61-.61.61.61,0,0,0-.61-.61H6.13v-.44a1.61,1.61,0,0,1,1.61-1.62h6.82a.61.61,0,0,0,0-1.22H11.4l-1.35-2a3.15,3.15,0,0,0,.61-.06l3.64-.72L17,25.35a.63.63,0,0,0,.49.25h5.64a1.62,1.62,0,0,1,1.62,1.61.61.61,0,1,0,1.21,0,2.83,2.83,0,0,0-2.83-2.83H17.8l-2.19-3,3.93-.78,5.11,1.76a1.65,1.65,0,0,0,.58.1,1.7,1.7,0,0,0,.79-.19,1.8,1.8,0,0,0,.9-1.05A1.78,1.78,0,0,0,25.84,19ZM3,12.76l-1.33-2-.37-.58a.58.58,0,0,1-.08-.46.65.65,0,0,1,.28-.39l.38-.23a.62.62,0,0,1,.32-.09.61.61,0,0,1,.42.17,5.48,5.48,0,0,1,1.5,2.61.24.24,0,0,1,0,.12h0a1.31,1.31,0,0,1-.45.41Zm22.75,8.08a.6.6,0,0,1-.28.34.66.66,0,0,1-.44,0l-5.25-1.82a.7.7,0,0,0-.32,0l-5,1h0l-4,.78A2.31,2.31,0,0,1,9,21H9a1.51,1.51,0,0,1-.28-.15,2.27,2.27,0,0,1-.7-.68L3.69,13.77l.59-.37c.16-.11.3-.22.42-.32C6.87,14.54,9.45,16.91,9,18.17a1,1,0,0,1-.22.36l-.76.74a.61.61,0,0,0,0,.86.62.62,0,0,0,.86,0l.62-.61,9.81-1.61,6.09,2.23A.56.56,0,0,1,25.76,20.84Z"/>
        <path class="cls-1" d="M17.7,10.72a.57.57,0,0,0,.39.14.6.6,0,0,0,.46-.21l.84-1a3,3,0,0,0,.71-2.22,3,3,0,0,0-1.05-2.07L17.23,3.84,18,3l2.64,0a.61.61,0,0,0,0-1.21l-2.93-.06a.63.63,0,0,0-.47.22l-.94,1.1-.56-.47,1.14-1.33h5.47A.62.62,0,0,0,23,.64.61.61,0,0,0,22.36,0H16.61a.61.61,0,0,0-.46.21L14.83,1.79,13.59.73a3,3,0,0,0-4.29.34L8.47,2a.59.59,0,0,0-.15.44.63.63,0,0,0,.21.42ZM10.22,1.86a1.84,1.84,0,0,1,2.58-.21l5.46,4.66a1.83,1.83,0,0,1,.63,1.25,1.8,1.8,0,0,1-.43,1.33L18,9.4l-8.24-7Z"/>
        <path class="cls-1" d="M11.64,9.14a.6.6,0,0,0,.46-.21l.73-.85a.61.61,0,0,0-.07-.86.59.59,0,0,0-.85.07l-.73.85a.61.61,0,0,0,.07.86A.62.62,0,0,0,11.64,9.14Z"/>
        <path class="cls-1" d="M11.36,5.84a.61.61,0,0,0-.68-.53L9,5.52A.61.61,0,0,0,9,6.73H9.1l1.73-.21A.61.61,0,0,0,11.36,5.84Z"/>
        <path class="cls-1" d="M14.43,8.65h0a.6.6,0,0,0-.58.63l.06,1.53a.62.62,0,0,0,.61.59h0a.6.6,0,0,0,.58-.63L15,9.23A.6.6,0,0,0,14.43,8.65Z"/>
      </g>
    </g>
  </g>
</svg>
