<svg xmlns="http://www.w3.org/2000/svg" viewBox="0 0 14 25.37" width="14" height="25">
  <defs>
    <style>
      .cls-1 {
        fill: #ff5274;
      }
    </style>
  </defs>
  <title>services-2</title>
  <g id="Layer_2" data-name="Layer 2">
    <g id="Ñëîé_1" data-name="Ñëîé 1">
      <g>
        <path class="cls-1" d="M13.8,3.05a5.39,5.39,0,0,0-.51-1.24A3.66,3.66,0,0,0,10.09,0a3.42,3.42,0,0,0-.65.06L7,.49,4.57.06A3.52,3.52,0,0,0,3.91,0,3.69,3.69,0,0,0,.7,1.82,5.65,5.65,0,0,0,0,4.65a5.87,5.87,0,0,0,.36,2L.46,7c.29.83.6,1.68.84,2.52l.09.31v4a.53.53,0,0,0,.53.53h.86l1,.79v6.62a2.3,2.3,0,0,0,.78,1.73l2,1.82a0,0,0,0,1,0,0l0,0,.06,0,0,0,.07,0h.26l.07,0,0,0,0,0a.05.05,0,0,1,0,0,0,0,0,0,1,0,0l2.05-1.82a2.33,2.33,0,0,0,.77-1.73V16.55h0V15.07l1-.79h.86a.53.53,0,0,0,.53-.53v-4l.06-.21c.24-.83.55-1.66.84-2.47l.16-.43a6.06,6.06,0,0,0,.35-2A6.38,6.38,0,0,0,13.8,3.05ZM11.54,13.22H2.44v-3h9.1ZM6.78,15.85a6.84,6.84,0,0,1,2.33,1v1.28A8.48,8.48,0,0,0,7,17.37l-2.1-.44V15.45Zm1.91,6.78A8.2,8.2,0,0,0,7,22.08l-2.1-.44V20.51l1.89.39A7.18,7.18,0,0,1,8,21.28a7.26,7.26,0,0,1,1.09.52A1.27,1.27,0,0,1,8.69,22.63ZM7,24.14,5.54,22.85l1.22.26a6.9,6.9,0,0,1,1,.3Zm1.4-3.84A7.76,7.76,0,0,0,7,19.87l-2.1-.44V18l1.89.39a7.89,7.89,0,0,1,2.35.9v1.31C8.87,20.5,8.63,20.39,8.39,20.3Zm.93-5.91a.5.5,0,0,0-.21.42v.79A7.82,7.82,0,0,0,7,14.82l-2.42-.5-.05,0H9.46Zm3.34-8.07-.16.43c-.29.79-.58,1.61-.83,2.44H2.32c-.26-.88-.57-1.75-.87-2.59l-.1-.28a4.74,4.74,0,0,1-.3-1.67,4.52,4.52,0,0,1,.57-2.31,2.63,2.63,0,0,1,2.3-1.29,3.42,3.42,0,0,1,.46,0l2.53.45a.54.54,0,0,0,.18,0l2.53-.45a3.43,3.43,0,0,1,.47,0,2.62,2.62,0,0,1,2.29,1.28,4.28,4.28,0,0,1,.4,1A5.15,5.15,0,0,1,13,4.65,5,5,0,0,1,12.66,6.32Z"/>
        <path class="cls-1" d="M3.46,12.68H7.29a.53.53,0,0,0,0-1H4V11a.53.53,0,0,0-1.06,0v1.16A.52.52,0,0,0,3.46,12.68Z"/>
        <path class="cls-1" d="M11.73,2.69A2.76,2.76,0,0,0,9,1.82l-1.84.4a.53.53,0,1,0,.23,1l1.84-.4a1.71,1.71,0,0,1,1.69.53l.09.11a2,2,0,0,1,.35,1.18.53.53,0,0,0,.53.53h0a.53.53,0,0,0,.53-.53,3.05,3.05,0,0,0-.56-1.8Z"/>
      </g>
    </g>
  </g>
</svg>
