<svg xmlns="http://www.w3.org/2000/svg" viewBox="0 0 17 21.81" width="17" height="22">
  <defs>
    <style>
      .cls-1 {
        fill: #ff5274;
      }
    </style>
  </defs>
  <title>services-6</title>
  <g id="Layer_2" data-name="Layer 2">
    <g id="Ñëîé_1" data-name="Ñëîé 1">
      <g>
        <path class="cls-1" d="M16,6a.46.46,0,0,0-.4.51,7.77,7.77,0,0,1,0,.85,6.12,6.12,0,0,1-.81,3l-.87,1.53a6.1,6.1,0,0,0-.8,2.54,12.86,12.86,0,0,1-1.66,5.28l-.58,1a.38.38,0,0,1-.32.18.37.37,0,0,1-.38-.37V18.84a7.32,7.32,0,0,0-.39-2.37l-.23-.67a1.36,1.36,0,0,0-2.55,0l-.23.62a7.32,7.32,0,0,0-.46,2.54v1.59a.36.36,0,0,1-.37.37.4.4,0,0,1-.33-.18l-.58-1A13,13,0,0,1,3.4,14.42a6.26,6.26,0,0,0-.81-2.54l-.87-1.53a6.12,6.12,0,0,1-.81-3,5.72,5.72,0,0,1,.71-2.88A3.35,3.35,0,0,1,4.54,2.79a3.05,3.05,0,0,1,.6.06l3,.53h.16l1.87-.33a.46.46,0,1,0-.15-.9l-1.8.32L5.29,2a3.74,3.74,0,0,0-.75-.07A4.27,4.27,0,0,0,.83,4,6.61,6.61,0,0,0,0,7.31a7.08,7.08,0,0,0,.93,3.5l.87,1.52a5.47,5.47,0,0,1,.69,2.17,13.75,13.75,0,0,0,1.77,5.65l.58,1a1.29,1.29,0,0,0,2.41-.64V18.93a6.23,6.23,0,0,1,.4-2.22l.23-.62a.44.44,0,0,1,.41-.29.44.44,0,0,1,.41.3l.23.67a6.34,6.34,0,0,1,.35,2.07v1.68a1.28,1.28,0,0,0,2.4.64l.58-1A13.76,13.76,0,0,0,14,14.5a5.3,5.3,0,0,1,.68-2.17l.88-1.52a7.17,7.17,0,0,0,.92-3.5,7.52,7.52,0,0,0-.05-1A.46.46,0,0,0,16,6Z"/>
        <path class="cls-1" d="M2.87,4.71c-.05,0-.09.11-.14.17a3,3,0,0,0-.54,1.76.45.45,0,0,0,.46.46h0a.45.45,0,0,0,.45-.46,2.05,2.05,0,0,1,.37-1.22l.09-.12a1.81,1.81,0,0,1,1.77-.55.46.46,0,0,0,.2-.9A2.7,2.7,0,0,0,2.87,4.71Z"/>
        <path class="cls-1" d="M16.73,4.36l-.42-.15a10.28,10.28,0,0,0-1-.27c-.25,0-.66-.11-1.22-.17A.92.92,0,0,1,13.25,3a12.54,12.54,0,0,0-.19-1.24,8.46,8.46,0,0,0-.27-1,3.11,3.11,0,0,0-.15-.41A.45.45,0,0,0,12.22,0a.46.46,0,0,0-.42.28s-.06.16-.14.41a8.69,8.69,0,0,0-.27,1c-.08.37-.14.78-.19,1.22a.92.92,0,0,1-.82.82c-.44,0-.85.11-1.22.19a9,9,0,0,0-1,.27l-.42.15a.46.46,0,0,0-.28.42.47.47,0,0,0,.29.42l.4.15c.34.1.69.19,1,.26a11.42,11.42,0,0,0,1.22.17.92.92,0,0,1,.81.82,12.4,12.4,0,0,0,.2,1.24,9.63,9.63,0,0,0,.26,1c.09.25.15.39.15.41a.46.46,0,0,0,.42.28.45.45,0,0,0,.42-.28,4,4,0,0,0,.15-.41,9.52,9.52,0,0,0,.27-1,12.1,12.1,0,0,0,.19-1.22.93.93,0,0,1,.82-.82,10.1,10.1,0,0,0,1.22-.19,8.45,8.45,0,0,0,1-.26,3.11,3.11,0,0,0,.41-.15A.45.45,0,0,0,17,4.78.46.46,0,0,0,16.73,4.36ZM14,4.89a1.85,1.85,0,0,0-1.63,1.63q0,.45-.12.84c0-.27-.08-.55-.12-.86a1.84,1.84,0,0,0-1.62-1.63c-.32,0-.6-.06-.81-.1l.81-.11A1.83,1.83,0,0,0,12.11,3c0-.28.07-.56.11-.81q.07.39.12.84A1.85,1.85,0,0,0,14,4.68l.81.1C14.52,4.83,14.25,4.86,14,4.89Z"/>
      </g>
    </g>
  </g>
</svg>
