<svg xmlns="http://www.w3.org/2000/svg" viewBox="0 0 33 28.8" width="33" height="29">
  <defs>
    <style>
      .cls-1 {
        fill: #ff5274;
      }
    </style>
  </defs>
  <title>services-4</title>
  <g id="Layer_2" data-name="Layer 2">
    <g id="Ñëîé_1" data-name="Ñëîé 1">
      <g>
        <path class="cls-1" d="M33,7.44a.63.63,0,0,0-.68-.51l-6.95.54a.68.68,0,0,0-.45.23l-5.55,6.55a1.23,1.23,0,0,0-1.55.26l-4.93,5.82a1.24,1.24,0,0,0-.29.88,1.2,1.2,0,0,0,.29.68L9,26.42a.65.65,0,0,0,.07.91l1.46,1.31a.67.67,0,0,0,.43.16h0a.64.64,0,0,0,.45-.23L15.34,24a1.22,1.22,0,0,0,.76.27,1.19,1.19,0,0,0,.92-.42L22,18a1.21,1.21,0,0,0-.14-1.7l-1.46-1.24,5.37-6.34,1.94-.15-1.49.55a.56.56,0,0,0-.27.19l-4.68,5.51a.65.65,0,0,0,.08.92.61.61,0,0,0,.42.16.66.66,0,0,0,.5-.23l4.56-5.39L32.57,8.2A.66.66,0,0,0,33,7.44ZM17.8,20.92l-1.16-3,1.29-1.52,1.26,2.9Zm-6.88,6.29-.49-.43,3.42-4,.5.42Zm5.17-4.27-1.7-1.45a.74.74,0,0,0-.16-.2.94.94,0,0,0-.22-.12l-.08-.07L15.68,19l1.16,3Zm4.05-4.77-1.07-2.46,1.83,1.55Z"/>
        <path class="cls-1" d="M13.64,9.85a1.2,1.2,0,0,0-.33-.73l2.2-2.59a3.93,3.93,0,0,1,2.37-1.35,6,6,0,0,0,3,1.08l.67,0c2.26,0,4.06-1.11,4.21-2.7A2.79,2.79,0,0,0,24.5,1.15a5.93,5.93,0,0,0-3-1.12C19-.2,17,.85,16.62,2.45a5.92,5.92,0,0,0-3.36,2L11,7.14a1.21,1.21,0,0,0-1.55.25L.41,18a1.74,1.74,0,0,0,.2,2.44l1.3,1.1a1.73,1.73,0,0,0,2.44-.2l9-10.62A1.16,1.16,0,0,0,13.64,9.85Zm7.69-8.52a4.75,4.75,0,0,1,2.38.86,1.62,1.62,0,0,1,.73,1.27C24.36,4.32,22.92,5.14,21,5a4.75,4.75,0,0,1-2.38-.86,1.72,1.72,0,0,1-.72-1V3h0V2.83C18,2,19.4,1.15,21.33,1.33Zm-7.07,4a4.54,4.54,0,0,1,2.48-1.51,2.3,2.3,0,0,0,.15.32,5.1,5.1,0,0,0-2.38,1.6L12.32,8.27,12,8Zm-5,8.31-1-2.8,1.28-1.5L10.6,12ZM7.13,16.06,6,13.45,7.26,12l1,2.79Zm-2,2.38L4,15.83l1.08-1.27,1.14,2.61Zm-2,2.21a.38.38,0,0,1-.31-.1l-1.3-1.1a.41.41,0,0,1-.15-.29.4.4,0,0,1,.1-.31L3,16.94l1.14,2.61-.81.95A.43.43,0,0,1,3.07,20.65Zm8.48-9.81-.91-2.28L12.3,10Z"/>
      </g>
    </g>
  </g>
</svg>
