<svg xmlns="http://www.w3.org/2000/svg" viewBox="0 0 27 21.43" width="27" height="21">
  <defs>
    <style>
      .cls-1 {
        fill: #ff5274;
      }
    </style>
  </defs>
  <title>services-8</title>
  <g id="Layer_2" data-name="Layer 2">
    <g id="Ñëîé_1" data-name="Ñëîé 1">
      <g>
        <path class="cls-1" d="M16.64,17.65l.53-.91a12.82,12.82,0,0,0,1.62-5.18,4.71,4.71,0,0,1,.61-1.91l.79-1.39A6.49,6.49,0,0,0,21,5,6.09,6.09,0,0,0,20.28,2a4,4,0,0,0-3.47-2,4.14,4.14,0,0,0-.7.06L13.44.53,10.77.06A4.17,4.17,0,0,0,10.06,0,4,4,0,0,0,6.6,2,6.1,6.1,0,0,0,5.83,5a6.5,6.5,0,0,0,.86,3.22l.79,1.39a4.71,4.71,0,0,1,.61,1.91,12.66,12.66,0,0,0,1.62,5.18l.53.91a1.28,1.28,0,0,0,2.4-.64V15.49a5.72,5.72,0,0,1,.3-1.84l.21-.61a.29.29,0,0,1,.27-.19.28.28,0,0,1,.26.18l.21.56a5.82,5.82,0,0,1,.35,2V17a1.28,1.28,0,0,0,2.4.64ZM15.3,17V15.57a6.73,6.73,0,0,0-.42-2.35l-.21-.56a1.34,1.34,0,0,0-2.52,0l-.21.61a6.8,6.8,0,0,0-.37,2.19V17a.22.22,0,0,1-.22.22.21.21,0,0,1-.19-.11l-.53-.91a11.65,11.65,0,0,1-1.49-4.74A5.67,5.67,0,0,0,8.4,9.12L7.61,7.74A5.45,5.45,0,0,1,6.9,5a5.1,5.1,0,0,1,.62-2.55,2.93,2.93,0,0,1,3.06-1.38l2.77.48a.28.28,0,0,0,.18,0l2.76-.48a3.07,3.07,0,0,1,.53-.05,2.93,2.93,0,0,1,2.54,1.43A5.1,5.1,0,0,1,20,5a5.46,5.46,0,0,1-.72,2.7l-.79,1.38a5.82,5.82,0,0,0-.74,2.35,11.49,11.49,0,0,1-1.48,4.74l-.53.91a.21.21,0,0,1-.19.11A.22.22,0,0,1,15.3,17Z"/>
        <path class="cls-1" d="M12.89,2.17,11.22,1.8a2.6,2.6,0,0,0-2.53.82l-.12.16a2.79,2.79,0,0,0-.52,1.67A.53.53,0,0,0,8.58,5h0a.53.53,0,0,0,.53-.53A1.81,1.81,0,0,1,9.43,3.4l.07-.1A1.55,1.55,0,0,1,11,2.84l1.67.37a.53.53,0,0,0,.23-1Z"/>
        <path class="cls-1" d="M26.75,13.49a4.85,4.85,0,0,0-4-.58,4.61,4.61,0,0,0-1.14.53A8.58,8.58,0,0,0,21.84,12a4.79,4.79,0,0,0,3-1.68,4.92,4.92,0,0,0,.93-3.9A.53.53,0,0,0,25.22,6,4.92,4.92,0,0,0,21.66,7.8a4.81,4.81,0,0,0-.9,3.68.53.53,0,0,0,0,.12h0a7.34,7.34,0,0,1-5.53,7.12.54.54,0,0,0-.38.65.53.53,0,0,0,.51.4l.14,0a7.44,7.44,0,0,0,1.07-.35,4.6,4.6,0,0,0,3.81,2,5,5,0,0,0,3.11-1.16.52.52,0,0,0,.11-.69,4.91,4.91,0,0,0-3.33-2.21,4,4,0,0,0-.68-.05,8.55,8.55,0,0,0,.76-.95,5,5,0,0,0,2.33.6,4.26,4.26,0,0,0,1.23-.18,4.88,4.88,0,0,0,3-2.63A.52.52,0,0,0,26.75,13.49ZM22.5,8.44A3.75,3.75,0,0,1,24.78,7.1,3.67,3.67,0,0,1,24,9.64a3.79,3.79,0,0,1-2.24,1.29A3.74,3.74,0,0,1,22.5,8.44Zm-2.35,10a3.69,3.69,0,0,1,2.29,1.33A3.56,3.56,0,0,1,17.63,19,3.65,3.65,0,0,1,20.15,18.42Zm3.5-2.65a3.69,3.69,0,0,1-2.57-.24,3.54,3.54,0,0,1,4.67-1.38A3.7,3.7,0,0,1,23.65,15.77Z"/>
        <path class="cls-1" d="M11.74,18.73a7.34,7.34,0,0,1-5.53-7.12h0a.53.53,0,0,0,0-.12,4.81,4.81,0,0,0-.9-3.68A4.92,4.92,0,0,0,1.78,6a.53.53,0,0,0-.55.43,4.92,4.92,0,0,0,.93,3.9,4.79,4.79,0,0,0,3,1.68,8.84,8.84,0,0,0,.19,1.46,4.29,4.29,0,0,0-1.14-.54,4.85,4.85,0,0,0-4,.58.52.52,0,0,0-.2.67,4.88,4.88,0,0,0,3,2.63A4.21,4.21,0,0,0,4.29,17a5,5,0,0,0,2.33-.6,8.55,8.55,0,0,0,.76.95,4,4,0,0,0-.68.05,4.91,4.91,0,0,0-3.33,2.21.52.52,0,0,0,.11.69,5,5,0,0,0,3.11,1.16,4.81,4.81,0,0,0,.74-.06,4.83,4.83,0,0,0,3.07-2,7.44,7.44,0,0,0,1.07.35l.14,0a.53.53,0,0,0,.51-.4A.54.54,0,0,0,11.74,18.73Zm-8.39-3a3.7,3.7,0,0,1-2.1-1.62,3.7,3.7,0,0,1,2.64-.23,3.7,3.7,0,0,1,2,1.61A3.69,3.69,0,0,1,3.35,15.77ZM3,9.64A3.67,3.67,0,0,1,2.22,7.1,3.75,3.75,0,0,1,4.5,8.44a3.74,3.74,0,0,1,.73,2.49A3.79,3.79,0,0,1,3,9.64ZM7.15,20.32a3.69,3.69,0,0,1-2.59-.57,3.69,3.69,0,0,1,2.29-1.33A3.66,3.66,0,0,1,9.37,19,3.69,3.69,0,0,1,7.15,20.32Z"/>
      </g>
    </g>
  </g>
</svg>
