<svg xmlns="http://www.w3.org/2000/svg" viewBox="0 0 28 14.95" width="28" height="15">
  <defs>
    <style>
      .cls-1 {
        fill: #ff5274;
      }
    </style>
  </defs>
  <title>services-7</title>
  <g id="Layer_2" data-name="Layer 2">
    <g id="Ñëîé_1" data-name="Ñëîé 1">
      <path class="cls-1" d="M28,8.35l-.57-3A6.55,6.55,0,0,0,21,0H7.05A6.56,6.56,0,0,0,.61,5.33L0,8.35a2.06,2.06,0,0,0,.44,1.72,2.15,2.15,0,0,0,1.05.69V11a6.23,6.23,0,0,0,.4,2.62,2,2,0,0,0,2,1.28c.37,0,.94-.06,1.55-.06H6.61L8.22,15h.11a2.05,2.05,0,0,0,1.8-1.08A2,2,0,0,0,12,14.94c.37,0,1-.06,1.56-.06h1.12l1.6.08h.12a2,2,0,0,0,1.7-.93,2,2,0,0,0,1.81.92c.38,0,.95-.06,1.56-.06h1.12l1.6.08h.12a2.09,2.09,0,0,0,2-1.49,7,7,0,0,0,.28-2.41c0-.05,0-.17,0-.34A2.09,2.09,0,0,0,28,8.35Zm-4.42-.41h-.9V7.5a.57.57,0,1,0-1.13,0v.44h-.89a.56.56,0,0,0-.57.57V9.59l-1.24,0a6.37,6.37,0,0,1,1.65-3.55A2.3,2.3,0,0,1,22,5.48h.07a2.27,2.27,0,0,1,1.58.6,6,6,0,0,1,1.56,3.07l-1.15.16v-.8A.56.56,0,0,0,23.54,7.94Zm-2.35,2.92V9.07H23v1.79Zm-8.08,0V9.07h1.78v1.79Zm2.35-2.92h-.89V7.5a.57.57,0,0,0-1.14,0v.44h-.89a.57.57,0,0,0-.57.57V9.66l-1.07,0a6.3,6.3,0,0,1,1.65-3.55,2.28,2.28,0,0,1,1.58-.6h.07a2.3,2.3,0,0,1,1.58.6,6.37,6.37,0,0,1,1.65,3.59l-1.4,0V8.51A.57.57,0,0,0,15.46,7.94Zm-8.06,0H6.51V7.5a.57.57,0,0,0-1.14,0v.44H4.48a.57.57,0,0,0-.57.57v.64L2.92,9A5.78,5.78,0,0,1,4.45,6.08,2.26,2.26,0,0,1,6,5.48H6.1a2.26,2.26,0,0,1,1.57.6A6.26,6.26,0,0,1,9.31,9.56L8,9.49v-1A.57.57,0,0,0,7.4,7.94ZM5.05,10.86V9.07H6.83v1.79ZM9.24,13.1a1,1,0,0,1-1,.72c-.46,0-1.12-.07-1.65-.08H5.49c-.64,0-1.24,0-1.63.07a.92.92,0,0,1-.89-.6,5.19,5.19,0,0,1-.31-2.16,8.14,8.14,0,0,1,.06-.91l1.19.15v1.14a.57.57,0,0,0,.57.56h.89v.42a.57.57,0,0,0,1.14,0V12H7.4A.57.57,0,0,0,8,11.43v-.81l1.48.08c0,.21,0,.34,0,.37A6.09,6.09,0,0,1,9.24,13.1Zm7.14.72c-.46,0-1.12-.07-1.65-.08H13.59c-.64,0-1.24,0-1.63.07a.93.93,0,0,1-.89-.6,5.22,5.22,0,0,1-.3-2.16v-.29l1.2,0v.64a.57.57,0,0,0,.57.56h.89v.42a.57.57,0,0,0,1.14,0V12h.89a.57.57,0,0,0,.57-.56v-.6l1.52,0c0,.12,0,.2,0,.24,0,.27,0,.53,0,.77a4.85,4.85,0,0,1-.22,1.29A1,1,0,0,1,16.38,13.82Zm8.88-.72a1,1,0,0,1-1,.72c-.47,0-1.13-.07-1.65-.08H21.5c-.64,0-1.24,0-1.62.07a.94.94,0,0,1-.9-.6,4.37,4.37,0,0,1-.29-1.41c0-.24,0-.49,0-.75,0-.05,0-.14,0-.28l1.36,0v.71a.56.56,0,0,0,.57.56h.89v.42a.57.57,0,1,0,1.13,0V12h.9a.56.56,0,0,0,.56-.56v-1l1.33-.19h0v.05c0,.41.05.69.05.73A6.09,6.09,0,0,1,25.26,13.1Zm1.4-3.77a.81.81,0,0,1-.19.18,7.42,7.42,0,0,0-2-4.26,3.43,3.43,0,0,0-2.35-.9H22a3.44,3.44,0,0,0-2.35.9,6.29,6.29,0,0,0-1.57,2.52,6.29,6.29,0,0,0-1.57-2.52,3.43,3.43,0,0,0-2.35-.9h-.07a3.43,3.43,0,0,0-2.35.9,6.51,6.51,0,0,0-1.67,2.8,6.49,6.49,0,0,0-1.66-2.8,3.44,3.44,0,0,0-2.35-.9H6a3.4,3.4,0,0,0-2.34.9,7.55,7.55,0,0,0-2,4.34,1.13,1.13,0,0,1-.3-.24,1,1,0,0,1-.2-.79l.57-3A5.44,5.44,0,0,1,7.05,1.13H21a5.44,5.44,0,0,1,5.33,4.41l.57,3A1,1,0,0,1,26.66,9.33Z"/>
    </g>
  </g>
</svg>
