<svg xmlns="http://www.w3.org/2000/svg" viewBox="0 0 24 29.17" width="24" height="29">
  <defs>
    <style>
      .cls-1 {
        fill: #ff5274;
      }
    </style>
  </defs>
  <title>services-5</title>
  <g id="Layer_2" data-name="Layer 2">
    <g id="Ñëîé_1" data-name="Ñëîé 1">
      <path class="cls-1" d="M23.65,13.52a3,3,0,0,0-1.43-.62h-.06l-2.41-.14V10.64h0V7.25a.49.49,0,0,0-.36-.46l-.56-1.15V.49A.49.49,0,0,0,18.34,0a.48.48,0,0,0-.48.49V5.64L17.3,6.79a.48.48,0,0,0-.36.46v3.39h0v2.21l0,0a2.66,2.66,0,0,0-.87-.51.49.49,0,0,0-.29.93,1.74,1.74,0,0,1,.54.33c.35.3.72.61,1.1.9A19.2,19.2,0,0,1,18.9,15.7,14.44,14.44,0,0,1,20.06,18a.25.25,0,0,1-.2.22.47.47,0,0,1-.48-.26c-.15-.26-.6-1-.62-1a.57.57,0,0,0-.16-.15s-1.6-1-2.36-1.49c-.18-.7-.35-1.28-.47-1.62a2,2,0,0,0-.42-.72l-.18-.2a2.16,2.16,0,0,0-2-.72l-.54.08a.49.49,0,0,0-.41.56l0,.07a2.4,2.4,0,0,0-1.39-.45H7.15a.47.47,0,0,0-.41.23L1.92,20.39.1,22.69a.48.48,0,0,0,.09.68.46.46,0,0,0,.3.11.5.5,0,0,0,.38-.19L2.7,21l0,0,4.69-7.66h3.45a1.43,1.43,0,0,1,1.11.52,1.46,1.46,0,0,1,.34.76l.49,3.68a1.58,1.58,0,0,1-.24,1s-.13,0-.14,0a.88.88,0,0,1-.54-.65L11,14.74a.51.51,0,0,0-.27-.32.5.5,0,0,0-.43,0,1.57,1.57,0,0,1-1.34,0,.49.49,0,0,0-.67.16.48.48,0,0,0,.15.67,2.25,2.25,0,0,0,1.74.2l.81,3.24a1.88,1.88,0,0,0,1.16,1.33,1.11,1.11,0,0,0,1-.11,2.33,2.33,0,0,0,.64-1.78.13.13,0,0,0,0-.06v0a7.46,7.46,0,0,0,.36,1c.06.12.12.25.17.37a2.55,2.55,0,0,0,.83,1.21l-.64.14a.49.49,0,1,0,.17,1,24.44,24.44,0,0,0,3.13-.91c.69-.23,1.35-.45,1.73-.53a1.62,1.62,0,0,1,1.58.47.58.58,0,0,1,.16.4.29.29,0,0,1-.13.18,2.31,2.31,0,0,1-.78.26,4,4,0,0,0-.64.16l-3.85,1.29a31.1,31.1,0,0,0-3.35,1.36,10.89,10.89,0,0,1-2.36.77,14.3,14.3,0,0,0-6.27,3,.48.48,0,0,0-.1.68.47.47,0,0,0,.39.19.52.52,0,0,0,.29-.09,13.29,13.29,0,0,1,5.89-2.87,12.39,12.39,0,0,0,2.58-.84,30.38,30.38,0,0,1,3.24-1.32L20,22.76a4,4,0,0,1,.52-.13,3,3,0,0,0,1.12-.41,1.18,1.18,0,0,0,.55-.84,1.5,1.5,0,0,0-.37-1.16,2.5,2.5,0,0,0-2.53-.8,6.25,6.25,0,0,0-.64.17v-1a1.42,1.42,0,0,0,1.1.57,1.33,1.33,0,0,0,.28,0A1.2,1.2,0,0,0,21,18a9.84,9.84,0,0,0-1.18-2.57.47.47,0,0,0,.37.18H22c1.39-.09,1.84-.59,2-1A1,1,0,0,0,23.65,13.52Zm-9,4a14.05,14.05,0,0,0-.82-2.12.48.48,0,0,0-.42-.26l-.1-.77a2.57,2.57,0,0,0-.56-1.26s-.07-.05-.09-.09a.38.38,0,0,0,.15,0l.54-.08a1.2,1.2,0,0,1,1.11.4l.18.2a1.23,1.23,0,0,1,.23.4,25,25,0,0,1,1.09,5c0,.15,0,.43,0,.78a.25.25,0,0,1-.1.2c-.26-.05-.39-.29-.62-.83-.06-.14-.12-.29-.19-.42A7.88,7.88,0,0,1,14.63,17.56ZM17.48,20l-.68.23a1.12,1.12,0,0,0,.09-.41,7.26,7.26,0,0,0,0-.89,17.42,17.42,0,0,0-.34-2.24l1.13.7v2.54Zm.43-12.24h.86v2.41h-.86Zm0,5.9V11.12h.86v3.2L18,13.7Zm1.84,1.58v-.07a.2.2,0,0,0,0,.11Zm2.17-.62h-1.7a.48.48,0,0,0-.47.43v-1.3l2.32.13a2.06,2.06,0,0,1,.94.39s0,0,0,0S22.73,14.54,21.92,14.6Z"/>
    </g>
  </g>
</svg>
