<svg xmlns="http://www.w3.org/2000/svg" viewBox="0 0 182 38.76" width="182" height="39">
  <defs>
    <style>
      .cls-1, .cls-2 {
        fill: #249da3;
      }

      .cls-1 {
        fill-rule: evenodd;
      }

      .cls-3 {
        fill: #b4b4b4;
      }

      .cls-4 {
        fill: #505151;
      }
    </style>
  </defs>
  <title>logo</title>
  <g id="Layer_2" data-name="Layer 2">
    <g id="Layer_1-2" data-name="Layer 1">
      <path class="cls-1" d="M31.44,31.93c-5.37,11.61-8.32,5.09-9.27,4.23a52.27,52.27,0,0,1-3.76-4.8,52.27,52.27,0,0,1-3.76,4.8c-1,.86-3.9,7.38-9.27-4.23S-.08,10.81,0,9.39.1,4.24,3.08,1.77A8.53,8.53,0,0,1,11.51.63c2.49,1,6.9,5,6.9,5s4.4-3.9,6.89-4.95a8.52,8.52,0,0,1,8.43,1.14c3,2.47,3,6.19,3.07,7.62S36.8,20.32,31.44,31.93ZM26.71,15.77H21.16V10.19H15.65v5.58H10.11v5.56h5.54v5.58h5.51V21.33h5.55Z"/>
      <g>
        <path class="cls-2" d="M47.37,16.36c.4,1.25,1.38,2.1,3.66,2.1s2.91-.74,2.91-1.69-.65-1.62-3.57-2.12c-4.33-.74-5.2-2.12-5.2-3.87,0-2.5,2.4-3.83,5.4-3.83,4.38,0,5.52,2.29,5.67,3.72H53.51C53.29,10,52.83,9,50.49,9,48.87,9,48,9.51,48,10.51s.54,1.32,3.15,1.78c4.86.87,5.64,2.34,5.64,4.2,0,2.19-1.73,4-6,4-3.94,0-5.76-1.76-6.17-4.12Z"/>
        <path class="cls-2" d="M58.87,13.21c0-.81,0-1.62,0-2.43h2.48a7.9,7.9,0,0,1,.07,1.2,3.4,3.4,0,0,1,3-1.46,2.81,2.81,0,0,1,2.85,1.62,3.58,3.58,0,0,1,3.21-1.62c2,0,3.5,1.15,3.5,4v5.75H71.34V14.54c0-.9-.3-2-1.68-2-1.21,0-2,.77-2,2.49v5.21H65.12V14.52c0-1-.35-2-1.7-2s-2,1-2,2.54v5.16H58.87Z"/>
        <path class="cls-2" d="M76.38,8.78V6.47H79V8.78Zm0,2H79v9.45H76.38Z"/>
        <path class="cls-2" d="M81.41,20.23V6.47H84V20.23Z"/>
        <path class="cls-2" d="M88.49,16.12a2.47,2.47,0,0,0,2.61,2.4,2.3,2.3,0,0,0,2.27-1.13H96c-.55,1.6-1.93,3.09-4.9,3.09-3.71,0-5.17-2.54-5.17-5a4.82,4.82,0,0,1,5.14-5,4.71,4.71,0,0,1,5.06,5c0,.2,0,.36,0,.62Zm5-1.64A2.16,2.16,0,0,0,91,12.38a2.25,2.25,0,0,0-2.51,2.1Z"/>
        <path class="cls-3" d="M104.12,14.43v2.19H98.06V14.43Z"/>
        <path class="cls-3" d="M115.45,17.67c0,1.14.06,2.35.08,2.56h-2.45a5.63,5.63,0,0,1-.11-1.16c-.52.86-1.6,1.41-3.45,1.41-2.61,0-3.64-1.58-3.64-3.07,0-2.45,2.19-3.15,5-3.15h2.08v-.35c0-.84-.37-1.58-2-1.58s-1.79.59-1.93,1.23h-2.62c.09-1.19.92-3,4.51-3,3.89,0,4.53,1.85,4.53,3.43ZM112.91,16h-2c-1.71,0-2.45.42-2.45,1.32,0,.72.55,1.31,1.8,1.31,1.92,0,2.69-1,2.69-2.39Z"/>
        <path class="cls-3" d="M116.79,10.78h1.75V7.91h2.62v2.87h2.28V12.7h-2.28v4.36c0,.9.2,1.31,1.16,1.31a4,4,0,0,0,.84-.08V20.1a5.81,5.81,0,0,1-1.75.2c-2.21,0-2.87-1-2.87-2.82V12.7h-1.75Z"/>
        <path class="cls-3" d="M130.27,14.43v2.19h-6.06V14.43Z"/>
        <path class="cls-2" d="M146.48,13.67c0,3.63-2.43,6.83-7,6.83a6.52,6.52,0,0,1-6.88-6.81,6.67,6.67,0,0,1,7-6.74A6.57,6.57,0,0,1,146.48,13.67Zm-11.06,0c0,2.56,1.4,4.68,4.16,4.68s4-2.26,4-4.62-1.3-4.6-4.14-4.6C136.76,9.11,135.42,11.28,135.42,13.65Z"/>
        <path class="cls-2" d="M148.68,13.16c0-.79,0-1.7,0-2.38h2.54c0,.28.05.92.07,1.38a3.43,3.43,0,0,1,3.22-1.64c2.3,0,3.7,1.42,3.7,3.91v5.8h-2.63V14.85c0-1.23-.48-2.28-1.95-2.28s-2.32,1.14-2.32,3v4.66h-2.61Z"/>
        <path class="cls-2" d="M170.12,17.12c-.43,1.74-1.94,3.36-4.9,3.36-3.55,0-5.18-2.28-5.18-5a4.89,4.89,0,0,1,5.18-5c3.57,0,4.69,2.31,4.84,3.43h-2.61a2.11,2.11,0,0,0-2.21-1.46c-1.7,0-2.53,1.26-2.53,3s.8,3,2.51,3a2.22,2.22,0,0,0,2.28-1.38Z"/>
        <path class="cls-2" d="M173.92,16.12a2.47,2.47,0,0,0,2.61,2.4,2.29,2.29,0,0,0,2.27-1.13h2.59c-.55,1.6-1.93,3.09-4.89,3.09-3.72,0-5.18-2.54-5.18-5a4.82,4.82,0,0,1,5.14-5,4.7,4.7,0,0,1,5.06,5c0,.2,0,.36,0,.62Zm5-1.64a2.16,2.16,0,0,0-2.41-2.1,2.24,2.24,0,0,0-2.5,2.1Z"/>
      </g>
      <g>
        <path class="cls-4" d="M49.45,31.57H48.6V28.92h-3v2.65h-.85V25.86h.85v2.47h3V25.86h.85Z"/>
        <path class="cls-4" d="M56,27.4v2.71a1.31,1.31,0,0,1-.84,1.28,3.76,3.76,0,0,1-.76.21,5.36,5.36,0,0,1-.82.06c-1.6,0-2.4-.51-2.4-1.55v-2.7c0-1.09.8-1.64,2.4-1.64S56,26.32,56,27.4Zm-.83,2.7V27.38c0-.7-.53-1.05-1.58-1.05a3.42,3.42,0,0,0-.59,0,1.45,1.45,0,0,0-.5.15.83.83,0,0,0-.37.32,1,1,0,0,0-.13.54V30.1q0,1,1.59,1C54.66,31.09,55.19,30.76,55.19,30.1Z"/>
        <path class="cls-4" d="M61.89,29.48v1a.92.92,0,0,1-.47.88,3.51,3.51,0,0,1-1.55.25H57.76V25.86h2.05A3.48,3.48,0,0,1,61,26a1,1,0,0,1,.55.37,1.06,1.06,0,0,1,.13.56v.77a.73.73,0,0,1-.2.54,1.3,1.3,0,0,1-.59.27v0a1.61,1.61,0,0,1,.75.32A.73.73,0,0,1,61.89,29.48Zm-1-1.8V27a.47.47,0,0,0-.24-.45,1.68,1.68,0,0,0-.79-.14H58.62v1.94h1.21a1.37,1.37,0,0,0,.78-.16A.6.6,0,0,0,60.84,27.68ZM61,30.4v-.86a.64.64,0,0,0-.09-.36.48.48,0,0,0-.29-.2,1.88,1.88,0,0,0-.36-.07H58.62V31h1.25a2.21,2.21,0,0,0,.91-.13A.46.46,0,0,0,61,30.4Z"/>
        <path class="cls-4" d="M63.6,25.86h.85v2.47h.86c.28,0,.53,0,.72,0a2.9,2.9,0,0,1,.59.09,1.39,1.39,0,0,1,.47.19.93.93,0,0,1,.28.34,1.08,1.08,0,0,1,.11.52v.84c0,.83-.67,1.24-2,1.24H63.6Zm3,4.44v-.71a.56.56,0,0,0-.26-.55,2.39,2.39,0,0,0-1-.13h-1V31h1.35a2.41,2.41,0,0,0,.38-.07.73.73,0,0,0,.35-.22A.61.61,0,0,0,66.64,30.3Zm2.57,1.27h-.85V25.86h.85Z"/>
        <path class="cls-4" d="M75,31.57H71.07V25.86h3.84v.6h-3v1.87h2.7v.59h-2.7V31H75Z"/>
        <path class="cls-4" d="M82.89,29.29v1.15a1.1,1.1,0,0,1-.14.55,1,1,0,0,1-.33.36,1.57,1.57,0,0,1-.49.2,4.44,4.44,0,0,1-.56.1H80.8A10.65,10.65,0,0,1,79,31.5v-.66a8.72,8.72,0,0,0,1.75.22h.44a2.7,2.7,0,0,0,.41-.07.7.7,0,0,0,.37-.2.58.58,0,0,0,.13-.38v-1c0-.36-.4-.54-1.18-.54H79.69v-.55h1c.79,0,1.19-.19,1.19-.56v-1c0-.31-.39-.46-1.15-.46-.25,0-.59,0-1,.05l-.67,0v-.6c.72-.05,1.28-.07,1.69-.07a3.92,3.92,0,0,1,1.46.21.76.76,0,0,1,.5.75v1.06a.57.57,0,0,1-.23.47,1.22,1.22,0,0,1-.56.22v0a2.39,2.39,0,0,1,.35.07l.29.12a.64.64,0,0,1,.24.22A.7.7,0,0,1,82.89,29.29Z"/>
        <path class="cls-4" d="M88.76,25.86l-2,4.7a2,2,0,0,1-.57.83,1.52,1.52,0,0,1-1,.27,3.46,3.46,0,0,1-.74-.09V31A2.62,2.62,0,0,0,85,31a.94.94,0,0,0,.59-.17,1.54,1.54,0,0,0,.4-.57l.17-.4-2-4h1L86.56,29l1.34-3.17Z"/>
        <path class="cls-4" d="M94.11,29.49v.84c0,.83-.68,1.24-2,1.24H90.22V25.86h3.14v.61H91.08v1.86h.85c.29,0,.53,0,.73,0a3.13,3.13,0,0,1,.59.09,1.59,1.59,0,0,1,.47.19A.93.93,0,0,1,94,29,1.21,1.21,0,0,1,94.11,29.49Zm-.84.81v-.71a.54.54,0,0,0-.29-.53,2.12,2.12,0,0,0-.93-.15h-1V31h1.34a2.41,2.41,0,0,0,.38-.07.76.76,0,0,0,.36-.22A.61.61,0,0,0,93.27,30.3Z"/>
        <path class="cls-4" d="M95.74,25.86h.86v2.47h.85c.29,0,.53,0,.73,0a3,3,0,0,1,.59.09,1.48,1.48,0,0,1,.47.19.93.93,0,0,1,.28.34,1.21,1.21,0,0,1,.11.52v.84c0,.83-.67,1.24-2,1.24H95.74Zm3.05,4.44v-.71a.55.55,0,0,0-.27-.55,2.36,2.36,0,0,0-1-.13h-1V31h1.34a2.51,2.51,0,0,0,.39-.07.73.73,0,0,0,.35-.22A.61.61,0,0,0,98.79,30.3Zm2.57,1.27h-.85V25.86h.85Z"/>
        <path class="cls-4" d="M106.93,31.57h-1V25.86h.78v4.72l3.07-4.72h1v5.71H110V26.78Z"/>
        <path class="cls-4" d="M119.24,25.86l-2,4.7a2,2,0,0,1-.57.83,1.52,1.52,0,0,1-1,.27,3.46,3.46,0,0,1-.74-.09V31a2.62,2.62,0,0,0,.54.06.94.94,0,0,0,.59-.17,1.54,1.54,0,0,0,.4-.57l.17-.4-2-4h1L117,29l1.33-3.17Z"/>
        <path class="cls-4" d="M120.83,30.51V25.86h4.42v5.71h-.85V26.49h-2.71v4.22a.82.82,0,0,1-.26.67,1.32,1.32,0,0,1-.78.19h-.79V31h.49a.53.53,0,0,0,.38-.1A.48.48,0,0,0,120.83,30.51Z"/>
        <path class="cls-4" d="M127.11,25.86H128v2.47h.85c.29,0,.53,0,.73,0a3,3,0,0,1,.59.09,1.48,1.48,0,0,1,.47.19.93.93,0,0,1,.28.34,1.21,1.21,0,0,1,.11.52v.84c0,.83-.67,1.24-2,1.24h-1.86Zm3,4.44v-.71a.55.55,0,0,0-.27-.55,2.33,2.33,0,0,0-.95-.13h-1V31h1.34a2.51,2.51,0,0,0,.39-.07.73.73,0,0,0,.35-.22A.61.61,0,0,0,130.15,30.3Zm2.57,1.27h-.85V25.86h.85Z"/>
        <path class="cls-4" d="M138.46,29.49v.84c0,.83-.67,1.24-2,1.24h-1.86V25.86h3.13v.61h-2.28v1.86h.85c.29,0,.53,0,.73,0a3,3,0,0,1,.59.09,1.48,1.48,0,0,1,.47.19.93.93,0,0,1,.28.34A1.21,1.21,0,0,1,138.46,29.49Zm-.84.81v-.71a.54.54,0,0,0-.28-.53,2.17,2.17,0,0,0-.94-.15h-1V31h1.34a2.32,2.32,0,0,0,.39-.07.73.73,0,0,0,.35-.22A.61.61,0,0,0,137.62,30.3Z"/>
        <path class="cls-4" d="M141,31.57h-.86V25.86H141v2.47a1,1,0,0,0,.49-.08.86.86,0,0,0,.33-.35l.78-1.22a2.32,2.32,0,0,1,.59-.69,1.83,1.83,0,0,1,.85-.13h.4v.6H144a.65.65,0,0,0-.4.14,2.43,2.43,0,0,0-.37.48l-.55.92a2.63,2.63,0,0,1-.33.44,1,1,0,0,1-.41.2,4.59,4.59,0,0,1,1.29,1.16l1.6,1.77h-1.09l-1.58-1.77a4.38,4.38,0,0,0-.72-.73.77.77,0,0,0-.43-.15Z"/>
        <path class="cls-4" d="M151.33,31.57h-.89l-.65-1.73h-2.45l-.64,1.73h-.84l2.27-5.71h1Zm-1.75-2.32-1-2.58h-.08l-1,2.58Z"/>
        <path class="cls-4" d="M159.08,31.5a7.55,7.55,0,0,1-1.6.16c-1.6,0-2.41-.51-2.41-1.55V27.4c0-1.09.81-1.64,2.41-1.64a7.55,7.55,0,0,1,1.57.17v.63a6.51,6.51,0,0,0-1.55-.21,4.83,4.83,0,0,0-.59,0,3.23,3.23,0,0,0-.51.14.78.78,0,0,0-.37.32,1,1,0,0,0-.14.54v2.68c0,.66.55,1,1.64,1a6.49,6.49,0,0,0,1.55-.22Z"/>
        <path class="cls-4" d="M164.6,27v1.19a1.08,1.08,0,0,1-.56,1,3.52,3.52,0,0,1-1.61.3h-.86v2.06h-.85V25.86h1.87l.6,0a4.05,4.05,0,0,1,.55.08,1.35,1.35,0,0,1,.45.19.94.94,0,0,1,.29.33A1,1,0,0,1,164.6,27Zm-.83,1.14v-1a.56.56,0,0,0-.13-.39.65.65,0,0,0-.35-.21,1.73,1.73,0,0,0-.38-.08h-1.35V29h1a1.93,1.93,0,0,0,.87-.19A.69.69,0,0,0,163.77,28.13Z"/>
        <path class="cls-4" d="M170.83,31.57h-.89l-.65-1.73h-2.45l-.65,1.73h-.84l2.27-5.71h1Zm-1.76-2.32-1-2.58H168l-1,2.58Z"/>
        <path class="cls-4" d="M176.13,29.29v1.15A1.1,1.1,0,0,1,176,31a1,1,0,0,1-.33.36,1.48,1.48,0,0,1-.49.2,4.65,4.65,0,0,1-.55.1H174a10.73,10.73,0,0,1-1.84-.16v-.66a8.72,8.72,0,0,0,1.75.22h.44a2.7,2.7,0,0,0,.41-.07.66.66,0,0,0,.37-.2.53.53,0,0,0,.13-.38v-1c0-.36-.4-.54-1.18-.54h-1.19v-.55h1c.79,0,1.19-.19,1.19-.56v-1c0-.31-.38-.46-1.15-.46-.25,0-.59,0-1,.05l-.67,0v-.6c.72-.05,1.28-.07,1.69-.07a3.92,3.92,0,0,1,1.46.21.76.76,0,0,1,.5.75v1.06a.57.57,0,0,1-.23.47,1.22,1.22,0,0,1-.56.22v0l.35.07.29.12a.57.57,0,0,1,.24.22A.7.7,0,0,1,176.13,29.29Z"/>
        <path class="cls-4" d="M182,25.86l-2,4.7a2.15,2.15,0,0,1-.58.83,1.52,1.52,0,0,1-1,.27,3.46,3.46,0,0,1-.74-.09V31a2.62,2.62,0,0,0,.54.06,1,1,0,0,0,.6-.17,1.66,1.66,0,0,0,.39-.57l.17-.4-2-4h1L179.8,29l1.34-3.17Z"/>
      </g>
    </g>
  </g>
</svg>
