<svg xmlns="http://www.w3.org/2000/svg" width="182" height="39" viewBox="0 0 182 38.81">
  <defs>
    <style>
      .cls-1, .cls-2 {
        fill: #249da3;
      }

      .cls-1 {
        fill-rule: evenodd;
      }

      .cls-3 {
        fill: #b4b4b4;
      }

      .cls-4 {
        fill: #505151;
      }
    </style>
  </defs>
  <title>logo</title>
  <g id="Layer_2" data-name="Layer 2">
    <g id="Layer_1-2" data-name="Layer 1">
      <path class="cls-1" d="M31.48,32c-5.37,11.63-8.33,5.1-9.29,4.24a55.46,55.46,0,0,1-3.76-4.81,53.52,53.52,0,0,1-3.76,4.81c-1,.86-3.91,7.39-9.28-4.24S-.08,10.83,0,9.4.1,4.24,3.09,1.78A8.47,8.47,0,0,1,11.53.63c2.49,1,6.9,5,6.9,5s4.41-3.91,6.91-5a8.48,8.48,0,0,1,8.44,1.15c3,2.46,3,6.19,3.07,7.62S36.85,20.35,31.48,32ZM26.75,15.79H21.19V10.2H15.67v5.59H10.12v5.57h5.55V27h5.52V21.36h5.56Z"/>
      <g>
        <path class="cls-2" d="M47.43,16.38c.4,1.26,1.38,2.1,3.67,2.1S54,17.75,54,16.79s-.65-1.62-3.58-2.12c-4.33-.74-5.2-2.12-5.2-3.87,0-2.51,2.4-3.84,5.41-3.84,4.38,0,5.53,2.29,5.67,3.73H53.59C53.36,10,52.9,9,50.56,9,48.94,9,48,9.52,48,10.52s.53,1.33,3.15,1.79c4.87.86,5.64,2.34,5.64,4.2,0,2.2-1.73,4-6,4-4,0-5.77-1.77-6.18-4.13Z"/>
        <path class="cls-2" d="M59,13.23c0-.81,0-1.62,0-2.43h2.49A7.89,7.89,0,0,1,61.5,12a3.39,3.39,0,0,1,3-1.46,2.81,2.81,0,0,1,2.85,1.62,3.58,3.58,0,0,1,3.21-1.62c1.95,0,3.5,1.14,3.5,4v5.75H71.43V14.56c0-.91-.29-2-1.68-2-1.21,0-2,.77-2,2.49v5.21H65.2V14.54c0-1-.35-2-1.69-2s-2,1-2,2.54v5.16H59Z"/>
        <path class="cls-2" d="M76.48,8.79V6.48h2.61V8.79Zm0,2h2.61v9.45H76.48Z"/>
        <path class="cls-2" d="M81.52,20.25V6.48h2.6V20.25Z"/>
        <path class="cls-2" d="M88.6,16.14a2.47,2.47,0,0,0,2.62,2.4,2.28,2.28,0,0,0,2.27-1.12h2.6c-.55,1.6-1.94,3.09-4.91,3.09-3.72,0-5.18-2.54-5.18-5a4.82,4.82,0,0,1,5.15-5,4.71,4.71,0,0,1,5.07,5c0,.2,0,.36,0,.62Zm5-1.64a2.16,2.16,0,0,0-2.41-2.1,2.25,2.25,0,0,0-2.51,2.1Z"/>
        <path class="cls-3" d="M104.25,14.45v2.19H98.19V14.45Z"/>
        <path class="cls-3" d="M115.61,17.69c0,1.14,0,2.36.07,2.56h-2.45a5.5,5.5,0,0,1-.11-1.16c-.52.87-1.61,1.42-3.45,1.42-2.62,0-3.65-1.58-3.65-3.08,0-2.45,2.19-3.15,5-3.15h2.08v-.35c0-.85-.37-1.58-2-1.58s-1.79.59-1.94,1.23h-2.62c.1-1.2.93-3,4.52-3,3.89,0,4.54,1.84,4.54,3.43ZM113.06,16h-2c-1.71,0-2.45.42-2.45,1.32,0,.72.56,1.31,1.81,1.31,1.92,0,2.69-1,2.69-2.39Z"/>
        <path class="cls-3" d="M117,10.8h1.75V7.92h2.62V10.8h2.28v1.91h-2.28v4.37c0,.91.2,1.31,1.16,1.31a4.88,4.88,0,0,0,.85-.07v1.81a5.88,5.88,0,0,1-1.76.2c-2.21,0-2.87-1-2.87-2.82v-4.8H117Z"/>
        <path class="cls-3" d="M130.44,14.45v2.19h-6.06V14.45Z"/>
        <path class="cls-2" d="M146.68,13.69c0,3.63-2.44,6.84-7.06,6.84a6.53,6.53,0,0,1-6.9-6.82,6.68,6.68,0,0,1,7-6.75A6.58,6.58,0,0,1,146.68,13.69Zm-11.08,0c0,2.57,1.4,4.69,4.16,4.69s4-2.27,4-4.63-1.31-4.61-4.14-4.61S135.6,11.29,135.6,13.67Z"/>
        <path class="cls-2" d="M148.87,13.17c0-.79,0-1.69,0-2.37h2.55c0,.27,0,.92.07,1.38a3.43,3.43,0,0,1,3.23-1.64c2.3,0,3.7,1.42,3.7,3.91v5.8h-2.63V14.87c0-1.23-.48-2.28-2-2.28s-2.32,1.14-2.32,3v4.66h-2.62Z"/>
        <path class="cls-2" d="M170.34,17.14c-.42,1.75-1.93,3.37-4.9,3.37-3.56,0-5.18-2.28-5.18-5a4.88,4.88,0,0,1,5.18-5c3.57,0,4.7,2.3,4.85,3.43h-2.62a2.11,2.11,0,0,0-2.21-1.46c-1.7,0-2.53,1.25-2.53,3s.79,3,2.51,3a2.22,2.22,0,0,0,2.28-1.38Z"/>
        <path class="cls-2" d="M174.15,16.14a2.47,2.47,0,0,0,2.62,2.4A2.27,2.27,0,0,0,179,17.42h2.6c-.55,1.6-1.93,3.09-4.9,3.09-3.72,0-5.18-2.54-5.18-5a4.82,4.82,0,0,1,5.14-5,4.71,4.71,0,0,1,5.07,5c0,.2,0,.36,0,.62Zm5-1.64a2.17,2.17,0,0,0-2.42-2.1,2.24,2.24,0,0,0-2.5,2.1Z"/>
      </g>
      <g>
        <path class="cls-4" d="M48.15,32v-2.6H45.62V32h-1V26h1v2.51h2.53V26h1v6Z"/>
        <path class="cls-4" d="M55.34,30.08a1.92,1.92,0,0,1-.18.84,1.89,1.89,0,0,1-.48.64A2.22,2.22,0,0,1,54,32a3.08,3.08,0,0,1-1.77,0,2.08,2.08,0,0,1-.72-.39,1.87,1.87,0,0,1-.47-.64,1.92,1.92,0,0,1-.18-.84V27.94A1.86,1.86,0,0,1,51,27.1a1.79,1.79,0,0,1,.49-.63,2.13,2.13,0,0,1,.71-.39,2.8,2.8,0,0,1,.88-.14,2.84,2.84,0,0,1,.88.14,2.52,2.52,0,0,1,.72.4,1.79,1.79,0,0,1,.49.63,1.92,1.92,0,0,1,.18.84Zm-1-2a1.19,1.19,0,0,0-.38-1,1.25,1.25,0,0,0-.41-.22,1.59,1.59,0,0,0-.48-.07,1.51,1.51,0,0,0-.48.07,1.11,1.11,0,0,0-.4.22,1.19,1.19,0,0,0-.38,1v1.83a1.34,1.34,0,0,0,.1.56,1,1,0,0,0,.69.61,1.84,1.84,0,0,0,.47.07,2,2,0,0,0,.48-.07,1.25,1.25,0,0,0,.41-.22,1.15,1.15,0,0,0,.28-.39,1.34,1.34,0,0,0,.1-.56Z"/>
        <path class="cls-4" d="M61.44,30.25a2.08,2.08,0,0,1-.11.66,1.64,1.64,0,0,1-.33.57,1.45,1.45,0,0,1-.54.39,1.72,1.72,0,0,1-.74.15H57V26h2.61a2,2,0,0,1,.75.13,1.37,1.37,0,0,1,.54.35,1.54,1.54,0,0,1,.33.51,1.78,1.78,0,0,1,.11.61,1.49,1.49,0,0,1-.18.7,1.34,1.34,0,0,1-.57.56,1.41,1.41,0,0,1,.64.61A1.7,1.7,0,0,1,61.44,30.25Zm-1.11-2.57a.68.68,0,0,0-.25-.59,1.16,1.16,0,0,0-.69-.18H58v1.54h1.42a1,1,0,0,0,.65-.2A.67.67,0,0,0,60.33,27.68Zm.08,2.55a.81.81,0,0,0-.28-.66,1,1,0,0,0-.68-.25H58v1.8h1.45a1,1,0,0,0,.71-.24A.85.85,0,0,0,60.41,30.23Z"/>
        <path class="cls-4" d="M63,32V26h1V28.4h1.52a2,2,0,0,1,.76.14,1.78,1.78,0,0,1,.57.4,1.54,1.54,0,0,1,.36.57,1.8,1.8,0,0,1,.13.69,2.14,2.14,0,0,1-.1.65,1.88,1.88,0,0,1-.32.59,1.79,1.79,0,0,1-.55.42,1.86,1.86,0,0,1-.81.16Zm1-.9h1.38a1,1,0,0,0,.71-.25.87.87,0,0,0,.27-.67.81.81,0,0,0-.28-.66,1,1,0,0,0-.71-.24H64ZM69,26v6H68V26Z"/>
        <path class="cls-4" d="M70.77,26h4.08v.9H71.76v1.65H74.4v.9H71.76v1.66h3.09V32H70.77Z"/>
        <path class="cls-4" d="M81,26a3.08,3.08,0,0,1,.75.09,1.74,1.74,0,0,1,.64.27,1.52,1.52,0,0,1,.44.5,1.5,1.5,0,0,1,.17.74,1.58,1.58,0,0,1-.22.8,1.33,1.33,0,0,1-.64.52,1.17,1.17,0,0,1,.68.54,1.62,1.62,0,0,1,.2.81,1.86,1.86,0,0,1-.18.84,1.54,1.54,0,0,1-.49.58,2.23,2.23,0,0,1-.71.34,3.36,3.36,0,0,1-.85.1,3.44,3.44,0,0,1-1.11-.17,2.37,2.37,0,0,1-.84-.44l.52-.73a1.72,1.72,0,0,0,.3.19l.36.14.38.1.35,0a1.44,1.44,0,0,0,.94-.27.86.86,0,0,0,.34-.72.83.83,0,0,0-.28-.68,1.13,1.13,0,0,0-.74-.22h-.75V28.5h.7a1.58,1.58,0,0,0,.38-.05,1.29,1.29,0,0,0,.33-.17.85.85,0,0,0,.24-.29.87.87,0,0,0,0-.75.91.91,0,0,0-.24-.24,1.29,1.29,0,0,0-.36-.14,1.91,1.91,0,0,0-.43,0l-.33,0a2.37,2.37,0,0,0-.36.09l-.34.14a2.08,2.08,0,0,0-.29.19l-.5-.72a2.86,2.86,0,0,1,.83-.44A3.6,3.6,0,0,1,81,26Z"/>
        <path class="cls-4" d="M87,30.83a3.7,3.7,0,0,1-.31.63,1.41,1.41,0,0,1-.34.38.91.91,0,0,1-.39.2,1.64,1.64,0,0,1-.45.05h-.65v-.84h.52a.67.67,0,0,0,.35-.08.82.82,0,0,0,.25-.31L86,30.7q-.48-1.17-.93-2.34c-.3-.78-.61-1.57-.92-2.35h1l.13.34c.07.18.14.39.23.63l.28.77.28.77c.09.24.16.45.23.63a3.25,3.25,0,0,0,.13.37h0q0-.15.15-.42c.06-.19.14-.4.22-.63s.17-.48.26-.73.18-.5.27-.73.15-.43.22-.61.11-.31.14-.39h1Z"/>
        <path class="cls-4" d="M90.05,26h3.71v.9H91.05V28.4h1.52a2.13,2.13,0,0,1,.78.14,1.78,1.78,0,0,1,.57.4,1.65,1.65,0,0,1,.35.57,2,2,0,0,1,.12.69,2.14,2.14,0,0,1-.1.65,1.88,1.88,0,0,1-.32.59,1.83,1.83,0,0,1-.56.42,1.8,1.8,0,0,1-.81.16H90.05Zm1,5.11h1.38a1,1,0,0,0,.71-.25.88.88,0,0,0,.28-.67.82.82,0,0,0-.29-.66,1.08,1.08,0,0,0-.72-.24H91.05Z"/>
        <path class="cls-4" d="M95.83,32V26h1V28.4h1.53a2,2,0,0,1,.75.14,1.72,1.72,0,0,1,.58.4,1.85,1.85,0,0,1,.36.57,2,2,0,0,1,.13.69,2.16,2.16,0,0,1-.11.65,1.88,1.88,0,0,1-.32.59,1.68,1.68,0,0,1-.55.42,1.8,1.8,0,0,1-.81.16Zm1-.9h1.39a1,1,0,0,0,.71-.25.87.87,0,0,0,.27-.67.84.84,0,0,0-.28-.66,1.08,1.08,0,0,0-.72-.24H96.83Zm5-5.11v6h-1V26Z"/>
        <path class="cls-4" d="M110.08,27.73c-.12.19-.24.38-.35.57l-.37.56-.22.34c-.1.17-.22.35-.36.57l-.43.67-.45.68-.36.56-.22.34h-.92V26h1v4.28h0L110.19,26h.94v6h-1V27.73Z"/>
        <path class="cls-4" d="M118.07,30.83a3.7,3.7,0,0,1-.31.63,1.27,1.27,0,0,1-.34.38.91.91,0,0,1-.39.2,1.64,1.64,0,0,1-.45.05h-.65v-.84h.52a.67.67,0,0,0,.35-.08.82.82,0,0,0,.25-.31l.08-.16q-.48-1.17-.93-2.34c-.3-.78-.61-1.57-.92-2.35h1l.13.34c.07.18.14.39.23.63l.28.77.28.77c.09.24.16.45.23.63a3.25,3.25,0,0,0,.13.37h0q0-.15.15-.42c.06-.19.14-.4.22-.63s.17-.48.27-.73.17-.5.26-.73.16-.43.22-.61.11-.31.14-.39h1Z"/>
        <path class="cls-4" d="M122.82,26.91v1.75a8.41,8.41,0,0,1-.1,1.41,3.28,3.28,0,0,1-.32,1,2,2,0,0,1-.58.7,2.51,2.51,0,0,1-.89.4l-.3-.83a1.78,1.78,0,0,0,.57-.35,1.37,1.37,0,0,0,.37-.51,2.55,2.55,0,0,0,.2-.76,8.55,8.55,0,0,0,.06-1.1V26h3.83v6h-1V26.91Z"/>
        <path class="cls-4" d="M127.42,32V26h1V28.4H130a2,2,0,0,1,.75.14,1.72,1.72,0,0,1,.58.4,1.85,1.85,0,0,1,.36.57,2,2,0,0,1,.12.69,2.14,2.14,0,0,1-.1.65,1.88,1.88,0,0,1-.32.59,1.68,1.68,0,0,1-.55.42A1.8,1.8,0,0,1,130,32Zm1-.9h1.39a1,1,0,0,0,.71-.25.87.87,0,0,0,.27-.67.84.84,0,0,0-.28-.66,1.08,1.08,0,0,0-.72-.24h-1.37Zm5-5.11v6h-1V26Z"/>
        <path class="cls-4" d="M135.11,26h3.7v.9H136.1V28.4h1.52a2.09,2.09,0,0,1,.78.14,1.58,1.58,0,0,1,.57.4,1.54,1.54,0,0,1,.36.57,2,2,0,0,1,.12.69,2.5,2.5,0,0,1-.1.65,1.72,1.72,0,0,1-.33.59,1.68,1.68,0,0,1-.55.42,1.86,1.86,0,0,1-.81.16h-2.55Zm1,5.11h1.38a1,1,0,0,0,.72-.25.87.87,0,0,0,.27-.67.81.81,0,0,0-.28-.66,1.08,1.08,0,0,0-.72-.24H136.1Z"/>
        <path class="cls-4" d="M140.87,32V26h1v2.5h.78l.31,0a.81.81,0,0,0,.29-.12,1,1,0,0,0,.26-.24,1.57,1.57,0,0,0,.2-.43l.54-1.68h1l-.54,1.75a2.22,2.22,0,0,1-.36.74,1.1,1.1,0,0,1-.5.4,1.08,1.08,0,0,1,.59.43,2.89,2.89,0,0,1,.34.75l.57,1.94h-1.06l-.51-1.77a1.39,1.39,0,0,0-.19-.44,1.09,1.09,0,0,0-.25-.27.94.94,0,0,0-.3-.12,1.87,1.87,0,0,0-.34,0h-.82V32Z"/>
        <path class="cls-4" d="M150.08,30.72h-2.25l-.42,1.3h-1.06l2.1-6h1l2.1,6h-1.08Zm-2-.86h1.67l-.36-1.13L149,27.2h0l-.44,1.47Z"/>
        <path class="cls-4" d="M159.19,27.29a1.58,1.58,0,0,0-.6-.32,2.17,2.17,0,0,0-.66-.11,1.41,1.41,0,0,0-.45.07,1.08,1.08,0,0,0-.68.6,1.41,1.41,0,0,0-.11.57v1.83a1.33,1.33,0,0,0,.11.56,1.05,1.05,0,0,0,.29.39,1.2,1.2,0,0,0,.4.22,1.61,1.61,0,0,0,.43.07,2.5,2.5,0,0,0,.66-.09,1.91,1.91,0,0,0,.63-.33l.47.77a2.55,2.55,0,0,1-.77.41,3.21,3.21,0,0,1-1,.15,2.94,2.94,0,0,1-.84-.12,2.31,2.31,0,0,1-.71-.38,1.84,1.84,0,0,1-.49-.61,1.92,1.92,0,0,1-.19-.84V27.9a1.82,1.82,0,0,1,.68-1.44,2.12,2.12,0,0,1,.71-.38,2.63,2.63,0,0,1,.83-.14,3.43,3.43,0,0,1,1,.14,2.62,2.62,0,0,1,.81.43Z"/>
        <path class="cls-4" d="M163.74,26a1.67,1.67,0,0,1,.76.16,1.6,1.6,0,0,1,.53.43,1.77,1.77,0,0,1,.32.59,2.44,2.44,0,0,1,.1.65,1.87,1.87,0,0,1-.12.65,1.82,1.82,0,0,1-.34.59,1.77,1.77,0,0,1-.54.44,1.57,1.57,0,0,1-.73.16h-1.58V32h-1V26Zm-1.6,2.77h1.38a1,1,0,0,0,.69-1.62.93.93,0,0,0-.69-.25h-1.38Z"/>
        <path class="cls-4" d="M169.67,30.72h-2.25L167,32h-1.06l2.1-6h1l2.1,6h-1.08Zm-2-.86h1.67L169,28.73l-.46-1.53h0l-.44,1.47Z"/>
        <path class="cls-4" d="M174.18,26a3.08,3.08,0,0,1,.75.09,1.7,1.7,0,0,1,.63.27,1.44,1.44,0,0,1,.45.5,1.59,1.59,0,0,1-.06,1.54,1.35,1.35,0,0,1-.63.52,1.21,1.21,0,0,1,.68.54,1.73,1.73,0,0,1,.2.81,1.86,1.86,0,0,1-.18.84,1.63,1.63,0,0,1-.49.58,2.34,2.34,0,0,1-.71.34,3.69,3.69,0,0,1-2-.07,2.37,2.37,0,0,1-.84-.44l.51-.73a1.82,1.82,0,0,0,.31.19l.36.14.38.1.35,0a1.46,1.46,0,0,0,.94-.27.89.89,0,0,0,.34-.72.86.86,0,0,0-.28-.68,1.14,1.14,0,0,0-.75-.22h-.75V28.5h.71a1.65,1.65,0,0,0,.38-.05,1.29,1.29,0,0,0,.33-.17.85.85,0,0,0,.24-.29.8.8,0,0,0,.09-.39.69.69,0,0,0-.09-.36.91.91,0,0,0-.24-.24,1.22,1.22,0,0,0-.35-.14,2,2,0,0,0-.43,0l-.34,0a2.25,2.25,0,0,0-.35.09l-.34.14a1.62,1.62,0,0,0-.29.19l-.51-.72a3.05,3.05,0,0,1,.84-.44A3.6,3.6,0,0,1,174.18,26Z"/>
        <path class="cls-4" d="M180.17,30.83a3.73,3.73,0,0,1-.3.63,1.6,1.6,0,0,1-.34.38,1,1,0,0,1-.39.2,1.64,1.64,0,0,1-.45.05H178v-.84h.53a.56.56,0,0,0,.59-.39l.08-.16c-.31-.78-.62-1.56-.92-2.34s-.61-1.57-.92-2.35h1l.12.34.24.63c.08.24.18.5.28.77s.19.53.28.77.16.45.22.63l.13.37h.05c0-.1.07-.24.14-.42s.14-.4.23-.63l.26-.73.26-.73c.09-.23.16-.43.22-.61A4.14,4.14,0,0,0,181,26h1Z"/>
      </g>
    </g>
  </g>
</svg>
