<svg xmlns="http://www.w3.org/2000/svg" viewBox="0 0 36.82 38.76" width="37" height="39">
  <defs>
    <style>
      .cls-1 {
        fill: #249da3;
        fill-rule: evenodd;
      }
    </style>
  </defs>
  <title>logo-mini</title>
  <g id="Layer_2" data-name="Layer 2">
    <g id="Layer_1-2" data-name="Layer 1">
      <path class="cls-1" d="M31.44,31.93c-5.37,11.61-8.32,5.09-9.27,4.23a52.27,52.27,0,0,1-3.76-4.8,52.27,52.27,0,0,1-3.76,4.8c-1,.86-3.9,7.38-9.27-4.23S-.08,10.81,0,9.39.1,4.24,3.08,1.77A8.53,8.53,0,0,1,11.51.63c2.49,1,6.9,5,6.9,5s4.4-3.9,6.89-4.95a8.52,8.52,0,0,1,8.43,1.14c3,2.47,3,6.19,3.07,7.62S36.8,20.32,31.44,31.93ZM26.71,15.77H21.16V10.19H15.65v5.58H10.11v5.56h5.54v5.58h5.51V21.33h5.55Z"/>
    </g>
  </g>
</svg>
